<svg width="24" height="24" viewBox="0 0 24 24" fill="none" xmlns="http://www.w3.org/2000/svg">
<g clip-path="url(#clip0_448_10886)">
<path d="M16.035 13.5001L12.94 16.5961C12.6586 16.8774 12.5005 17.2589 12.5004 17.6567C12.5003 18.0546 12.6582 18.4362 12.9395 18.7176C13.2208 18.999 13.6023 19.1571 14.0001 19.1572C14.398 19.1573 14.7796 18.9994 15.061 18.7181L20.718 13.0611C20.8574 12.9218 20.968 12.7564 21.0434 12.5743C21.1188 12.3923 21.1577 12.1972 21.1577 12.0001C21.1577 11.803 21.1188 11.6079 21.0434 11.4259C20.968 11.2438 20.8574 11.0784 20.718 10.9391L15.062 5.2821C14.9227 5.14277 14.7573 5.03224 14.5752 4.95684C14.3932 4.88143 14.198 4.84262 14.001 4.84262C13.804 4.84262 13.6088 4.88143 13.4268 4.95684C13.2447 5.03224 13.0793 5.14277 12.94 5.2821C12.8007 5.42143 12.6901 5.58684 12.6147 5.76889C12.5393 5.95094 12.5005 6.14605 12.5005 6.3431C12.5005 6.54015 12.5393 6.73526 12.6147 6.91731C12.6901 7.09936 12.8007 7.26477 12.94 7.4041L16.035 10.5001H4.5C4.10218 10.5001 3.72064 10.6581 3.43934 10.9394C3.15804 11.2207 3 11.6023 3 12.0001C3 12.3979 3.15804 12.7795 3.43934 13.0608C3.72064 13.3421 4.10218 13.5001 4.5 13.5001H16.035Z" fill="#1D3948"/>
</g>
<defs>
<clipPath id="clip0_448_10886">
<rect width="24" height="24" fill="white" transform="matrix(0 -1 1 0 0 24)"/>
</clipPath>
</defs>
</svg>
