<svg width="24" height="24" viewBox="0 0 24 24" fill="none" xmlns="http://www.w3.org/2000/svg">
<g clip-path="url(#clip0_306_837)">
<path d="M10.4999 16.035L7.4039 12.94C7.12264 12.6586 6.74111 12.5005 6.34325 12.5004C5.9454 12.5003 5.56379 12.6582 5.2824 12.9395C5.00101 13.2208 4.84287 13.6023 4.84277 14.0001C4.84268 14.398 5.00064 14.7796 5.2819 15.061L10.9389 20.718C11.0782 20.8574 11.2436 20.968 11.4257 21.0434C11.6077 21.1188 11.8028 21.1577 11.9999 21.1577C12.197 21.1577 12.3921 21.1188 12.5741 21.0434C12.7562 20.968 12.9216 20.8574 13.0609 20.718L18.7179 15.062C18.8572 14.9227 18.9678 14.7573 19.0432 14.5752C19.1186 14.3932 19.1574 14.198 19.1574 14.001C19.1574 13.804 19.1186 13.6088 19.0432 13.4268C18.9678 13.2447 18.8572 13.0793 18.7179 12.94C18.5786 12.8007 18.4132 12.6901 18.2311 12.6147C18.0491 12.5393 17.8539 12.5005 17.6569 12.5005C17.4599 12.5005 17.2647 12.5393 17.0827 12.6147C16.9006 12.6901 16.7352 12.8007 16.5959 12.94L13.4999 16.035V4.5C13.4999 4.10218 13.3419 3.72064 13.0606 3.43934C12.7793 3.15804 12.3977 3 11.9999 3C11.6021 3 11.2205 3.15804 10.9392 3.43934C10.6579 3.72064 10.4999 4.10218 10.4999 4.5V16.035Z" fill="#1D3948"/>
</g>
<defs>
<clipPath id="clip0_306_837">
<rect width="24" height="24" fill="white"/>
</clipPath>
</defs>
</svg>
