<svg width="25" height="25" viewBox="0 0 25 25" fill="none" xmlns="http://www.w3.org/2000/svg">
<rect x="0.5" y="0.5" width="24" height="24" rx="12" fill="white"/>
<rect x="0.5" y="0.5" width="24" height="24" rx="12" stroke="#2B3C33"/>
<path d="M12.5 11.25C13.4665 11.25 14.25 12.0335 14.25 13C14.25 13.9665 13.4665 14.75 12.5 14.75C11.5335 14.75 10.75 13.9665 10.75 13C10.75 12.0335 11.5335 11.25 12.5 11.25Z" fill="#469A69" stroke="#1D3948" stroke-width="0.5"/>
<path d="M11.0625 7.5H13.9375C14.0846 7.5 14.1779 7.49987 14.2529 7.50586C14.322 7.51138 14.3485 7.52092 14.3594 7.52539C14.3704 7.52996 14.4246 7.55093 14.5801 7.77539H14.5811L15.4336 9.1123L15.46 9.15332L15.4932 9.1875C15.6384 9.34067 15.8765 9.5 16.1562 9.5H18.75C18.8163 9.5 18.8799 9.52636 18.9268 9.57324C18.9736 9.62013 19 9.6837 19 9.75V17.25C19 17.3163 18.9736 17.3799 18.9268 17.4268C18.8799 17.4736 18.8163 17.5 18.75 17.5H6.25C6.1837 17.5 6.12013 17.4736 6.07324 17.4268C6.02636 17.3799 6 17.3163 6 17.25V9.75C6 9.6837 6.02636 9.62013 6.07324 9.57324C6.12013 9.52636 6.1837 9.5 6.25 9.5H7.625V8.75H8.375V9.5H8.875C9.05656 9.5 9.20083 9.42958 9.29297 9.37012C9.38734 9.30918 9.46169 9.23724 9.5127 9.18164L9.54199 9.14941L9.56543 9.1123L10.4189 7.77539L10.4229 7.77051C10.5621 7.54632 10.6171 7.52956 10.625 7.52637C10.6384 7.52101 10.6692 7.51253 10.7422 7.50684C10.8203 7.50077 10.9159 7.5 11.0625 7.5ZM13.915 9.79883C13.2691 9.51335 12.5516 9.42993 11.8574 9.55957C11.1633 9.68925 10.5247 10.0261 10.0254 10.5254C9.52607 11.0247 9.18925 11.6633 9.05957 12.3574C8.92993 13.0516 9.01335 13.7691 9.29883 14.415C9.58428 15.0609 10.0587 15.6051 10.6592 15.9766C11.2597 16.348 11.9587 16.5292 12.6641 16.4961H12.665C13.535 16.4543 14.3587 16.0905 14.9746 15.4746C15.5905 14.8587 15.9543 14.035 15.9961 13.165V13.1641C16.0292 12.4587 15.848 11.7597 15.4766 11.1592C15.1051 10.5587 14.5609 10.0843 13.915 9.79883Z" fill="#81CA7D" stroke="#0F1812"/>
</svg>
