<svg width="80" height="51" viewBox="0 0 80 51" fill="none" xmlns="http://www.w3.org/2000/svg">
<path d="M79.1506 26.3384V31.365H75.0444V36.1438H70.6549V41.0289V44.3918H70.478V43.6484V42.5156V40.9935L66.0531 41.0289H61.8053L57.9114 41.0643H53.9114L53.876 37.2412C53.876 36.9934 53.8759 36.7102 53.9467 36.4624H62.0176V31.9314H65.9824L66.0531 29.2765V26.4092H70.6196V21.9136V21.772H75.1152V26.2676H79.1506V26.3384Z" fill="#DFDEE1"/>
<path d="M4.74465 40.8159C4.74465 40.8159 5.02789 40.9221 5.24028 40.9221H14.0545L14.1253 45.8071H9.48806L4.78008 45.9133L4.70921 40.9929H0.107422V40.8159H4.74465Z" fill="#C9C6CA"/>
<path d="M4.74341 36V36.0708H0.0707585L0 33.7345C0.0353987 33.6991 0.0354333 33.5929 0.0354333 33.5221V31.8584L0.0707585 31.1504H4.70798V36H4.74341Z" fill="#E7E4E4"/>
<path d="M53.9131 36.4969C53.8069 36.7447 53.8423 36.9924 53.8423 37.2756H49.5591V45.6651H25.6649L25.6295 41.1695L21.9481 41.0987H20.1427C20.1427 41.0987 20.2489 40.8863 20.2135 40.7801C20.1781 40.6031 19.4348 40.4261 19.718 40.2845C20.0366 40.1429 20.0365 39.8951 20.0365 39.612C20.0365 39.2934 19.7179 39.3288 19.4701 39.1872C19.2932 39.081 19.2577 38.8332 18.9745 38.7978C18.8329 38.7978 18.656 38.5854 18.6914 38.4438C18.6914 38.3376 18.833 38.2314 19.0099 38.0544C18.7976 37.9482 18.4436 37.4526 18.5852 37.2756C18.7976 36.9571 18.9392 36.7447 18.9392 36.3553C18.9392 36.0367 19.4347 36.1075 19.5763 35.9659C19.6825 35.8597 19.5763 35.4703 19.364 35.4703C19.4348 35.1871 19.7888 35.0809 19.718 34.8331C19.6826 34.6561 19.2931 34.6561 19.1161 34.3021C19.0453 34.1606 19.2932 33.9836 19.2932 33.842C19.2932 33.3464 18.7976 32.8862 18.2666 32.8862V32.2136C18.5852 32.1428 18.833 32.6384 19.0454 32.4614C19.2224 32.3198 19.0454 32.1428 19.0454 31.8596C19.4702 31.8596 19.8596 31.8596 20.2844 31.8242C20.2844 31.895 20.2843 32.1074 20.3197 32.1782C20.3551 32.2136 20.5321 32.1782 20.6029 32.1782C20.6737 32.1782 20.7091 32.0366 20.6383 31.9658C20.6737 31.9658 20.7799 31.9658 20.8507 31.9658C20.7092 32.3552 20.5322 32.6738 20.8507 32.7092C22.4437 32.9216 21.8773 33.5588 22.2312 33.6296C22.4436 33.7004 22.6206 33.6296 22.656 33.4526C22.7976 32.957 22.3728 32.9216 22.3374 32.7446C22.3374 32.6384 22.3374 32.4968 22.4436 32.426C22.6206 32.3552 22.7977 32.3552 22.9393 32.3552L23.01 36.4969C23.01 36.4969 22.9038 36.7801 23.1162 36.8509C23.2224 36.8509 23.364 36.5677 23.2932 36.4615H25.6649L30.3729 36.4261V40.9925H35.2226H40.32V36.3907H44.9926V27.1162H49.4174V31.6472C49.5236 32.0012 49.5237 32.2844 49.4883 32.6738H53.9131L53.8777 36.6385L53.9131 36.4969ZM22.656 34.7623C22.5852 34.5853 22.4436 34.4084 22.2312 34.4084C21.8773 34.4084 21.7003 35.2933 22.0189 35.9305C22.1605 36.2491 22.8684 35.5057 22.656 34.7269M21.1339 38.3022C21.4171 38.373 21.594 38.196 21.6294 38.019C21.2046 37.9128 21.4879 37.1694 20.9569 37.0986C20.7091 37.0986 20.4259 37.2048 20.1427 37.2402C20.1427 37.5588 20.1427 37.7712 20.0365 38.0544L21.0985 38.2668L21.1339 38.3022ZM22.0189 38.4792C22.0189 38.4792 22.0897 38.727 22.125 38.7624C22.1958 38.7978 22.2667 38.7624 22.2667 38.6916C22.2667 38.5854 22.2666 38.4792 22.1958 38.4438C22.1958 38.4438 21.9834 38.4438 21.9834 38.4792M22.7976 39.4704C22.7976 39.4704 22.6561 39.7182 22.7269 39.7536C22.8331 39.7536 22.9747 39.8597 23.0454 39.8244C23.1162 39.8244 23.0808 39.612 23.0454 39.5412C23.0454 39.4704 22.9038 39.3996 22.7976 39.4704ZM22.302 39.9305C22.302 39.9305 21.8418 39.7889 21.771 39.8597C21.6648 39.9659 21.7711 40.2491 21.9127 40.4261C22.0189 40.3199 22.2666 40.2137 22.302 39.9305Z" fill="#DDDADD"/>
<path d="M19.0457 31.7895C19.0811 32.1081 19.2581 32.2497 19.0457 32.3913C18.8333 32.5683 18.6209 32.0727 18.2315 32.1435V32.8161C18.7625 32.8161 19.3289 33.2763 19.2935 33.7719C19.2935 33.9135 19.0457 34.1259 19.1165 34.2321C19.3288 34.586 19.6829 34.6214 19.7183 34.763C19.7891 35.0108 19.4351 35.117 19.3643 35.4002C19.5767 35.4002 19.7183 35.7896 19.5767 35.8958C19.4351 36.0374 18.9395 35.9666 18.9395 36.2852C18.9395 36.6746 18.7979 36.887 18.5855 37.2055C18.4439 37.4179 18.7979 37.8781 19.0103 37.9843C18.8333 38.1613 18.7271 38.2321 18.6917 38.3737C18.6917 38.5153 18.8332 38.7277 18.9748 38.7277C19.2934 38.7277 19.3289 39.0109 19.4705 39.1171C19.7183 39.2587 20.0015 39.2233 20.0369 39.5419C20.0369 39.8251 20.0369 40.0729 19.7183 40.2144C19.4351 40.356 20.1784 40.533 20.2138 40.71C20.2138 40.8162 20.1784 40.9578 20.143 41.064H18.7979L18.8333 45.772H14.0545L13.9837 40.8516H5.16935C4.95696 40.8516 4.78002 40.8516 4.67383 40.7454V35.9312H8.49684L9.52343 36.002H12.7447C13.1695 36.1082 13.5942 36.1436 14.019 36.0374V31.6479H18.9748L19.0457 31.7895Z" fill="#DFDDE0"/>
<path d="M22.9389 32.249C22.9389 32.249 22.6203 32.249 22.4433 32.3198C22.3017 32.3906 22.3017 32.5322 22.3371 32.6384C22.3725 32.8154 22.7973 32.8508 22.6557 33.3463C22.6203 33.4879 22.4433 33.5588 22.2309 33.5234C21.8769 33.4172 22.408 32.8154 20.8504 32.603C20.5318 32.5676 20.7088 32.249 20.8504 31.8596C21.877 31.8596 23.1513 31.8242 22.9389 32.249Z" fill="#DFDDE0"/>
<path d="M23.2921 36.3545C23.2921 36.3545 23.2213 36.7793 23.1151 36.7439C22.9027 36.6731 22.9381 36.4607 23.0089 36.3899H23.2921V36.3545Z" fill="#DFDDE0"/>
<path d="M49.5924 45.666L49.7339 45.8784V50.4094H40.1763L25.5566 50.4802V45.843C25.5566 45.843 25.6274 45.7014 25.6628 45.666H49.557H49.5924Z" fill="#C8C5C9"/>
<path d="M79.1509 31.3647V41.0286H70.6553V36.179L75.0448 36.1436V31.3647H79.1509Z" fill="#CCC8CD"/>
<path d="M53.8772 37.2759L53.9127 41.0635H57.9126V45.7716L49.7355 45.8778L49.594 45.6654L49.5586 37.2759H53.8772Z" fill="#B9B9BC"/>
<path d="M61.8052 41.063C61.8052 41.063 61.7698 41.3816 61.8406 41.5232C62.053 41.8418 62.6194 41.24 62.8318 41.7356C62.938 42.0188 63.1504 42.125 63.5044 42.0542L63.8937 42.9037C63.8937 42.9037 63.8938 43.2577 64.0708 43.2931C64.1769 43.2931 64.3539 43.2931 64.4601 43.1161C64.7079 42.7621 65.0973 43.3639 65.2389 43.2931L65.6283 43.0099L66.3716 43.3639C66.6194 43.5055 66.7965 43.5409 67.1859 43.3639L66.938 44.0011C67.3628 43.8241 67.7522 44.0011 67.8584 44.4613C67.2921 44.4613 66.584 44.5675 66.4778 44.6383C66.1239 44.9923 67.292 44.8507 67.469 45.4524C66.7256 45.7002 65.9468 45.3108 66.0176 45.7356H57.876V41.063H61.7699H61.8052Z" fill="#CAC8CB"/>
<path d="M25.7004 45.6648C25.7004 45.6648 25.5587 45.8064 25.5587 45.8418H18.8683L18.833 41.1338H20.1782H21.9834L25.6649 41.2046V45.7002L25.7004 45.6648Z" fill="#C5C5C7"/>
<path d="M70.5126 42.1957C70.5126 42.1957 70.4064 42.2665 70.4064 42.3373C70.4064 42.4081 70.4064 42.4789 70.5126 42.4789V43.6117C70.2294 43.7533 69.9816 43.2223 69.7692 43.5409C69.663 43.6825 70.1586 44.3551 70.5126 44.3551H70.725V45.7002H66.1231C66.0523 45.2754 66.8311 45.7002 67.5745 45.417C67.3975 44.8152 66.1939 44.9568 66.5833 44.6028C66.6541 44.532 67.3975 44.3905 67.9639 44.4259C67.8577 44.0011 67.5037 43.7887 67.0435 43.9657L67.2913 43.3285C66.8665 43.5055 66.7249 43.4701 66.4771 43.3285L65.7338 42.9745L65.3443 43.2577C65.3443 43.2577 64.8133 42.7267 64.5656 43.0807C64.4594 43.2223 64.3178 43.2577 64.1762 43.2223C63.9638 43.1869 64.07 43.0099 63.9992 42.8329L63.6098 41.9833C63.2558 42.0541 63.0434 41.9479 62.9372 41.6648C62.7249 41.1692 62.1939 41.7709 61.9461 41.4524C61.8399 41.3108 61.8399 41.1692 61.9107 40.9922H66.1585L70.6541 40.9214V42.1249L70.5126 42.1957ZM66.7957 42.7975C66.7957 42.7975 66.7603 42.6913 66.6895 42.6913C66.6187 42.6913 66.5833 42.7267 66.5833 42.7975C66.5833 42.8683 66.6187 42.9037 66.6895 42.9037C66.7603 42.9037 66.7957 42.8683 66.7957 42.7975ZM70.4418 45.1692C70.4418 45.1692 70.548 44.8506 70.4418 44.6736C70.4418 44.6736 70.4418 44.6736 70.371 44.7444C70.371 44.886 70.371 45.0276 70.4064 45.2046" fill="#CCC8CD"/>
<path d="M70.4806 43.6462V44.3896C70.1266 44.3896 69.6311 43.717 69.7373 43.5754C69.9851 43.2214 70.2328 43.7878 70.4806 43.6462Z" fill="#CAC8CB"/>
<path d="M70.5134 42.5146C70.5134 42.5146 70.4072 42.4438 70.4072 42.373C70.4072 42.3022 70.4072 42.2314 70.5134 42.2314V42.5146Z" fill="#CAC8CB"/>
<path d="M4.74465 36.0728V40.8162H0.107422C0.107422 40.8162 0.142855 40.6038 0.142855 40.533L0.249047 36.9577C0.638433 36.8161 1.13398 36.5329 1.09858 36.1082H4.74465V36.0728Z" fill="#C8C5C9"/>
<path d="M1.09733 36.0728C1.09733 36.5329 0.601781 36.7807 0.247793 36.9223L0.141602 40.4976V36.0728H1.13276H1.09733Z" fill="#C9C6CA"/>
<path d="M21.1322 38.3026L20.0703 38.0902C20.1765 37.807 20.1765 37.5946 20.1411 37.2761C20.3889 37.2053 20.6721 37.0991 20.9553 37.1345C21.4863 37.1699 21.203 37.9486 21.6278 38.0548C21.5924 38.1964 21.4154 38.3734 21.1322 38.338" fill="#DFDDE0"/>
<path d="M22.656 34.7634C22.9038 35.5422 22.1604 36.2502 22.0188 35.967C21.7356 35.2944 21.8772 34.4448 22.2312 34.4448C22.4082 34.4448 22.5852 34.5864 22.656 34.7634Z" fill="#DFDDE0"/>
<path d="M22.3007 39.9307C22.2653 40.1785 22.0175 40.2847 21.9113 40.4263C21.7697 40.2493 21.6635 39.9661 21.7697 39.8599C21.8405 39.7891 22.1591 39.8599 22.3007 39.9307Z" fill="#DFDDE0"/>
<path d="M22.7968 39.4712C22.7968 39.4712 23.0092 39.4712 23.0446 39.542C23.0446 39.5774 23.08 39.7898 23.0446 39.8252C23.0092 39.8252 22.8321 39.7898 22.7613 39.7544C22.6905 39.7544 22.6906 39.5774 22.8322 39.4712" fill="#DFDDE0"/>
<path d="M22.0166 38.5141C22.0166 38.5141 22.1936 38.4433 22.229 38.4787C22.2998 38.5141 22.3351 38.6203 22.2997 38.7265C22.2997 38.7972 22.229 38.8326 22.1582 38.7972C22.0874 38.7972 22.0166 38.6911 22.052 38.5141" fill="#DFDDE0"/>
<path d="M70.4426 45.1701C70.4426 45.1701 70.4072 44.8516 70.4072 44.71C70.4072 44.71 70.4426 44.6746 70.478 44.6392C70.5488 44.8162 70.5488 45.0639 70.478 45.1347" fill="#CAC8CB"/>
<path d="M66.7954 42.7976C66.7954 42.7976 66.76 42.9038 66.6892 42.9038C66.6184 42.9038 66.583 42.8684 66.583 42.7976C66.583 42.7268 66.6184 42.6914 66.6892 42.6914C66.76 42.6914 66.7954 42.7268 66.7954 42.7976Z" fill="#CAC8CB"/>
<path d="M45.0628 4.31865V8.77888H49.3461V17.487H53.7709V13.4515L53.9478 13.1329H65.9835L66.0543 17.487H70.4437C70.4437 17.487 70.6207 17.664 70.656 17.8056V21.4516C70.656 21.4516 70.5145 21.4516 70.4791 21.4516V18.5135C70.4791 18.2303 70.4791 18.0179 70.5853 17.7348H66.0543L66.125 21.487C66.125 21.7702 66.3728 22.018 66.656 21.9472H70.6915V26.4782H66.125V29.3455L66.0543 32.0004H62.0896V36.5315H54.0187L54.054 32.6376H49.6292C49.6292 32.2482 49.6292 31.9296 49.5584 31.5756V27.0446H45.1336V36.3191H40.4256V40.9563H35.3282H30.5139V36.3899H25.7705H23.3987L23.1156 36.4253L23.0448 32.2836C23.2572 31.8588 21.9829 31.8588 20.9563 31.8942C20.9209 31.8942 20.8146 31.8942 20.7438 31.8942C20.6376 31.8234 20.4961 31.7526 20.3545 31.788C19.9297 31.8588 19.5403 31.8235 19.1155 31.8235H14.1597V36.1775C13.7349 36.2837 13.3102 36.2129 12.8854 36.1775H9.66413L8.63753 36.0713H4.81441V31.2571H0.177189V28.8146C0.177189 28.2836 0.035594 27.8234 0.177189 27.2924V26.3366L4.70822 26.2658V21.2392H9.27468V16.6374H17.3456H17.5226H19.5403L20.3899 16.4958V8.63728H25.0625V4.28324H29.7351V0H44.9567V3.85846C44.9567 4.07085 44.992 4.28325 45.1336 4.38945M25.2395 16.956H20.5315V21.7702H25.2395V16.956Z" fill="#F5F4F5"/>
<path d="M53.9495 13.1336L53.7725 13.4522V17.4876H49.4184L49.3477 8.77957H45.0998L45.0645 4.31934H49.4539V8.70877H53.9141L53.9495 13.1336Z" fill="#E0E0DF"/>
<path d="M70.6196 21.4166V21.806V21.9476H66.5841C66.3009 21.9476 66.0532 21.7352 66.0532 21.452L65.9824 17.6997H70.5135C70.4073 17.9829 70.4073 18.1953 70.4073 18.4785V21.4166C70.4073 21.4166 70.6196 21.452 70.6196 21.4166Z" fill="#F1F0F1"/>
<path d="M24.7442 21.5229H20.0361V26.3372H24.7442V21.5229Z" fill="#DDDADD"/>
<path d="M20.6379 31.8589C20.6379 31.8589 20.638 32.0713 20.6026 32.0713C20.5318 32.0713 20.3547 32.1067 20.3193 32.0713C20.2485 32.0005 20.2486 31.8235 20.284 31.7173C20.4256 31.7173 20.5672 31.7881 20.6734 31.8235" fill="#DFDDE0"/>
</svg>
