<svg width="325" height="223" viewBox="0 0 325 223" fill="none" xmlns="http://www.w3.org/2000/svg">
<mask id="path-1-inside-1_309_1053" fill="white">
<path d="M38.0059 3.57812C55.9639 3.57818 71 7.96863 74.874 13.8584H263.46C265.669 13.8584 267.46 15.6493 267.46 17.8584V59.8584C267.46 62.0673 265.669 63.8584 263.46 63.8584H79.7402C77.8415 63.8584 76.2046 65.1929 75.8223 67.0527L75.1689 70.2266C74.7867 72.0864 73.1497 73.4219 71.251 73.4219H46.7236C44.8306 73.4217 43.1965 72.0941 42.8086 70.2412L42.1387 67.0381C41.7507 65.1852 40.1167 63.8586 38.2236 63.8584H4.16797C1.95898 63.8584 0.168212 62.0673 0.167969 59.8584V17.8584C0.167969 17.6929 0.178716 17.5294 0.198242 17.3691C0.179923 17.1994 0.167969 17.0287 0.167969 16.8574C0.168591 9.52318 17.1092 3.57812 38.0059 3.57812Z"/>
</mask>
<path d="M38.0059 3.57812C55.9639 3.57818 71 7.96863 74.874 13.8584H263.46C265.669 13.8584 267.46 15.6493 267.46 17.8584V59.8584C267.46 62.0673 265.669 63.8584 263.46 63.8584H79.7402C77.8415 63.8584 76.2046 65.1929 75.8223 67.0527L75.1689 70.2266C74.7867 72.0864 73.1497 73.4219 71.251 73.4219H46.7236C44.8306 73.4217 43.1965 72.0941 42.8086 70.2412L42.1387 67.0381C41.7507 65.1852 40.1167 63.8586 38.2236 63.8584H4.16797C1.95898 63.8584 0.168212 62.0673 0.167969 59.8584V17.8584C0.167969 17.6929 0.178716 17.5294 0.198242 17.3691C0.179923 17.1994 0.167969 17.0287 0.167969 16.8574C0.168591 9.52318 17.1092 3.57812 38.0059 3.57812Z" fill="#EBEB9E"/>
<path d="M38.0059 3.57812L38.0059 1.57812H38.0059V3.57812ZM74.874 13.8584L73.2031 14.9575L73.7957 15.8584H74.874V13.8584ZM263.46 13.8584V11.8584V11.8584V13.8584ZM267.46 59.8584L269.46 59.8586V59.8584H267.46ZM75.8223 67.0527L77.7812 67.456L77.7813 67.4554L75.8223 67.0527ZM75.1689 70.2266L73.21 69.8233L73.2099 69.8239L75.1689 70.2266ZM46.7236 73.4219L46.7235 75.4219H46.7236V73.4219ZM42.8086 70.2412L40.851 70.6506L40.851 70.6511L42.8086 70.2412ZM42.1387 67.0381L44.0963 66.6287L44.0962 66.6282L42.1387 67.0381ZM38.2236 63.8584L38.2238 61.8584H38.2236V63.8584ZM4.16797 63.8584L4.16797 65.8584H4.16797V63.8584ZM0.167969 59.8584H-1.83203V59.8586L0.167969 59.8584ZM0.198242 17.3691L2.18356 17.6111L2.21135 17.383L2.1867 17.1545L0.198242 17.3691ZM0.167969 16.8574L-1.83203 16.8573V16.8574H0.167969ZM38.0059 3.57812L38.0059 5.57812C46.8356 5.57815 54.897 6.65904 61.1774 8.43422C64.3184 9.32201 66.9697 10.3711 69.0342 11.5163C71.1213 12.6741 72.481 13.8597 73.2031 14.9575L74.874 13.8584L76.545 12.7593C75.33 10.9122 73.3574 9.34032 70.9745 8.01845C68.569 6.68397 65.6125 5.53107 62.2654 4.58502C55.5698 2.69252 47.1341 1.57816 38.0059 1.57812L38.0059 3.57812ZM74.874 13.8584V15.8584H263.46V13.8584V11.8584H74.874V13.8584ZM263.46 13.8584V15.8584C264.565 15.8584 265.46 16.7538 265.46 17.8584H267.46H269.46C269.46 14.5447 266.774 11.8584 263.46 11.8584V13.8584ZM267.46 17.8584H265.46V59.8584H267.46H269.46V17.8584H267.46ZM267.46 59.8584L265.46 59.8582C265.46 60.9629 264.564 61.8584 263.46 61.8584V63.8584V65.8584C266.774 65.8584 269.46 63.1717 269.46 59.8586L267.46 59.8584ZM263.46 63.8584V61.8584H79.7402V63.8584V65.8584H263.46V63.8584ZM79.7402 63.8584V61.8584C76.8923 61.8584 74.4367 63.8602 73.8632 66.65L75.8223 67.0527L77.7813 67.4554C77.9724 66.5257 78.7907 65.8584 79.7402 65.8584V63.8584ZM75.8223 67.0527L73.8633 66.6495L73.21 69.8233L75.1689 70.2266L77.1279 70.6298L77.7812 67.456L75.8223 67.0527ZM75.1689 70.2266L73.2099 69.8239C73.0186 70.7544 72.1997 71.4219 71.251 71.4219V73.4219V75.4219C74.0996 75.4219 76.5547 73.4184 77.128 70.6292L75.1689 70.2266ZM71.251 73.4219V71.4219H46.7236V73.4219V75.4219H71.251V73.4219ZM46.7236 73.4219L46.7238 71.4219C45.7774 71.4218 44.9601 70.7579 44.7661 69.8313L42.8086 70.2412L40.851 70.6511C41.4329 73.4303 43.8837 75.4216 46.7235 75.4219L46.7236 73.4219ZM42.8086 70.2412L44.7662 69.8318L44.0963 66.6287L42.1387 67.0381L40.181 67.4475L40.851 70.6506L42.8086 70.2412ZM42.1387 67.0381L44.0962 66.6282C43.5141 63.8483 41.0628 61.8586 38.2238 61.8584L38.2236 63.8584L38.2235 65.8584C39.1705 65.8585 39.9873 66.5221 40.1811 67.448L42.1387 67.0381ZM38.2236 63.8584V61.8584H4.16797V63.8584V65.8584H38.2236V63.8584ZM4.16797 63.8584L4.16797 61.8584C3.06377 61.8584 2.16809 60.9629 2.16797 59.8582L0.167969 59.8584L-1.83203 59.8586C-1.83167 63.1717 0.854192 65.8584 4.16797 65.8584L4.16797 63.8584ZM0.167969 59.8584H2.16797V17.8584H0.167969H-1.83203V59.8584H0.167969ZM0.167969 17.8584H2.16797C2.16797 17.7793 2.17311 17.6968 2.18356 17.6111L0.198242 17.3691L-1.78707 17.1272C-1.81568 17.362 -1.83203 17.6064 -1.83203 17.8584H0.167969ZM0.198242 17.3691L2.1867 17.1545C2.17359 17.0331 2.16797 16.9372 2.16797 16.8574H0.167969H-1.83203C-1.83203 17.1203 -1.81374 17.3657 -1.79021 17.5837L0.198242 17.3691ZM0.167969 16.8574L2.16797 16.8576C2.16805 15.8555 2.74198 14.6189 4.41889 13.2276C6.08356 11.8464 8.61236 10.513 11.9132 9.35459C18.4965 7.0442 27.7215 5.57812 38.0059 5.57812V3.57812V1.57812C27.3935 1.57812 17.6999 3.08458 10.5886 5.58028C7.0421 6.82491 4.0296 8.35298 1.86472 10.1492C-0.287926 11.9353 -1.8318 14.1922 -1.83203 16.8573L0.167969 16.8574Z" fill="#ECBE4F" mask="url(#path-1-inside-1_309_1053)"/>
<path d="M22.878 31.319V32.754H20.827V39.565H22.878V41H16.858V39.565H18.909V32.754H16.858V31.319H22.878ZM20.981 27.896L21.702 29.317L18.496 30.465L18.048 29.513L20.981 27.896ZM36.629 38.144C36.629 37.752 36.552 37.4463 36.398 37.227C36.2487 37.0077 36.041 36.8537 35.775 36.765C35.509 36.6717 35.2057 36.625 34.865 36.625H33.675V39.565H34.781C35.0097 39.565 35.2337 39.5463 35.453 39.509C35.6724 39.4717 35.8707 39.404 36.048 39.306C36.23 39.2033 36.3724 39.0587 36.475 38.872C36.5777 38.6853 36.629 38.4427 36.629 38.144ZM36.258 33.951C36.258 33.5123 36.1204 33.1973 35.845 33.006C35.5744 32.8147 35.173 32.719 34.641 32.719H33.675V35.274H34.725C35.2477 35.274 35.6327 35.1713 35.88 34.966C36.132 34.756 36.258 34.4177 36.258 33.951ZM38.617 38.193C38.617 38.739 38.5097 39.194 38.295 39.558C38.085 39.922 37.798 40.209 37.434 40.419C37.07 40.629 36.657 40.7783 36.195 40.867C35.7377 40.9557 35.2594 41 34.76 41H31.757V31.319H34.585C35.061 31.319 35.5137 31.3587 35.943 31.438C36.3724 31.5173 36.755 31.6527 37.091 31.844C37.4317 32.0307 37.7 32.2827 37.896 32.6C38.0967 32.9173 38.197 33.3117 38.197 33.783C38.197 34.1797 38.113 34.5203 37.945 34.805C37.7817 35.0897 37.5624 35.3207 37.287 35.498C37.0164 35.6707 36.7247 35.7967 36.412 35.876C36.762 35.932 37.105 36.0417 37.441 36.205C37.7817 36.3637 38.0617 36.604 38.281 36.926C38.505 37.2433 38.617 37.6657 38.617 38.193ZM43.4906 37.332V41H41.5726V37.346L38.3736 31.319H40.4736L42.5666 35.729L44.6806 31.319H46.6896L43.4906 37.332ZM53.6281 34.182C53.6281 34.6487 53.5348 35.057 53.3481 35.407C53.1661 35.757 52.9164 36.051 52.5991 36.289C52.2864 36.527 51.9341 36.7113 51.5421 36.842L54.1951 41H51.9971L49.7081 37.143H48.8261V41H46.9151V31.319H49.7641C51.0381 31.319 51.9994 31.5547 52.6481 32.026C53.3014 32.4973 53.6281 33.216 53.6281 34.182ZM51.6401 34.182C51.6401 33.6593 51.4884 33.2837 51.1851 33.055C50.8818 32.8217 50.4244 32.705 49.8131 32.705H48.8261V35.785H49.8761C50.4408 35.785 50.8748 35.659 51.1781 35.407C51.4861 35.155 51.6401 34.7467 51.6401 34.182ZM60.6716 31.319V37.612C60.6716 38.116 60.597 38.5873 60.4476 39.026C60.2983 39.4647 60.0696 39.845 59.7616 40.167C59.4583 40.489 59.0756 40.741 58.6136 40.923C58.1516 41.105 57.608 41.196 56.9826 41.196C56.4133 41.196 55.9 41.1167 55.4426 40.958C54.99 40.7993 54.5606 40.5777 54.1546 40.293L54.9106 39.096C55.27 39.334 55.6036 39.4997 55.9116 39.593C56.2243 39.6817 56.5486 39.726 56.8846 39.726C57.4446 39.726 57.8973 39.5487 58.2426 39.194C58.588 38.8347 58.7606 38.305 58.7606 37.605V32.761H55.8206V31.319H60.6716ZM68.6602 31.319V37.794C68.6602 38.452 68.5248 39.04 68.2542 39.558C67.9882 40.0713 67.5985 40.475 67.0852 40.769C66.5718 41.063 65.9395 41.21 65.1882 41.21C64.4322 41.21 63.7975 41.0677 63.2842 40.783C62.7708 40.4937 62.3835 40.0923 62.1222 39.579C61.8608 39.0657 61.7302 38.4707 61.7302 37.794V31.319H63.6482V37.255C63.6482 38.081 63.7602 38.7017 63.9842 39.117C64.2082 39.5277 64.6095 39.733 65.1882 39.733C65.7715 39.733 66.1752 39.5277 66.3992 39.117C66.6232 38.7017 66.7352 38.081 66.7352 37.255V31.319H68.6602ZM73.6597 41L70.8107 32.957C70.834 33.1343 70.862 33.363 70.8947 33.643C70.9274 33.923 70.9577 34.2403 70.9857 34.595C71.0184 34.9497 71.044 35.3253 71.0627 35.722C71.086 36.1187 71.0977 36.52 71.0977 36.926V41H69.4317V31.319H71.8677L74.6887 39.348C74.6514 39.11 74.6094 38.795 74.5627 38.403C74.5207 38.011 74.4834 37.5607 74.4507 37.052C74.418 36.5433 74.4017 36.002 74.4017 35.428V31.319H76.0677V41H73.6597ZM91.4568 38.221C91.4568 38.809 91.3051 39.327 91.0018 39.775C90.7031 40.223 90.2714 40.5753 89.7068 40.832C89.1421 41.084 88.4584 41.21 87.6558 41.21C86.8158 41.21 86.0948 41.0863 85.4928 40.839C84.8908 40.587 84.3868 40.265 83.9808 39.873L84.9888 38.746C85.3388 39.0587 85.7308 39.3037 86.1648 39.481C86.5988 39.6583 87.0864 39.747 87.6278 39.747C87.9731 39.747 88.2834 39.6933 88.5588 39.586C88.8388 39.4787 89.0581 39.3223 89.2168 39.117C89.3801 38.907 89.4618 38.6503 89.4618 38.347C89.4618 38.081 89.4058 37.857 89.2938 37.675C89.1818 37.493 88.9881 37.3297 88.7128 37.185C88.4421 37.0403 88.0641 36.8957 87.5788 36.751C86.8648 36.5317 86.2768 36.2913 85.8148 36.03C85.3528 35.764 85.0098 35.4513 84.7858 35.092C84.5618 34.728 84.4498 34.2987 84.4498 33.804C84.4498 33.2487 84.6038 32.7703 84.9118 32.369C85.2198 31.963 85.6351 31.6527 86.1578 31.438C86.6851 31.2187 87.2731 31.109 87.9218 31.109C88.6404 31.109 89.2728 31.214 89.8188 31.424C90.3648 31.6293 90.8454 31.9233 91.2608 32.306L90.3018 33.391C89.9704 33.1063 89.6111 32.8963 89.2238 32.761C88.8411 32.6257 88.4514 32.558 88.0548 32.558C87.7421 32.558 87.4621 32.6 87.2148 32.684C86.9721 32.768 86.7808 32.8917 86.6408 33.055C86.5008 33.2183 86.4308 33.426 86.4308 33.678C86.4308 33.9067 86.4938 34.1027 86.6198 34.266C86.7504 34.4247 86.9721 34.574 87.2848 34.714C87.5974 34.8493 88.0268 35.0033 88.5728 35.176C89.1468 35.3487 89.6484 35.5563 90.0778 35.799C90.5118 36.0417 90.8501 36.3567 91.0928 36.744C91.3354 37.1267 91.4568 37.619 91.4568 38.221ZM94.5943 32.733V35.386H98.0243V36.779H94.5943V39.593H98.7593V41H92.6763V31.319H98.7103L98.5143 32.733H94.5943ZM103.269 41.21C102.405 41.21 101.67 41.0187 101.064 40.636C100.457 40.2533 99.9928 39.6863 99.6708 38.935C99.3535 38.1837 99.1948 37.2527 99.1948 36.142C99.1948 35.316 99.3091 34.5903 99.5378 33.965C99.7665 33.335 100.079 32.81 100.476 32.39C100.877 31.9653 101.339 31.6457 101.862 31.431C102.389 31.2163 102.947 31.109 103.535 31.109C104.216 31.109 104.788 31.2117 105.25 31.417C105.712 31.6223 106.132 31.9023 106.51 32.257L105.467 33.328C105.173 33.062 104.881 32.866 104.592 32.74C104.302 32.614 103.976 32.551 103.612 32.551C103.276 32.551 102.961 32.6163 102.667 32.747C102.377 32.8777 102.121 33.0853 101.897 33.37C101.677 33.6547 101.505 34.0257 101.379 34.483C101.253 34.9403 101.19 35.498 101.19 36.156C101.19 37.0287 101.267 37.731 101.421 38.263C101.579 38.7903 101.815 39.173 102.128 39.411C102.445 39.6443 102.842 39.761 103.318 39.761C103.584 39.761 103.833 39.7307 104.067 39.67C104.305 39.6047 104.531 39.5183 104.746 39.411V36.94H103.29L103.094 35.54H106.573V40.279C106.106 40.5543 105.604 40.7783 105.068 40.951C104.536 41.1237 103.936 41.21 103.269 41.21ZM113.532 31.319V32.754H111.481V39.565H113.532V41H107.512V39.565H109.563V32.754H107.512V31.319H113.532ZM121.619 34.182C121.619 34.6487 121.526 35.057 121.339 35.407C121.157 35.757 120.907 36.051 120.59 36.289C120.277 36.527 119.925 36.7113 119.533 36.842L122.186 41H119.988L117.699 37.143H116.817V41H114.906V31.319H117.755C119.029 31.319 119.99 31.5547 120.639 32.026C121.292 32.4973 121.619 33.216 121.619 34.182ZM119.631 34.182C119.631 33.6593 119.479 33.2837 119.176 33.055C118.873 32.8217 118.415 32.705 117.804 32.705H116.817V35.785H117.867C118.432 35.785 118.866 35.659 119.169 35.407C119.477 35.155 119.631 34.7467 119.631 34.182ZM131.954 41H130.036V31.319H131.954V41ZM132.024 35.834L135.076 31.319H137.134L134.026 35.694L137.4 41H135.139L132.024 35.834ZM139.921 32.733V35.386H143.351V36.779H139.921V39.593H144.086V41H138.003V31.319H144.037L143.841 32.733H139.921ZM149.205 41L146.356 32.957C146.379 33.1343 146.407 33.363 146.44 33.643C146.473 33.923 146.503 34.2403 146.531 34.595C146.564 34.9497 146.589 35.3253 146.608 35.722C146.631 36.1187 146.643 36.52 146.643 36.926V41H144.977V31.319H147.413L150.234 39.348C150.197 39.11 150.155 38.795 150.108 38.403C150.066 38.011 150.029 37.5607 149.996 37.052C149.963 36.5433 149.947 36.002 149.947 35.428V31.319H151.613V41H149.205ZM156.76 41L153.911 32.957C153.934 33.1343 153.962 33.363 153.995 33.643C154.027 33.923 154.058 34.2403 154.086 34.595C154.118 34.9497 154.144 35.3253 154.163 35.722C154.186 36.1187 154.198 36.52 154.198 36.926V41H152.532V31.319H154.968L157.789 39.348C157.751 39.11 157.709 38.795 157.663 38.403C157.621 38.011 157.583 37.5607 157.551 37.052C157.518 36.5433 157.502 36.002 157.502 35.428V31.319H159.168V41H156.76ZM164.972 38.781H161.787L161.185 41H159.204L162.235 31.319H164.587L167.611 41H165.574L164.972 38.781ZM162.13 37.346H164.615L163.376 32.754L162.13 37.346ZM174.501 34.182C174.501 34.6487 174.407 35.057 174.221 35.407C174.039 35.757 173.789 36.051 173.472 36.289C173.159 36.527 172.807 36.7113 172.415 36.842L175.068 41H172.87L170.581 37.143H169.699V41H167.788V31.319H170.637C171.911 31.319 172.872 31.5547 173.521 32.026C174.174 32.4973 174.501 33.216 174.501 34.182ZM172.513 34.182C172.513 33.6593 172.361 33.2837 172.058 33.055C171.754 32.8217 171.297 32.705 170.686 32.705H169.699V35.785H170.749C171.313 35.785 171.747 35.659 172.051 35.407C172.359 35.155 172.513 34.7467 172.513 34.182ZM181.523 31.319V32.754H179.472V39.565H181.523V41H175.503V39.565H177.554V32.754H175.503V31.319H181.523ZM186.978 41L184.129 32.957C184.152 33.1343 184.18 33.363 184.213 33.643C184.245 33.923 184.276 34.2403 184.304 34.595C184.336 34.9497 184.362 35.3253 184.381 35.722C184.404 36.1187 184.416 36.52 184.416 36.926V41H182.75V31.319H185.186L188.007 39.348C187.969 39.11 187.927 38.795 187.881 38.403C187.839 38.011 187.801 37.5607 187.769 37.052C187.736 36.5433 187.72 36.002 187.72 35.428V31.319H189.386V41H186.978ZM194.532 41L191.683 32.957C191.707 33.1343 191.735 33.363 191.767 33.643C191.8 33.923 191.83 34.2403 191.858 34.595C191.891 34.9497 191.917 35.3253 191.935 35.722C191.959 36.1187 191.97 36.52 191.97 36.926V41H190.304V31.319H192.74L195.561 39.348C195.524 39.11 195.482 38.795 195.435 38.403C195.393 38.011 195.356 37.5607 195.323 37.052C195.291 36.5433 195.274 36.002 195.274 35.428V31.319H196.94V41H194.532ZM208.108 32.733V35.582H211.643V36.996H208.108V41H206.19V31.319H212.322L212.119 32.733H208.108ZM217.854 38.781H214.669L214.067 41H212.086L215.117 31.319H217.469L220.493 41H218.456L217.854 38.781ZM215.012 37.346H217.497L216.258 32.754L215.012 37.346ZM227.382 34.182C227.382 34.6487 227.289 35.057 227.102 35.407C226.92 35.757 226.671 36.051 226.353 36.289C226.041 36.527 225.688 36.7113 225.296 36.842L227.949 41H225.751L223.462 37.143H222.58V41H220.669V31.319H223.518C224.792 31.319 225.754 31.5547 226.402 32.026C227.056 32.4973 227.382 33.216 227.382 34.182ZM225.394 34.182C225.394 33.6593 225.243 33.2837 224.939 33.055C224.636 32.8217 224.179 32.705 223.567 32.705H222.58V35.785H223.63C224.195 35.785 224.629 35.659 224.932 35.407C225.24 35.155 225.394 34.7467 225.394 34.182ZM232.018 35.442V36.674H227.384V35.442H232.018ZM233.299 36.114C233.299 35.3953 233.231 34.8143 233.096 34.371C232.961 33.9277 232.779 33.5893 232.55 33.356C232.326 33.118 232.069 32.957 231.78 32.873C231.491 32.789 231.19 32.747 230.877 32.747H230.156V39.579H230.877C231.208 39.579 231.519 39.5277 231.808 39.425C232.097 39.3223 232.354 39.145 232.578 38.893C232.802 38.6363 232.977 38.284 233.103 37.836C233.234 37.3833 233.299 36.8093 233.299 36.114ZM235.294 36.114C235.294 36.9073 235.21 37.5863 235.042 38.151C234.874 38.7157 234.641 39.1847 234.342 39.558C234.043 39.9267 233.698 40.216 233.306 40.426C232.919 40.636 232.503 40.7853 232.06 40.874C231.621 40.958 231.173 41 230.716 41H228.245V31.319H230.555C231.157 31.319 231.74 31.3843 232.305 31.515C232.87 31.641 233.376 31.8743 233.824 32.215C234.277 32.5557 234.634 33.041 234.895 33.671C235.161 34.2963 235.294 35.1107 235.294 36.114ZM242.414 31.319V37.794C242.414 38.452 242.279 39.04 242.008 39.558C241.742 40.0713 241.353 40.475 240.839 40.769C240.326 41.063 239.694 41.21 238.942 41.21C238.186 41.21 237.552 41.0677 237.038 40.783C236.525 40.4937 236.138 40.0923 235.876 39.579C235.615 39.0657 235.484 38.4707 235.484 37.794V31.319H237.402V37.255C237.402 38.081 237.514 38.7017 237.738 39.117C237.962 39.5277 238.364 39.733 238.942 39.733C239.526 39.733 239.929 39.5277 240.153 39.117C240.377 38.7017 240.489 38.081 240.489 37.255V31.319H242.414ZM247.484 31.319L247.26 37.57H245.734L245.496 31.319H247.484ZM246.497 38.907C246.824 38.907 247.097 39.0213 247.316 39.25C247.54 39.474 247.652 39.7423 247.652 40.055C247.652 40.3723 247.54 40.6453 247.316 40.874C247.097 41.098 246.824 41.21 246.497 41.21C246.18 41.21 245.909 41.098 245.685 40.874C245.461 40.6453 245.349 40.3723 245.349 40.055C245.349 39.7423 245.461 39.474 245.685 39.25C245.909 39.0213 246.18 38.907 246.497 38.907Z" fill="#2B3C33"/>
<mask id="path-4-inside-2_309_1053" fill="white">
<path d="M38.29 55C40.0895 55.0001 41.667 56.2018 42.1455 57.9365L43.1504 61.5771C43.6289 63.3118 45.2064 64.5136 47.0059 64.5137H70.6914C72.4977 64.5136 74.0794 63.303 74.5518 61.5596L75.5293 57.9541C76.0016 56.2107 77.5834 55 79.3896 55H319.364C321.573 55 323.364 56.7909 323.364 59V101C323.364 103.209 321.573 105 319.364 105H78.792C76.9762 105 75.3875 106.223 74.9238 107.979L73.999 111.483C73.5354 113.239 71.9466 114.462 70.1309 114.462H45.7773C43.9683 114.462 42.3839 113.248 41.9141 111.501L40.9629 107.961C40.493 106.214 38.9086 105 37.0996 105H18.249C16.0399 105 14.249 106.791 14.249 109V191.073C14.249 193.282 16.0399 195.073 18.249 195.073H36.668C38.2158 195.073 39.6246 195.966 40.2852 197.366L42.8262 202.751C43.4867 204.151 44.8956 205.044 46.4434 205.044H68.5098C70.0676 205.044 71.4836 204.139 72.1387 202.726L74.6113 197.392C75.2664 195.978 76.6824 195.073 78.2402 195.073H165.024C167.234 195.073 169.024 196.864 169.024 199.073V208.034C169.024 210.243 167.234 212.034 165.024 212.034H76.751C75.1415 212.034 73.6888 212.999 73.0645 214.482L71.8389 217.395C71.2145 218.878 69.7618 219.843 68.1523 219.843H44.957C43.3568 219.843 41.9105 218.889 41.2803 217.418L40.0127 214.459C39.3825 212.988 37.9361 212.034 36.3359 212.034H4C1.79086 212.034 0 210.243 0 208.034V199.073C7.25584e-09 198.874 0.0148437 198.679 0.0429688 198.487C0.100361 198.097 0.172807 197.707 0.172852 197.312V102.76C0.172852 102.366 0.100428 101.975 0.0429688 101.585C0.0148599 101.394 0 101.199 0 101V59C0 56.7909 1.79086 55 4 55H38.29Z"/>
</mask>
<path d="M38.29 55C40.0895 55.0001 41.667 56.2018 42.1455 57.9365L43.1504 61.5771C43.6289 63.3118 45.2064 64.5136 47.0059 64.5137H70.6914C72.4977 64.5136 74.0794 63.303 74.5518 61.5596L75.5293 57.9541C76.0016 56.2107 77.5834 55 79.3896 55H319.364C321.573 55 323.364 56.7909 323.364 59V101C323.364 103.209 321.573 105 319.364 105H78.792C76.9762 105 75.3875 106.223 74.9238 107.979L73.999 111.483C73.5354 113.239 71.9466 114.462 70.1309 114.462H45.7773C43.9683 114.462 42.3839 113.248 41.9141 111.501L40.9629 107.961C40.493 106.214 38.9086 105 37.0996 105H18.249C16.0399 105 14.249 106.791 14.249 109V191.073C14.249 193.282 16.0399 195.073 18.249 195.073H36.668C38.2158 195.073 39.6246 195.966 40.2852 197.366L42.8262 202.751C43.4867 204.151 44.8956 205.044 46.4434 205.044H68.5098C70.0676 205.044 71.4836 204.139 72.1387 202.726L74.6113 197.392C75.2664 195.978 76.6824 195.073 78.2402 195.073H165.024C167.234 195.073 169.024 196.864 169.024 199.073V208.034C169.024 210.243 167.234 212.034 165.024 212.034H76.751C75.1415 212.034 73.6888 212.999 73.0645 214.482L71.8389 217.395C71.2145 218.878 69.7618 219.843 68.1523 219.843H44.957C43.3568 219.843 41.9105 218.889 41.2803 217.418L40.0127 214.459C39.3825 212.988 37.9361 212.034 36.3359 212.034H4C1.79086 212.034 0 210.243 0 208.034V199.073C7.25584e-09 198.874 0.0148437 198.679 0.0429688 198.487C0.100361 198.097 0.172807 197.707 0.172852 197.312V102.76C0.172852 102.366 0.100428 101.975 0.0429688 101.585C0.0148599 101.394 0 101.199 0 101V59C0 56.7909 1.79086 55 4 55H38.29Z" fill="#F7B076"/>
<path d="M38.29 55L38.2901 53H38.29V55ZM42.1455 57.9365L40.2175 58.4683L40.2176 58.4687L42.1455 57.9365ZM43.1504 61.5771L45.0784 61.0454L45.0783 61.045L43.1504 61.5771ZM47.0059 64.5137L47.0058 66.5137H47.0059V64.5137ZM70.6914 64.5137V66.5137H70.6914L70.6914 64.5137ZM74.5518 61.5596L72.6214 61.0362L72.6214 61.0366L74.5518 61.5596ZM75.5293 57.9541L77.4596 58.4775L77.4597 58.4771L75.5293 57.9541ZM79.3896 55V53H79.3896L79.3896 55ZM319.364 105V107V105ZM74.9238 107.979L72.9901 107.468L72.99 107.468L74.9238 107.979ZM73.999 111.483L75.9327 111.994L75.9328 111.994L73.999 111.483ZM41.9141 111.501L39.9826 112.02L39.9827 112.02L41.9141 111.501ZM40.9629 107.961L42.8944 107.442L42.8942 107.441L40.9629 107.961ZM14.249 109H12.249V109H14.249ZM14.249 191.073H12.249V191.073H14.249ZM18.249 195.073V197.073V195.073ZM36.668 195.073L36.6681 193.073H36.668V195.073ZM40.2852 197.366L42.0939 196.513H42.0939L40.2852 197.366ZM42.8262 202.751L41.0174 203.604H41.0174L42.8262 202.751ZM46.4434 205.044L46.4432 207.044H46.4434V205.044ZM68.5098 205.044V207.044H68.5098L68.5098 205.044ZM72.1387 202.726L70.3242 201.884L70.3241 201.885L72.1387 202.726ZM74.6113 197.392L76.4258 198.233L76.4259 198.233L74.6113 197.392ZM78.2402 195.073V193.073H78.2402L78.2402 195.073ZM165.024 195.073V193.073V193.073V195.073ZM169.024 208.034H171.024V208.034H169.024ZM76.751 212.034V210.034H76.7509L76.751 212.034ZM73.0645 214.482L71.2211 213.707L71.2211 213.707L73.0645 214.482ZM71.8389 217.395L73.6822 218.17L73.6823 218.17L71.8389 217.395ZM68.1523 219.843V221.843H68.1524L68.1523 219.843ZM44.957 219.843L44.957 221.843H44.957V219.843ZM41.2803 217.418L39.4419 218.206L39.4419 218.206L41.2803 217.418ZM40.0127 214.459L41.8511 213.671L41.8511 213.671L40.0127 214.459ZM36.3359 212.034L36.336 210.034H36.3359V212.034ZM0 199.073H-2V199.073H0ZM0.0429688 198.487L-1.93574 198.196L-1.93575 198.196L0.0429688 198.487ZM0.172852 197.312L2.17285 197.313V197.312H0.172852ZM0.0429688 101.585L-1.9357 101.876L-1.93567 101.876L0.0429688 101.585ZM38.29 55L38.2899 57C39.1894 57 39.9782 57.6007 40.2175 58.4683L42.1455 57.9365L44.0735 57.4047C43.3559 54.803 40.9896 53.0001 38.2901 53L38.29 55ZM42.1455 57.9365L40.2176 58.4687L41.2225 62.1093L43.1504 61.5771L45.0783 61.045L44.0734 57.4044L42.1455 57.9365ZM43.1504 61.5771L41.2224 62.1089C41.94 64.7107 44.3063 66.5135 47.0058 66.5137L47.0059 64.5137L47.006 62.5137C46.1065 62.5136 45.3177 61.913 45.0784 61.0454L43.1504 61.5771ZM47.0059 64.5137V66.5137H70.6914V64.5137V62.5137H47.0059V64.5137ZM70.6914 64.5137L70.6914 66.5137C73.4012 66.5136 75.7737 64.6974 76.4822 62.0826L74.5518 61.5596L72.6214 61.0366C72.3851 61.9086 71.5942 62.5137 70.6914 62.5137L70.6914 64.5137ZM74.5518 61.5596L76.4821 62.0829L77.4596 58.4775L75.5293 57.9541L73.599 57.4307L72.6214 61.0362L74.5518 61.5596ZM75.5293 57.9541L77.4597 58.4771C77.696 57.6051 78.4869 57 79.3897 57L79.3896 55L79.3896 53C76.6799 53 74.3073 54.8163 73.5989 57.4311L75.5293 57.9541ZM79.3896 55V57H319.364V55V53H79.3896V55ZM319.364 55V57C320.469 57 321.364 57.8954 321.364 59H323.364H325.364C325.364 55.6863 322.678 53 319.364 53V55ZM323.364 59H321.364V101H323.364H325.364V59H323.364ZM323.364 101H321.364C321.364 102.105 320.469 103 319.364 103V105V107C322.678 107 325.364 104.314 325.364 101H323.364ZM319.364 105V103H78.792V105V107H319.364V105ZM78.792 105V103C76.0689 103 73.6858 104.834 72.9901 107.468L74.9238 107.979L76.8575 108.489C77.0892 107.612 77.8836 107 78.792 107V105ZM74.9238 107.979L72.99 107.468L72.0652 110.973L73.999 111.483L75.9328 111.994L76.8576 108.489L74.9238 107.979ZM73.999 111.483L72.0653 110.973C71.8336 111.85 71.0392 112.462 70.1309 112.462V114.462V116.462C72.854 116.462 75.2371 114.628 75.9327 111.994L73.999 111.483ZM70.1309 114.462V112.462H45.7773V114.462V116.462H70.1309V114.462ZM45.7773 114.462V112.462C44.8724 112.462 44.0802 111.855 43.8454 110.982L41.9141 111.501L39.9827 112.02C40.6876 114.641 43.0643 116.462 45.7773 116.462V114.462ZM41.9141 111.501L43.8456 110.982L42.8944 107.442L40.9629 107.961L39.0314 108.48L39.9826 112.02L41.9141 111.501ZM40.9629 107.961L42.8942 107.441C42.1893 104.821 39.8127 103 37.0996 103V105V107C38.0045 107 38.7967 107.607 39.0315 108.48L40.9629 107.961ZM37.0996 105V103H18.249V105V107H37.0996V105ZM18.249 105V103C14.9353 103 12.249 105.686 12.249 109H14.249H16.249C16.249 107.895 17.1445 107 18.249 107V105ZM14.249 109H12.249V191.073H14.249H16.249V109H14.249ZM14.249 191.073H12.249C12.249 194.387 14.9353 197.073 18.249 197.073V195.073V193.073C17.1445 193.073 16.249 192.178 16.249 191.073H14.249ZM18.249 195.073V197.073H36.668V195.073V193.073H18.249V195.073ZM36.668 195.073L36.6678 197.073C37.4417 197.073 38.1462 197.52 38.4764 198.22L40.2852 197.366L42.0939 196.513C41.1031 194.413 38.9898 193.073 36.6681 193.073L36.668 195.073ZM40.2852 197.366L38.4764 198.22L41.0174 203.604L42.8262 202.751L44.6349 201.897L42.0939 196.513L40.2852 197.366ZM42.8262 202.751L41.0174 203.604C42.0083 205.704 44.1215 207.044 46.4432 207.044L46.4434 205.044L46.4435 203.044C45.6696 203.044 44.9652 202.597 44.6349 201.897L42.8262 202.751ZM46.4434 205.044V207.044H68.5098V205.044V203.044H46.4434V205.044ZM68.5098 205.044L68.5098 207.044C70.847 207.044 72.9708 205.686 73.9533 203.567L72.1387 202.726L70.3241 201.885C69.9964 202.592 69.2882 203.044 68.5097 203.044L68.5098 205.044ZM72.1387 202.726L73.9532 203.567L76.4258 198.233L74.6113 197.392L72.7968 196.55L70.3242 201.884L72.1387 202.726ZM74.6113 197.392L76.4259 198.233C76.7536 197.526 77.4618 197.073 78.2403 197.073L78.2402 195.073L78.2402 193.073C75.903 193.073 73.7792 194.431 72.7967 196.551L74.6113 197.392ZM78.2402 195.073V197.073H165.024V195.073V193.073H78.2402V195.073ZM165.024 195.073V197.073C166.129 197.073 167.024 197.969 167.024 199.073H169.024H171.024C171.024 195.76 168.338 193.073 165.024 193.073V195.073ZM169.024 199.073H167.024V208.034H169.024H171.024V199.073H169.024ZM169.024 208.034H167.024C167.024 209.139 166.129 210.034 165.024 210.034V212.034V214.034C168.338 214.034 171.024 211.348 171.024 208.034H169.024ZM165.024 212.034V210.034H76.751V212.034V214.034H165.024V212.034ZM76.751 212.034L76.7509 210.034C74.3366 210.034 72.1577 211.481 71.2211 213.707L73.0645 214.482L74.9078 215.258C75.22 214.517 75.9464 214.034 76.7511 214.034L76.751 212.034ZM73.0645 214.482L71.2211 213.707L69.9955 216.619L71.8389 217.395L73.6823 218.17L74.9079 215.258L73.0645 214.482ZM71.8389 217.395L69.9955 216.619C69.6833 217.36 68.957 217.843 68.1523 217.843L68.1523 219.843L68.1524 221.843C70.5667 221.843 72.7457 220.396 73.6822 218.17L71.8389 217.395ZM68.1523 219.843V217.843H44.957V219.843V221.843H68.1523V219.843ZM44.957 219.843L44.9571 217.843C44.157 217.843 43.4338 217.366 43.1186 216.63L41.2803 217.418L39.4419 218.206C40.3872 220.412 42.5567 221.843 44.957 221.843L44.957 219.843ZM41.2803 217.418L43.1187 216.63L41.8511 213.671L40.0127 214.459L38.1743 215.247L39.4419 218.206L41.2803 217.418ZM40.0127 214.459L41.8511 213.671C40.9057 211.465 38.7363 210.034 36.336 210.034L36.3359 212.034L36.3359 214.034C37.1359 214.034 37.8592 214.511 38.1743 215.247L40.0127 214.459ZM36.3359 212.034V210.034H4V212.034V214.034H36.3359V212.034ZM4 212.034V210.034C2.89543 210.034 2 209.139 2 208.034H0H-2C-2 211.348 0.686292 214.034 4 214.034V212.034ZM0 208.034H2V199.073H0H-2V208.034H0ZM0 199.073H2C2 198.974 2.00741 198.875 2.02168 198.778L0.0429688 198.487L-1.93575 198.196C-1.97772 198.482 -2 198.775 -2 199.073H0ZM0.0429688 198.487L2.02168 198.778C2.06346 198.494 2.17279 197.896 2.17285 197.313L0.172852 197.312L-1.82715 197.312C-1.82717 197.517 -1.86274 197.7 -1.93574 198.196L0.0429688 198.487ZM0.172852 197.312H2.17285V102.76H0.172852H-1.82715V197.312H0.172852ZM0.172852 102.76H2.17285C2.17285 102.176 2.06356 101.578 2.02161 101.293L0.0429688 101.585L-1.93567 101.876C-1.8627 102.372 -1.82715 102.555 -1.82715 102.76H0.172852ZM0.0429688 101.585L2.02164 101.294C2.00738 101.197 2 101.099 2 101H0H-2C-2 101.299 -1.97766 101.591 -1.9357 101.876L0.0429688 101.585ZM0 101H2V59H0H-2V101H0ZM0 59H2C2 57.8954 2.89543 57 4 57V55V53C0.686292 53 -2 55.6863 -2 59H0ZM4 55V57H38.29V55V53H4V55Z" fill="#B34D03" mask="url(#path-4-inside-2_309_1053)"/>
<path d="M20.7951 80.733V83.386H24.2251V84.779H20.7951V87.593H24.9601V89H18.8771V79.319H24.9111L24.7151 80.733H20.7951ZM30.0786 89L27.2296 80.957C27.2529 81.1343 27.2809 81.363 27.3136 81.643C27.3463 81.923 27.3766 82.2403 27.4046 82.595C27.4373 82.9497 27.4629 83.3253 27.4816 83.722C27.5049 84.1187 27.5166 84.52 27.5166 84.926V89H25.8506V79.319H28.2866L31.1076 87.348C31.0703 87.11 31.0283 86.795 30.9816 86.403C30.9396 86.011 30.9023 85.5607 30.8696 85.052C30.8369 84.5433 30.8206 84.002 30.8206 83.428V79.319H32.4866V89H30.0786ZM38.4591 84.114C38.4591 83.3953 38.3915 82.8143 38.2561 82.371C38.1255 81.9277 37.9458 81.5893 37.7171 81.356C37.4885 81.118 37.2295 80.957 36.9401 80.873C36.6508 80.789 36.3498 80.747 36.0371 80.747H35.3231V87.579H36.0441C36.3708 87.579 36.6788 87.5277 36.9681 87.425C37.2621 87.3223 37.5211 87.145 37.7451 86.893C37.9691 86.6363 38.1441 86.284 38.2701 85.836C38.3961 85.3833 38.4591 84.8093 38.4591 84.114ZM40.4611 84.114C40.4611 84.9073 40.3748 85.5863 40.2021 86.151C40.0341 86.7157 39.8008 87.1847 39.5021 87.558C39.2035 87.9267 38.8581 88.216 38.4661 88.426C38.0788 88.636 37.6635 88.7853 37.2201 88.874C36.7815 88.958 36.3358 89 35.8831 89H33.4051V79.319H35.7151C36.3171 79.319 36.9005 79.3843 37.4651 79.515C38.0298 79.641 38.5361 79.8743 38.9841 80.215C39.4368 80.5557 39.7961 81.041 40.0621 81.671C40.3281 82.2963 40.4611 83.1107 40.4611 84.114ZM47.7427 79.319V85.794C47.7427 86.452 47.6073 87.04 47.3367 87.558C47.0707 88.0713 46.681 88.475 46.1677 88.769C45.6543 89.063 45.022 89.21 44.2707 89.21C43.5147 89.21 42.88 89.0677 42.3667 88.783C41.8533 88.4937 41.466 88.0923 41.2047 87.579C40.9433 87.0657 40.8127 86.4707 40.8127 85.794V79.319H42.7307V85.255C42.7307 86.081 42.8427 86.7017 43.0667 87.117C43.2907 87.5277 43.692 87.733 44.2707 87.733C44.854 87.733 45.2577 87.5277 45.4817 87.117C45.7057 86.7017 45.8177 86.081 45.8177 85.255V79.319H47.7427ZM55.3742 82.182C55.3742 82.6487 55.2809 83.057 55.0942 83.407C54.9122 83.757 54.6625 84.051 54.3452 84.289C54.0325 84.527 53.6802 84.7113 53.2882 84.842L55.9412 89H53.7432L51.4542 85.143H50.5722V89H48.6612V79.319H51.5102C52.7842 79.319 53.7455 79.5547 54.3942 80.026C55.0475 80.4973 55.3742 81.216 55.3742 82.182ZM53.3862 82.182C53.3862 81.6593 53.2345 81.2837 52.9312 81.055C52.6279 80.8217 52.1705 80.705 51.5592 80.705H50.5722V83.785H51.6222C52.1869 83.785 52.6209 83.659 52.9242 83.407C53.2322 83.155 53.3862 82.7467 53.3862 82.182ZM60.3247 80.824V89H58.4137V80.824H55.5857V79.319H63.2367L63.0407 80.824H60.3247ZM68.5092 86.781H65.3242L64.7222 89H62.7412L65.7722 79.319H68.1242L71.1482 89H69.1112L68.5092 86.781ZM65.6672 85.346H68.1522L66.9132 80.754L65.6672 85.346ZM73.2638 89H71.3458V79.319H73.2638V89ZM73.3338 83.834L76.3858 79.319H78.4438L75.3358 83.694L78.7098 89H76.4488L73.3338 83.834ZM83.6183 86.781H80.4333L79.8313 89H77.8503L80.8813 79.319H83.2333L86.2573 89H84.2203L83.6183 86.781ZM80.7763 85.346H83.2613L82.0223 80.754L80.7763 85.346ZM95.9484 79.319V80.908H96.9354C98.1954 80.908 99.1754 81.1647 99.8754 81.678C100.575 82.1913 100.925 82.9777 100.925 84.037C100.925 84.793 100.769 85.4137 100.456 85.899C100.148 86.3797 99.7097 86.7367 99.1404 86.97C98.5757 87.1987 97.906 87.313 97.1314 87.313H95.9484V89H94.0304V79.319H95.9484ZM97.0264 82.308H95.9484V85.892H97.0894C97.4627 85.892 97.787 85.836 98.0624 85.724C98.3377 85.6073 98.55 85.416 98.6994 85.15C98.8487 84.884 98.9234 84.52 98.9234 84.058C98.9234 83.442 98.7554 82.9963 98.4194 82.721C98.0834 82.4457 97.619 82.308 97.0264 82.308ZM106.282 86.781H103.097L102.495 89H100.514L103.545 79.319H105.897L108.921 89H106.884L106.282 86.781ZM103.44 85.346H105.925L104.686 80.754L103.44 85.346ZM115.81 82.182C115.81 82.6487 115.717 83.057 115.53 83.407C115.348 83.757 115.099 84.051 114.781 84.289C114.469 84.527 114.116 84.7113 113.724 84.842L116.377 89H114.179L111.89 85.143H111.008V89H109.097V79.319H111.946C113.22 79.319 114.182 79.5547 114.83 80.026C115.484 80.4973 115.81 81.216 115.81 82.182ZM113.822 82.182C113.822 81.6593 113.671 81.2837 113.367 81.055C113.064 80.8217 112.607 80.705 111.995 80.705H111.008V83.785H112.058C112.623 83.785 113.057 83.659 113.36 83.407C113.668 83.155 113.822 82.7467 113.822 82.182ZM128.315 80.824V89H126.404V80.824H123.576V79.319H131.227L131.031 80.824H128.315ZM137.942 79.319V80.754H135.891V87.565H137.942V89H131.922V87.565H133.973V80.754H131.922V79.319H137.942ZM139.799 89V79.319H141.717V87.446H145.987L145.784 89H139.799ZM156.385 79.319V80.908H157.372C158.632 80.908 159.612 81.1647 160.312 81.678C161.012 82.1913 161.362 82.9777 161.362 84.037C161.362 84.793 161.205 85.4137 160.893 85.899C160.585 86.3797 160.146 86.7367 159.577 86.97C159.012 87.1987 158.342 87.313 157.568 87.313H156.385V89H154.467V79.319H156.385ZM157.463 82.308H156.385V85.892H157.526C157.899 85.892 158.223 85.836 158.499 85.724C158.774 85.6073 158.986 85.416 159.136 85.15C159.285 84.884 159.36 84.52 159.36 84.058C159.36 83.442 159.192 82.9963 158.856 82.721C158.52 82.4457 158.055 82.308 157.463 82.308ZM168.615 79.319V85.794C168.615 86.452 168.48 87.04 168.209 87.558C167.943 88.0713 167.553 88.475 167.04 88.769C166.527 89.063 165.894 89.21 165.143 89.21C164.387 89.21 163.752 89.0677 163.239 88.783C162.726 88.4937 162.338 88.0923 162.077 87.579C161.816 87.0657 161.685 86.4707 161.685 85.794V79.319H163.603V85.255C163.603 86.081 163.715 86.7017 163.939 87.117C164.163 87.5277 164.564 87.733 165.143 87.733C165.726 87.733 166.13 87.5277 166.354 87.117C166.578 86.7017 166.69 86.081 166.69 85.255V79.319H168.615ZM166.263 75.896L166.984 77.317L163.778 78.465L163.33 77.513L166.263 75.896ZM183.857 86.221C183.857 86.809 183.706 87.327 183.402 87.775C183.104 88.223 182.672 88.5753 182.107 88.832C181.543 89.084 180.859 89.21 180.056 89.21C179.216 89.21 178.495 89.0863 177.893 88.839C177.291 88.587 176.787 88.265 176.381 87.873L177.389 86.746C177.739 87.0587 178.131 87.3037 178.565 87.481C178.999 87.6583 179.487 87.747 180.028 87.747C180.374 87.747 180.684 87.6933 180.959 87.586C181.239 87.4787 181.459 87.3223 181.617 87.117C181.781 86.907 181.862 86.6503 181.862 86.347C181.862 86.081 181.806 85.857 181.694 85.675C181.582 85.493 181.389 85.3297 181.113 85.185C180.843 85.0403 180.465 84.8957 179.979 84.751C179.265 84.5317 178.677 84.2913 178.215 84.03C177.753 83.764 177.41 83.4513 177.186 83.092C176.962 82.728 176.85 82.2987 176.85 81.804C176.85 81.2487 177.004 80.7703 177.312 80.369C177.62 79.963 178.036 79.6527 178.558 79.438C179.086 79.2187 179.674 79.109 180.322 79.109C181.041 79.109 181.673 79.214 182.219 79.424C182.765 79.6293 183.246 79.9233 183.661 80.306L182.702 81.391C182.371 81.1063 182.012 80.8963 181.624 80.761C181.242 80.6257 180.852 80.558 180.455 80.558C180.143 80.558 179.863 80.6 179.615 80.684C179.373 80.768 179.181 80.8917 179.041 81.055C178.901 81.2183 178.831 81.426 178.831 81.678C178.831 81.9067 178.894 82.1027 179.02 82.266C179.151 82.4247 179.373 82.574 179.685 82.714C179.998 82.8493 180.427 83.0033 180.973 83.176C181.547 83.3487 182.049 83.5563 182.478 83.799C182.912 84.0417 183.251 84.3567 183.493 84.744C183.736 85.1267 183.857 85.619 183.857 86.221ZM186.995 80.733V83.386H190.425V84.779H186.995V87.593H191.16V89H185.077V79.319H191.111L190.915 80.733H186.995ZM189.214 75.896L189.935 77.317L186.729 78.465L186.281 77.513L189.214 75.896ZM198.91 82.182C198.91 82.6487 198.817 83.057 198.63 83.407C198.448 83.757 198.199 84.051 197.881 84.289C197.569 84.527 197.216 84.7113 196.824 84.842L199.477 89H197.279L194.99 85.143H194.108V89H192.197V79.319H195.046C196.32 79.319 197.282 79.5547 197.93 80.026C198.584 80.4973 198.91 81.216 198.91 82.182ZM196.922 82.182C196.922 81.6593 196.771 81.2837 196.467 81.055C196.164 80.8217 195.707 80.705 195.095 80.705H194.108V83.785H195.158C195.723 83.785 196.157 83.659 196.46 83.407C196.768 83.155 196.922 82.7467 196.922 82.182ZM203.546 83.442V84.674H198.912V83.442H203.546ZM204.827 84.114C204.827 83.3953 204.759 82.8143 204.624 82.371C204.488 81.9277 204.306 81.5893 204.078 81.356C203.854 81.118 203.597 80.957 203.308 80.873C203.018 80.789 202.717 80.747 202.405 80.747H201.684V87.579H202.405C202.736 87.579 203.046 87.5277 203.336 87.425C203.625 87.3223 203.882 87.145 204.106 86.893C204.33 86.6363 204.505 86.284 204.631 85.836C204.761 85.3833 204.827 84.8093 204.827 84.114ZM206.822 84.114C206.822 84.9073 206.738 85.5863 206.57 86.151C206.402 86.7157 206.168 87.1847 205.87 87.558C205.571 87.9267 205.226 88.216 204.834 88.426C204.446 88.636 204.031 88.7853 203.588 88.874C203.149 88.958 202.701 89 202.244 89H199.773V79.319H202.083C202.685 79.319 203.268 79.3843 203.833 79.515C204.397 79.641 204.904 79.8743 205.352 80.215C205.804 80.5557 206.161 81.041 206.423 81.671C206.689 82.2963 206.822 83.1107 206.822 84.114ZM209.119 86.732C209.119 86.368 209.25 86.0553 209.511 85.794C209.773 85.528 210.092 85.395 210.47 85.395C210.853 85.395 211.173 85.528 211.429 85.794C211.691 86.0553 211.821 86.368 211.821 86.732C211.821 87.1053 211.691 87.425 211.429 87.691C211.173 87.957 210.853 88.09 210.47 88.09C210.092 88.09 209.773 87.957 209.511 87.691C209.25 87.425 209.119 87.1053 209.119 86.732ZM209.119 81.818C209.119 81.5707 209.18 81.3467 209.301 81.146C209.423 80.9407 209.586 80.7773 209.791 80.656C209.997 80.5347 210.223 80.474 210.47 80.474C210.853 80.474 211.173 80.607 211.429 80.873C211.691 81.139 211.821 81.454 211.821 81.818C211.821 82.1867 211.691 82.504 211.429 82.77C211.173 83.036 210.853 83.169 210.47 83.169C210.092 83.169 209.773 83.036 209.511 82.77C209.25 82.504 209.119 82.1867 209.119 81.818Z" fill="#2B3C33"/>
<rect x="215.914" y="71.5" width="95" height="25" rx="7.5" fill="#FBF2CF"/>
<rect x="215.914" y="71.5" width="95" height="25" rx="7.5" stroke="#C76104"/>
<path d="M229.254 81.587L226.706 89H224.536L221.974 81.587H223.962L225.649 87.523L227.371 81.587H229.254ZM234.359 81.587V87.691H236.312V89H230.341V87.691H232.511V82.896H230.411V81.587H234.359ZM233.162 77.849C233.502 77.849 233.778 77.954 233.988 78.164C234.202 78.374 234.31 78.6353 234.31 78.948C234.31 79.2607 234.202 79.5243 233.988 79.739C233.778 79.949 233.502 80.054 233.162 80.054C232.821 80.054 232.543 79.949 232.329 79.739C232.114 79.5243 232.007 79.2607 232.007 78.948C232.007 78.6353 232.114 78.374 232.329 78.164C232.543 77.954 232.821 77.849 233.162 77.849ZM238.504 81.048L239.428 80.082C239.223 80.0027 239.003 79.9327 238.77 79.872C238.537 79.8067 238.287 79.746 238.021 79.69L238.399 78.43C238.791 78.5 239.16 78.5817 239.505 78.675C239.85 78.7683 240.168 78.878 240.457 79.004L241.465 77.954L242.445 78.808L241.654 79.613C242.536 80.1917 243.18 80.9453 243.586 81.874C243.992 82.8027 244.195 83.9087 244.195 85.192C244.195 85.9667 244.055 86.6573 243.775 87.264C243.495 87.866 243.091 88.342 242.564 88.692C242.037 89.0373 241.397 89.21 240.646 89.21C240.007 89.21 239.426 89.0747 238.903 88.804C238.385 88.5287 237.972 88.132 237.664 87.614C237.361 87.0913 237.209 86.459 237.209 85.717C237.209 85.0263 237.347 84.422 237.622 83.904C237.902 83.386 238.268 82.9823 238.721 82.693C239.178 82.4037 239.675 82.259 240.212 82.259C240.646 82.259 241.022 82.3267 241.339 82.462C241.656 82.5973 241.943 82.7957 242.2 83.057C242.055 82.5343 241.843 82.0793 241.563 81.692C241.288 81.3047 240.963 80.9757 240.59 80.705L239.701 81.615L238.504 81.048ZM242.326 85.353C242.326 85.1803 242.324 85.0147 242.319 84.856C242.319 84.6973 242.312 84.541 242.298 84.387C242.102 84.1303 241.859 83.9343 241.57 83.799C241.285 83.6637 240.975 83.596 240.639 83.596C240.35 83.596 240.088 83.6707 239.855 83.82C239.622 83.9693 239.435 84.198 239.295 84.506C239.16 84.8093 239.092 85.2013 239.092 85.682C239.092 86.4147 239.237 86.956 239.526 87.306C239.815 87.656 240.196 87.831 240.667 87.831C241.208 87.831 241.619 87.6257 241.899 87.215C242.184 86.7997 242.326 86.179 242.326 85.353ZM251.12 87.047C251.12 87.3317 251.162 87.5393 251.246 87.67C251.33 87.796 251.465 87.8917 251.652 87.957L251.253 89.196C250.856 89.154 250.518 89.056 250.238 88.902C249.962 88.7433 249.75 88.5077 249.601 88.195C249.321 88.5357 248.966 88.79 248.537 88.958C248.112 89.126 247.666 89.21 247.2 89.21C246.444 89.21 245.844 88.9953 245.401 88.566C244.957 88.1367 244.736 87.579 244.736 86.893C244.736 86.1043 245.044 85.4977 245.66 85.073C246.28 84.6437 247.158 84.429 248.292 84.429H249.328V84.03C249.328 83.5913 249.192 83.274 248.922 83.078C248.651 82.8773 248.261 82.777 247.753 82.777C247.515 82.777 247.216 82.8097 246.857 82.875C246.502 82.9357 246.136 83.0313 245.758 83.162L245.317 81.895C245.788 81.7177 246.262 81.587 246.738 81.503C247.218 81.419 247.655 81.377 248.047 81.377C249.087 81.377 249.86 81.5987 250.364 82.042C250.868 82.4807 251.12 83.1037 251.12 83.911V87.047ZM247.802 87.873C248.082 87.873 248.364 87.7937 248.649 87.635C248.938 87.4763 249.164 87.2547 249.328 86.97V85.528H248.6C247.914 85.528 247.417 85.6377 247.109 85.857C246.805 86.0763 246.654 86.3867 246.654 86.788C246.654 87.1333 246.752 87.4017 246.948 87.593C247.144 87.7797 247.428 87.873 247.802 87.873ZM252.829 89V87.719H253.872V82.861H252.829V81.587H255.279L255.622 83.288C255.893 82.658 256.234 82.1843 256.644 81.867C257.055 81.545 257.571 81.384 258.191 81.384C258.429 81.384 258.639 81.4027 258.821 81.44C259.008 81.4773 259.185 81.5263 259.353 81.587L258.8 83.141C258.656 83.1037 258.518 83.0757 258.387 83.057C258.257 83.0337 258.11 83.022 257.946 83.022C257.433 83.022 256.985 83.2227 256.602 83.624C256.224 84.0207 255.93 84.5597 255.72 85.241V87.719H257.197V89H252.829ZM257.792 84.478V82.511L258.044 81.587H259.353L259.024 84.478H257.792ZM262.162 82.42C262.409 82.0933 262.701 81.839 263.037 81.657C263.377 81.4703 263.744 81.377 264.136 81.377C264.784 81.377 265.309 81.538 265.711 81.86C266.117 82.1773 266.413 82.6277 266.6 83.211C266.791 83.7943 266.887 84.4827 266.887 85.276C266.887 86.0367 266.775 86.7133 266.551 87.306C266.327 87.8987 265.993 88.3653 265.55 88.706C265.111 89.042 264.572 89.21 263.933 89.21C263.13 89.21 262.498 88.9043 262.036 88.293L261.952 89H260.314V78.626L262.162 78.43V82.42ZM263.457 87.831C263.928 87.831 264.297 87.6303 264.563 87.229C264.829 86.8277 264.962 86.1837 264.962 85.297C264.962 84.6717 264.906 84.1747 264.794 83.806C264.686 83.4327 264.53 83.1667 264.325 83.008C264.124 82.8447 263.881 82.763 263.597 82.763C263.289 82.763 263.016 82.8563 262.778 83.043C262.544 83.2297 262.339 83.4607 262.162 83.736V87.054C262.32 87.3013 262.507 87.4927 262.722 87.628C262.936 87.7633 263.181 87.831 263.457 87.831ZM269.443 85.857C269.481 86.319 269.586 86.6947 269.758 86.984C269.936 87.2733 270.162 87.4857 270.437 87.621C270.713 87.7563 271.018 87.824 271.354 87.824C271.709 87.824 272.043 87.768 272.355 87.656C272.668 87.544 272.976 87.3877 273.279 87.187L274.049 88.244C273.704 88.5333 273.291 88.7667 272.81 88.944C272.334 89.1213 271.809 89.21 271.235 89.21C270.433 89.21 269.756 89.0443 269.205 88.713C268.659 88.3817 268.246 87.922 267.966 87.334C267.686 86.746 267.546 86.0693 267.546 85.304C267.546 84.5667 267.684 83.9017 267.959 83.309C268.235 82.7163 268.631 82.2473 269.149 81.902C269.667 81.552 270.293 81.377 271.025 81.377C271.707 81.377 272.295 81.5263 272.789 81.825C273.284 82.1237 273.667 82.553 273.937 83.113C274.208 83.6683 274.343 84.338 274.343 85.122C274.343 85.248 274.339 85.3763 274.329 85.507C274.325 85.6377 274.318 85.7543 274.308 85.857H269.443ZM271.032 82.679C270.584 82.679 270.216 82.84 269.926 83.162C269.642 83.4793 269.474 83.9833 269.422 84.674H272.544C272.535 84.0487 272.404 83.561 272.152 83.211C271.905 82.8563 271.532 82.679 271.032 82.679ZM282.171 81.587L279.42 84.891L282.437 89H280.26L277.404 84.94L280.134 81.587H282.171ZM277.299 78.43V89H275.451V78.626L277.299 78.43ZM289.725 81.587L286.974 84.891L289.991 89H287.814L284.958 84.94L287.688 81.587H289.725ZM284.853 78.43V89H283.005V78.626L284.853 78.43ZM292.38 81.587V86.725C292.38 87.1263 292.459 87.4087 292.618 87.572C292.777 87.7353 293.008 87.817 293.311 87.817C293.6 87.817 293.883 87.7307 294.158 87.558C294.433 87.3807 294.657 87.1567 294.83 86.886V81.587H296.678V89H295.068L294.97 88.09C294.704 88.454 294.363 88.7317 293.948 88.923C293.533 89.1143 293.103 89.21 292.66 89.21C291.946 89.21 291.412 89.0093 291.057 88.608C290.707 88.202 290.532 87.649 290.532 86.949V81.587H292.38ZM298.156 89V87.719H299.199V82.861H298.156V81.587H300.606L300.949 83.288C301.22 82.658 301.561 82.1843 301.971 81.867C302.382 81.545 302.898 81.384 303.518 81.384C303.756 81.384 303.966 81.4027 304.148 81.44C304.335 81.4773 304.512 81.5263 304.68 81.587L304.127 83.141C303.983 83.1037 303.845 83.0757 303.714 83.057C303.584 83.0337 303.437 83.022 303.273 83.022C302.76 83.022 302.312 83.2227 301.929 83.624C301.551 84.0207 301.257 84.5597 301.047 85.241V87.719H302.524V89H298.156ZM303.119 84.478V82.511L303.371 81.587H304.68L304.351 84.478H303.119Z" fill="#2B3C33"/>
<mask id="path-9-inside-3_309_1053" fill="white">
<path d="M172.41 146C172.41 148.209 170.619 150 168.41 150H80.2393C78.6116 150 77.1461 150.986 76.5335 152.494L74.406 157.731C73.7933 159.239 72.3279 160.226 70.7001 160.226H47.7062C46.0877 160.226 44.6287 159.25 44.01 157.755L41.824 152.471C41.2053 150.975 39.7463 150 38.1278 150H17.9609C15.7518 150 13.9609 148.209 13.9609 146V109C13.9609 106.791 15.7518 105 17.9609 105H37.5844C39.2859 105 40.8011 106.076 41.3614 107.683L42.6835 111.474C43.2438 113.081 44.759 114.157 46.4605 114.157H69.7345C71.4442 114.157 72.9649 113.071 73.5188 111.453L74.8025 107.704C75.3564 106.087 76.8771 105 78.5868 105H168.41C170.619 105 172.41 106.791 172.41 109V146Z"/>
</mask>
<path d="M172.41 146C172.41 148.209 170.619 150 168.41 150H80.2393C78.6116 150 77.1461 150.986 76.5335 152.494L74.406 157.731C73.7933 159.239 72.3279 160.226 70.7001 160.226H47.7062C46.0877 160.226 44.6287 159.25 44.01 157.755L41.824 152.471C41.2053 150.975 39.7463 150 38.1278 150H17.9609C15.7518 150 13.9609 148.209 13.9609 146V109C13.9609 106.791 15.7518 105 17.9609 105H37.5844C39.2859 105 40.8011 106.076 41.3614 107.683L42.6835 111.474C43.2438 113.081 44.759 114.157 46.4605 114.157H69.7345C71.4442 114.157 72.9649 113.071 73.5188 111.453L74.8025 107.704C75.3564 106.087 76.8771 105 78.5868 105H168.41C170.619 105 172.41 106.791 172.41 109V146Z" fill="#AAD3FA"/>
<path d="M74.8025 107.704L72.9104 107.056L74.8025 107.704ZM73.5188 111.453L75.4109 112.101L73.5188 111.453ZM42.6835 111.474L40.7951 112.133L42.6835 111.474ZM41.824 152.471L39.9759 153.235L41.824 152.471ZM74.406 157.731L72.5531 156.978L74.406 157.731ZM76.5335 152.494L78.3864 153.247L76.5335 152.494ZM168.41 150V148H80.2393V150V152H168.41V150ZM76.5335 152.494L74.6805 151.742L72.5531 156.978L74.406 157.731L76.2589 158.484L78.3864 153.247L76.5335 152.494ZM70.7001 160.226V158.226H47.7062V160.226V162.226H70.7001V160.226ZM44.01 157.755L45.8581 156.99L43.6721 151.706L41.824 152.471L39.9759 153.235L42.1619 158.519L44.01 157.755ZM38.1278 150V148H17.9609V150V152H38.1278V150ZM13.9609 146H15.9609V109H13.9609H11.9609V146H13.9609ZM17.9609 105V107H37.5844V105V103H17.9609V105ZM41.3614 107.683L39.4729 108.341L40.7951 112.133L42.6835 111.474L44.572 110.816L43.2498 107.024L41.3614 107.683ZM46.4605 114.157V116.157H69.7345V114.157V112.157H46.4605V114.157ZM73.5188 111.453L75.4109 112.101L76.6947 108.352L74.8025 107.704L72.9104 107.056L71.6266 110.805L73.5188 111.453ZM78.5868 105V107H168.41V105V103H78.5868V105ZM172.41 109H170.41V146H172.41H174.41V109H172.41ZM168.41 105V107C169.515 107 170.41 107.895 170.41 109H172.41H174.41C174.41 105.686 171.724 103 168.41 103V105ZM74.8025 107.704L76.6947 108.352C76.9716 107.543 77.732 107 78.5868 107V105V103C76.0222 103 73.7412 104.63 72.9104 107.056L74.8025 107.704ZM69.7345 114.157V116.157C72.299 116.157 74.5801 114.527 75.4109 112.101L73.5188 111.453L71.6266 110.805C71.3497 111.614 70.5893 112.157 69.7345 112.157V114.157ZM42.6835 111.474L40.7951 112.133C41.6355 114.543 43.9083 116.157 46.4605 116.157V114.157V112.157C45.6098 112.157 44.8521 111.619 44.572 110.816L42.6835 111.474ZM37.5844 105V107C38.4352 107 39.1928 107.538 39.4729 108.341L41.3614 107.683L43.2498 107.024C42.4095 104.614 40.1366 103 37.5844 103V105ZM13.9609 109H15.9609C15.9609 107.895 16.8564 107 17.9609 107V105V103C14.6472 103 11.9609 105.686 11.9609 109H13.9609ZM17.9609 150V148C16.8564 148 15.9609 147.105 15.9609 146H13.9609H11.9609C11.9609 149.314 14.6472 152 17.9609 152V150ZM41.824 152.471L43.6721 151.706C42.744 149.463 40.5555 148 38.1278 148V150V152C38.937 152 39.6665 152.488 39.9759 153.235L41.824 152.471ZM47.7062 160.226V158.226C46.8969 158.226 46.1674 157.738 45.8581 156.99L44.01 157.755L42.1619 158.519C43.09 160.763 45.2785 162.226 47.7062 162.226V160.226ZM74.406 157.731L72.5531 156.978C72.2467 157.732 71.514 158.226 70.7001 158.226V160.226V162.226C73.1418 162.226 75.3399 160.746 76.2589 158.484L74.406 157.731ZM80.2393 150V148C77.7977 148 75.5996 149.48 74.6805 151.742L76.5335 152.494L78.3864 153.247C78.6927 152.493 79.4254 152 80.2393 152V150ZM168.41 150V152C171.724 152 174.41 149.314 174.41 146H172.41H170.41C170.41 147.105 169.515 148 168.41 148V150Z" fill="#124B97" mask="url(#path-9-inside-3_309_1053)"/>
<path d="M38.669 137.823C37.8056 137.823 37.0706 137.632 36.464 137.249C35.8573 136.867 35.393 136.3 35.071 135.548C34.7536 134.797 34.595 133.866 34.595 132.755C34.595 131.929 34.7093 131.204 34.938 130.578C35.1666 129.948 35.4793 129.423 35.876 129.003C36.2773 128.579 36.7393 128.259 37.262 128.044C37.7893 127.83 38.347 127.722 38.935 127.722C39.6163 127.722 40.188 127.825 40.65 128.03C41.112 128.236 41.532 128.516 41.91 128.87L40.867 129.941C40.573 129.675 40.2813 129.479 39.992 129.353C39.7026 129.227 39.376 129.164 39.012 129.164C38.676 129.164 38.361 129.23 38.067 129.36C37.7776 129.491 37.521 129.699 37.297 129.983C37.0776 130.268 36.905 130.639 36.779 131.096C36.653 131.554 36.59 132.111 36.59 132.769C36.59 133.642 36.667 134.344 36.821 134.876C36.9796 135.404 37.2153 135.786 37.528 136.024C37.8453 136.258 38.242 136.374 38.718 136.374C38.984 136.374 39.2336 136.344 39.467 136.283C39.705 136.218 39.9313 136.132 40.146 136.024V133.553H38.69L38.494 132.153H41.973V136.892C41.5063 137.168 41.0046 137.392 40.468 137.564C39.936 137.737 39.3363 137.823 38.669 137.823ZM47.4905 135.394H44.3055L43.7035 137.613H41.7225L44.7535 127.932H47.1055L50.1295 137.613H48.0925L47.4905 135.394ZM44.6485 133.959H47.1335L45.8945 129.367L44.6485 133.959ZM54.387 137.613L51.538 129.57C51.5614 129.748 51.5894 129.976 51.622 130.256C51.6547 130.536 51.685 130.854 51.713 131.208C51.7457 131.563 51.7714 131.939 51.79 132.335C51.8134 132.732 51.825 133.133 51.825 133.539V137.613H50.159V127.932H52.595L55.416 135.961C55.3787 135.723 55.3367 135.408 55.29 135.016C55.248 134.624 55.2107 134.174 55.178 133.665C55.1454 133.157 55.129 132.615 55.129 132.041V127.932H56.795V137.613H54.387ZM61.3326 137.823C60.4692 137.823 59.7342 137.632 59.1276 137.249C58.5209 136.867 58.0566 136.3 57.7346 135.548C57.4172 134.797 57.2586 133.866 57.2586 132.755C57.2586 131.929 57.3729 131.204 57.6016 130.578C57.8302 129.948 58.1429 129.423 58.5396 129.003C58.9409 128.579 59.4029 128.259 59.9256 128.044C60.4529 127.83 61.0106 127.722 61.5986 127.722C62.2799 127.722 62.8516 127.825 63.3136 128.03C63.7756 128.236 64.1956 128.516 64.5736 128.87L63.5306 129.941C63.2366 129.675 62.9449 129.479 62.6556 129.353C62.3662 129.227 62.0396 129.164 61.6756 129.164C61.3396 129.164 61.0246 129.23 60.7306 129.36C60.4412 129.491 60.1846 129.699 59.9606 129.983C59.7412 130.268 59.5686 130.639 59.4426 131.096C59.3166 131.554 59.2536 132.111 59.2536 132.769C59.2536 133.642 59.3306 134.344 59.4846 134.876C59.6432 135.404 59.8789 135.786 60.1916 136.024C60.5089 136.258 60.9056 136.374 61.3816 136.374C61.6476 136.374 61.8972 136.344 62.1306 136.283C62.3686 136.218 62.5949 136.132 62.8096 136.024V133.553H61.3536L61.1576 132.153H64.6366V136.892C64.1699 137.168 63.6682 137.392 63.1316 137.564C62.5996 137.737 61.9999 137.823 61.3326 137.823ZM70.1541 135.394H66.9691L66.3671 137.613H64.3861L67.4171 127.932H69.7691L72.7931 137.613H70.7561L70.1541 135.394ZM67.3121 133.959H69.7971L68.5581 129.367L67.3121 133.959Z" fill="#2B3C33"/>
<rect x="79.668" y="120.113" width="31" height="25" rx="11.5" fill="#FEFFFE"/>
<rect x="79.668" y="120.113" width="31" height="25" rx="11.5" stroke="#4269A0"/>
<path d="M92.656 127.953V137.333H91.102V129.563L88.974 130.872L88.302 129.773L91.27 127.953H92.656ZM94.588 136.381V137.613H88.743V136.381H94.588ZM98.9225 127.757C100.005 127.757 100.824 128.194 101.38 129.066C101.935 129.939 102.213 131.173 102.213 132.769C102.213 134.37 101.935 135.609 101.38 136.486C100.824 137.364 100.005 137.802 98.9225 137.802C97.8352 137.802 97.0138 137.364 96.4585 136.486C95.9078 135.609 95.6325 134.37 95.6325 132.769C95.6325 131.173 95.9078 129.939 96.4585 129.066C97.0138 128.194 97.8352 127.757 98.9225 127.757ZM98.9225 128.954C98.3672 128.954 97.9402 129.251 97.6415 129.843C97.3428 130.431 97.1935 131.407 97.1935 132.769C97.1935 133.497 97.2238 134.109 97.2845 134.603C97.3498 135.093 97.4502 135.485 97.5855 135.779C97.7255 136.073 97.9052 136.286 98.1245 136.416C98.3438 136.542 98.6098 136.605 98.9225 136.605C99.2958 136.605 99.6108 136.479 99.8675 136.227C100.124 135.971 100.318 135.56 100.448 134.995C100.584 134.431 100.652 133.689 100.652 132.769C100.652 131.813 100.593 131.057 100.477 130.501C100.365 129.941 100.183 129.545 99.9305 129.311C99.6785 129.073 99.3425 128.954 98.9225 128.954ZM100.224 129.283L100.631 130.382L97.7465 136.269L97.2285 135.38L100.224 129.283Z" fill="#1D3948"/>
<path d="M124.966 134.834C124.966 135.422 124.814 135.94 124.511 136.388C124.212 136.836 123.781 137.189 123.216 137.445C122.651 137.697 121.968 137.823 121.165 137.823C120.325 137.823 119.604 137.7 119.002 137.452C118.4 137.2 117.896 136.878 117.49 136.486L118.498 135.359C118.848 135.672 119.24 135.917 119.674 136.094C120.108 136.272 120.596 136.36 121.137 136.36C121.482 136.36 121.793 136.307 122.068 136.199C122.348 136.092 122.567 135.936 122.726 135.73C122.889 135.52 122.971 135.264 122.971 134.96C122.971 134.694 122.915 134.47 122.803 134.288C122.691 134.106 122.497 133.943 122.222 133.798C121.951 133.654 121.573 133.509 121.088 133.364C120.374 133.145 119.786 132.905 119.324 132.643C118.862 132.377 118.519 132.065 118.295 131.705C118.071 131.341 117.959 130.912 117.959 130.417C117.959 129.862 118.113 129.384 118.421 128.982C118.729 128.576 119.144 128.266 119.667 128.051C120.194 127.832 120.782 127.722 121.431 127.722C122.15 127.722 122.782 127.827 123.328 128.037C123.874 128.243 124.355 128.537 124.77 128.919L123.811 130.004C123.48 129.72 123.12 129.51 122.733 129.374C122.35 129.239 121.961 129.171 121.564 129.171C121.251 129.171 120.971 129.213 120.724 129.297C120.481 129.381 120.29 129.505 120.15 129.668C120.01 129.832 119.94 130.039 119.94 130.291C119.94 130.52 120.003 130.716 120.129 130.879C120.26 131.038 120.481 131.187 120.794 131.327C121.107 131.463 121.536 131.617 122.082 131.789C122.656 131.962 123.158 132.17 123.587 132.412C124.021 132.655 124.359 132.97 124.602 133.357C124.845 133.74 124.966 134.232 124.966 134.834ZM127.691 137.613H125.772V127.932H127.691V137.613ZM127.76 132.447L130.813 127.932H132.871L129.763 132.307L133.137 137.613H130.876L127.76 132.447ZM140.019 130.795C140.019 131.262 139.926 131.67 139.739 132.02C139.557 132.37 139.307 132.664 138.99 132.902C138.677 133.14 138.325 133.325 137.933 133.455L140.586 137.613H138.388L136.099 133.756H135.217V137.613H133.306V127.932H136.155C137.429 127.932 138.39 128.168 139.039 128.639C139.692 129.111 140.019 129.829 140.019 130.795ZM138.031 130.795C138.031 130.273 137.879 129.897 137.576 129.668C137.273 129.435 136.815 129.318 136.204 129.318H135.217V132.398H136.267C136.832 132.398 137.266 132.272 137.569 132.02C137.877 131.768 138.031 131.36 138.031 130.795ZM143.213 129.346V131.999H146.643V133.392H143.213V136.206H147.378V137.613H141.295V127.932H147.329L147.133 129.346H143.213ZM150.963 129.346V132.195H154.498V133.609H150.963V137.613H149.045V127.932H155.177L154.974 129.346H150.963Z" fill="#2B3C33"/>
<mask id="path-15-inside-4_309_1053" fill="white">
<path d="M202.058 191.001C202.058 193.21 200.267 195.001 198.058 195.001H78.6827C77.0549 195.001 75.5895 195.987 74.9768 197.495L72.8493 202.732C72.2367 204.24 70.7713 205.227 69.1435 205.227H46.1495C44.5311 205.227 43.0721 204.251 42.4534 202.756L40.2673 197.472C39.6486 195.976 38.1896 195.001 36.5712 195.001H17.9609C15.7518 195.001 13.9609 193.21 13.9609 191.001V154C13.9609 151.791 15.7518 150 17.9609 150H38.3627C40.0642 150 41.5794 151.076 42.1396 152.683L43.4619 156.475C44.0221 158.082 45.5374 159.158 47.2389 159.158H70.513C72.2226 159.158 73.7432 158.072 74.2972 156.454L75.5817 152.704C76.1357 151.087 77.6563 150 79.3659 150H198.058C200.267 150 202.058 151.791 202.058 154V191.001Z"/>
</mask>
<path d="M202.058 191.001C202.058 193.21 200.267 195.001 198.058 195.001H78.6827C77.0549 195.001 75.5895 195.987 74.9768 197.495L72.8493 202.732C72.2367 204.24 70.7713 205.227 69.1435 205.227H46.1495C44.5311 205.227 43.0721 204.251 42.4534 202.756L40.2673 197.472C39.6486 195.976 38.1896 195.001 36.5712 195.001H17.9609C15.7518 195.001 13.9609 193.21 13.9609 191.001V154C13.9609 151.791 15.7518 150 17.9609 150H38.3627C40.0642 150 41.5794 151.076 42.1396 152.683L43.4619 156.475C44.0221 158.082 45.5374 159.158 47.2389 159.158H70.513C72.2226 159.158 73.7432 158.072 74.2972 156.454L75.5817 152.704C76.1357 151.087 77.6563 150 79.3659 150H198.058C200.267 150 202.058 151.791 202.058 154V191.001Z" fill="#E3BBF6"/>
<path d="M75.5817 152.704L77.4738 153.352L75.5817 152.704ZM74.2972 156.454L72.4051 155.806L74.2972 156.454ZM43.4619 156.475L41.5734 157.134L43.4619 156.475ZM40.2673 197.472L38.4193 198.236L40.2673 197.472ZM72.8493 202.732L70.9964 201.979L72.8493 202.732ZM74.9768 197.495L76.8298 198.248L74.9768 197.495ZM198.058 195.001V193.001H78.6827V195.001V197.001H198.058V195.001ZM74.9768 197.495L73.1239 196.743L70.9964 201.979L72.8493 202.732L74.7023 203.485L76.8298 198.248L74.9768 197.495ZM69.1435 205.227V203.227H46.1495V205.227V207.227H69.1435V205.227ZM42.4534 202.756L44.3014 201.991L42.1154 196.707L40.2673 197.472L38.4193 198.236L40.6053 203.52L42.4534 202.756ZM36.5712 195.001V193.001H17.9609V195.001V197.001H36.5712V195.001ZM13.9609 191.001H15.9609V154H13.9609H11.9609V191.001H13.9609ZM17.9609 150V152H38.3627V150V148H17.9609V150ZM42.1396 152.683L40.2511 153.342L41.5734 157.134L43.4619 156.475L45.3504 155.817L44.0281 152.025L42.1396 152.683ZM47.2389 159.158V161.158H70.513V159.158V157.158H47.2389V159.158ZM74.2972 156.454L76.1893 157.102L77.4738 153.352L75.5817 152.704L73.6896 152.056L72.4051 155.806L74.2972 156.454ZM79.3659 150V152H198.058V150V148H79.3659V150ZM202.058 154H200.058V191.001H202.058H204.058V154H202.058ZM198.058 150V152C199.162 152 200.058 152.895 200.058 154H202.058H204.058C204.058 150.686 201.371 148 198.058 148V150ZM75.5817 152.704L77.4738 153.352C77.7508 152.543 78.5111 152 79.3659 152V150V148C76.8015 148 74.5206 149.63 73.6896 152.056L75.5817 152.704ZM70.513 159.158V161.158C73.0774 161.158 75.3583 159.528 76.1893 157.102L74.2972 156.454L72.4051 155.806C72.1281 156.615 71.3678 157.158 70.513 157.158V159.158ZM43.4619 156.475L41.5734 157.134C42.4138 159.544 44.6867 161.158 47.2389 161.158V159.158V157.158C46.3882 157.158 45.6305 156.62 45.3504 155.817L43.4619 156.475ZM38.3627 150V152C39.2134 152 39.971 152.538 40.2511 153.342L42.1396 152.683L44.0281 152.025C43.1878 149.615 40.9149 148 38.3627 148V150ZM13.9609 154H15.9609C15.9609 152.895 16.8564 152 17.9609 152V150V148C14.6472 148 11.9609 150.686 11.9609 154H13.9609ZM17.9609 195.001V193.001C16.8564 193.001 15.9609 192.106 15.9609 191.001H13.9609H11.9609C11.9609 194.315 14.6472 197.001 17.9609 197.001V195.001ZM40.2673 197.472L42.1154 196.707C41.1873 194.464 38.9989 193.001 36.5712 193.001V195.001V197.001C37.3804 197.001 38.1099 197.489 38.4193 198.236L40.2673 197.472ZM46.1495 205.227V203.227C45.3403 203.227 44.6108 202.739 44.3014 201.991L42.4534 202.756L40.6053 203.52C41.5334 205.764 43.7218 207.227 46.1495 207.227V205.227ZM72.8493 202.732L70.9964 201.979C70.6901 202.733 69.9574 203.227 69.1435 203.227V205.227V207.227C71.5851 207.227 73.7833 205.747 74.7023 203.485L72.8493 202.732ZM78.6827 195.001V193.001C76.241 193.001 74.0429 194.481 73.1239 196.743L74.9768 197.495L76.8298 198.248C77.1361 197.494 77.8688 197.001 78.6827 197.001V195.001ZM198.058 195.001V197.001C201.371 197.001 204.058 194.315 204.058 191.001H202.058H200.058C200.058 192.106 199.162 193.001 198.058 193.001V195.001Z" fill="#432A72" mask="url(#path-15-inside-4_309_1053)"/>
<path d="M39.966 177.221C39.966 177.809 39.8143 178.327 39.511 178.775C39.2123 179.223 38.7806 179.575 38.216 179.832C37.6513 180.084 36.9676 180.21 36.165 180.21C35.325 180.21 34.604 180.086 34.002 179.839C33.4 179.587 32.896 179.265 32.49 178.873L33.498 177.746C33.848 178.059 34.24 178.304 34.674 178.481C35.108 178.658 35.5956 178.747 36.137 178.747C36.4823 178.747 36.7926 178.693 37.068 178.586C37.348 178.479 37.5673 178.322 37.726 178.117C37.8893 177.907 37.971 177.65 37.971 177.347C37.971 177.081 37.915 176.857 37.803 176.675C37.691 176.493 37.4973 176.33 37.222 176.185C36.9513 176.04 36.5733 175.896 36.088 175.751C35.374 175.532 34.786 175.291 34.324 175.03C33.862 174.764 33.519 174.451 33.295 174.092C33.071 173.728 32.959 173.299 32.959 172.804C32.959 172.249 33.113 171.77 33.421 171.369C33.729 170.963 34.1443 170.653 34.667 170.438C35.1943 170.219 35.7823 170.109 36.431 170.109C37.1496 170.109 37.782 170.214 38.328 170.424C38.874 170.629 39.3546 170.923 39.77 171.306L38.811 172.391C38.4796 172.106 38.1203 171.896 37.733 171.761C37.3503 171.626 36.9606 171.558 36.564 171.558C36.2513 171.558 35.9713 171.6 35.724 171.684C35.4813 171.768 35.29 171.892 35.15 172.055C35.01 172.218 34.94 172.426 34.94 172.678C34.94 172.907 35.003 173.103 35.129 173.266C35.2596 173.425 35.4813 173.574 35.794 173.714C36.1066 173.849 36.536 174.003 37.082 174.176C37.656 174.349 38.1576 174.556 38.587 174.799C39.021 175.042 39.3593 175.357 39.602 175.744C39.8446 176.127 39.966 176.619 39.966 177.221ZM44.8325 180L41.9835 171.957C42.0068 172.134 42.0348 172.363 42.0675 172.643C42.1002 172.923 42.1305 173.24 42.1585 173.595C42.1912 173.95 42.2168 174.325 42.2355 174.722C42.2588 175.119 42.2705 175.52 42.2705 175.926V180H40.6045V170.319H43.0405L45.8615 178.348C45.8242 178.11 45.7822 177.795 45.7355 177.403C45.6935 177.011 45.6562 176.561 45.6235 176.052C45.5908 175.543 45.5745 175.002 45.5745 174.428V170.319H47.2405V180H44.8325ZM54.942 170.319V176.794C54.942 177.452 54.8067 178.04 54.536 178.558C54.27 179.071 53.8804 179.475 53.367 179.769C52.8537 180.063 52.2214 180.21 51.47 180.21C50.714 180.21 50.0794 180.068 49.566 179.783C49.0527 179.494 48.6654 179.092 48.404 178.579C48.1427 178.066 48.012 177.471 48.012 176.794V170.319H49.93V176.255C49.93 177.081 50.042 177.702 50.266 178.117C50.49 178.528 50.8914 178.733 51.47 178.733C52.0534 178.733 52.457 178.528 52.681 178.117C52.905 177.702 53.017 177.081 53.017 176.255V170.319H54.942ZM52.59 166.896L53.311 168.317L50.105 169.465L49.657 168.513L52.59 166.896ZM60.5996 177.781H57.4146L56.8126 180H54.8316L57.8626 170.319H60.2146L63.2386 180H61.2016L60.5996 177.781ZM57.7576 176.346H60.2426L59.0036 171.754L57.7576 176.346ZM77.7386 177.221C77.7386 177.809 77.587 178.327 77.2836 178.775C76.985 179.223 76.5533 179.575 75.9886 179.832C75.424 180.084 74.7403 180.21 73.9376 180.21C73.0976 180.21 72.3766 180.086 71.7746 179.839C71.1726 179.587 70.6686 179.265 70.2626 178.873L71.2706 177.746C71.6206 178.059 72.0126 178.304 72.4466 178.481C72.8806 178.658 73.3683 178.747 73.9096 178.747C74.255 178.747 74.5653 178.693 74.8406 178.586C75.1206 178.479 75.34 178.322 75.4986 178.117C75.662 177.907 75.7436 177.65 75.7436 177.347C75.7436 177.081 75.6876 176.857 75.5756 176.675C75.4636 176.493 75.27 176.33 74.9946 176.185C74.724 176.04 74.346 175.896 73.8606 175.751C73.1466 175.532 72.5586 175.291 72.0966 175.03C71.6346 174.764 71.2916 174.451 71.0676 174.092C70.8436 173.728 70.7316 173.299 70.7316 172.804C70.7316 172.249 70.8856 171.77 71.1936 171.369C71.5016 170.963 71.917 170.653 72.4396 170.438C72.967 170.219 73.555 170.109 74.2036 170.109C74.9223 170.109 75.5546 170.214 76.1006 170.424C76.6466 170.629 77.1273 170.923 77.5426 171.306L76.5836 172.391C76.2523 172.106 75.893 171.896 75.5056 171.761C75.123 171.626 74.7333 171.558 74.3366 171.558C74.024 171.558 73.744 171.6 73.4966 171.684C73.254 171.768 73.0626 171.892 72.9226 172.055C72.7826 172.218 72.7126 172.426 72.7126 172.678C72.7126 172.907 72.7756 173.103 72.9016 173.266C73.0323 173.425 73.254 173.574 73.5666 173.714C73.8793 173.849 74.3086 174.003 74.8546 174.176C75.4286 174.349 75.9303 174.556 76.3596 174.799C76.7936 175.042 77.132 175.357 77.3746 175.744C77.6173 176.127 77.7386 176.619 77.7386 177.221ZM80.8762 171.733V174.386H84.3062V175.779H80.8762V178.593H85.0412V180H78.9582V170.319H84.9922L84.7962 171.733H80.8762ZM83.0952 166.896L83.8162 168.317L80.6102 169.465L80.1622 168.513L83.0952 166.896ZM92.7917 173.182C92.7917 173.649 92.6984 174.057 92.5117 174.407C92.3297 174.757 92.08 175.051 91.7627 175.289C91.45 175.527 91.0977 175.711 90.7057 175.842L93.3587 180H91.1607L88.8717 176.143H87.9897V180H86.0787V170.319H88.9277C90.2017 170.319 91.163 170.555 91.8117 171.026C92.465 171.497 92.7917 172.216 92.7917 173.182ZM90.8037 173.182C90.8037 172.659 90.652 172.284 90.3487 172.055C90.0454 171.822 89.588 171.705 88.9767 171.705H87.9897V174.785H89.0397C89.6044 174.785 90.0384 174.659 90.3417 174.407C90.6497 174.155 90.8037 173.747 90.8037 173.182ZM107.369 170.319V171.754H105.318V178.565H107.369V180H101.349V178.565H103.4V171.754H101.349V170.319H107.369ZM105.472 166.896L106.193 168.317L102.987 169.465L102.539 168.513L105.472 166.896ZM120.868 180V175.744H118.068V180H116.15V170.319H118.068V174.169H120.868V170.319H122.786V180H120.868ZM130.564 173.182C130.564 173.649 130.471 174.057 130.284 174.407C130.102 174.757 129.853 175.051 129.535 175.289C129.223 175.527 128.87 175.711 128.478 175.842L131.131 180H128.933L126.644 176.143H125.762V180H123.851V170.319H126.7C127.974 170.319 128.936 170.555 129.584 171.026C130.238 171.497 130.564 172.216 130.564 173.182ZM128.576 173.182C128.576 172.659 128.425 172.284 128.121 172.055C127.818 171.822 127.361 171.705 126.749 171.705H125.762V174.785H126.812C127.377 174.785 127.811 174.659 128.114 174.407C128.422 174.155 128.576 173.747 128.576 173.182ZM137.587 170.319V171.754H135.536V178.565H137.587V180H131.567V178.565H133.618V171.754H131.567V170.319H137.587ZM143.041 180L140.192 171.957C140.216 172.134 140.244 172.363 140.276 172.643C140.309 172.923 140.339 173.24 140.367 173.595C140.4 173.95 140.426 174.325 140.444 174.722C140.468 175.119 140.479 175.52 140.479 175.926V180H138.813V170.319H141.249L144.07 178.348C144.033 178.11 143.991 177.795 143.944 177.403C143.902 177.011 143.865 176.561 143.832 176.052C143.8 175.543 143.783 175.002 143.783 174.428V170.319H145.449V180H143.041ZM149.987 180.21C149.124 180.21 148.389 180.019 147.782 179.636C147.175 179.253 146.711 178.686 146.389 177.935C146.072 177.184 145.913 176.253 145.913 175.142C145.913 174.316 146.027 173.59 146.256 172.965C146.485 172.335 146.797 171.81 147.194 171.39C147.595 170.965 148.057 170.646 148.58 170.431C149.107 170.216 149.665 170.109 150.253 170.109C150.934 170.109 151.506 170.212 151.968 170.417C152.43 170.622 152.85 170.902 153.228 171.257L152.185 172.328C151.891 172.062 151.599 171.866 151.31 171.74C151.021 171.614 150.694 171.551 150.33 171.551C149.994 171.551 149.679 171.616 149.385 171.747C149.096 171.878 148.839 172.085 148.615 172.37C148.396 172.655 148.223 173.026 148.097 173.483C147.971 173.94 147.908 174.498 147.908 175.156C147.908 176.029 147.985 176.731 148.139 177.263C148.298 177.79 148.533 178.173 148.846 178.411C149.163 178.644 149.56 178.761 150.036 178.761C150.302 178.761 150.552 178.731 150.785 178.67C151.023 178.605 151.249 178.518 151.464 178.411V175.94H150.008L149.812 174.54H153.291V179.279C152.824 179.554 152.323 179.778 151.786 179.951C151.254 180.124 150.654 180.21 149.987 180.21Z" fill="#2B3C33"/>
<rect x="160.668" y="162.5" width="28" height="25" rx="11.5" fill="#FEFFFE"/>
<rect x="160.668" y="162.5" width="28" height="25" rx="11.5" stroke="#4269A0"/>
<path d="M175.656 170.34V179.72H174.102V171.95L171.974 173.259L171.302 172.16L174.27 170.34H175.656ZM177.588 178.768V180H171.743V178.768H177.588Z" fill="#1D3948"/>
</svg>
