<svg width="26" height="23" viewBox="0 0 26 23" fill="none" xmlns="http://www.w3.org/2000/svg">
<path d="M19.7916 19.281C20.484 19.2635 21.7541 19.9011 21.6644 20.7678C21.6321 21.0815 21.4478 21.3306 21.1564 21.4576C20.5213 21.7365 19.1192 21.6394 18.3397 21.5448L17.4955 21.4427C17.1792 21.4053 16.8754 21.3007 16.6413 21.0691L15.2989 19.7442L13.593 17.8839L13.0974 17.3584C12.9729 17.4829 12.8284 17.5551 12.6765 17.6348C12.1012 17.9337 11.516 18.1628 10.9158 18.4168C10.1985 18.7206 9.46885 18.9697 8.69931 19.0842L8.97326 19.5076C9.11272 19.8264 9.13264 20.1999 8.97326 20.5088C8.66694 21.1065 7.93226 21.3082 7.34701 20.9645C6.98839 20.7528 6.71196 20.4614 6.45544 20.1402C5.94241 19.5026 5.62613 18.7605 5.57632 17.9411C5.54395 17.4281 5.91253 17.2986 6.39069 17.1342C6.51272 17.0919 6.58743 17.0072 6.65468 16.8952C6.85142 16.9823 6.99088 17.0944 7.15774 17.2139L7.69069 17.0346C6.67211 16.7358 5.6087 16.148 5.11559 15.1917C4.61751 14.2229 4.74203 12.5967 5.54644 12.0089C5.80046 11.8247 6.13169 11.8545 6.38571 12.0214C7.10295 12.4921 7.33456 13.6626 7.91732 14.4022C8.27843 14.8605 8.74414 15.1593 9.31195 15.3063C9.51119 15.3586 9.7428 15.4781 9.96195 15.4133C10.2733 15.3212 10.5397 15.1045 10.8087 14.9327C10.5497 14.0187 10.7116 13.6377 11.4114 13.0649C11.775 12.766 12.171 12.5469 12.5769 12.3202L12.7338 12.1982C12.019 11.7898 11.2769 11.0825 10.8162 10.4201C10.1288 9.43634 9.89222 8.26833 10.1512 7.09285C10.3106 6.38059 10.6194 5.7555 11.0254 5.14285C11.4861 4.45052 12.024 3.8304 12.6666 3.28998L12.7761 0.635189C12.7836 0.445917 12.7811 0.276569 12.8658 0.114691C12.9031 0.0499404 12.9629 0.00262454 13.0252 0.000134117C13.0874 -0.0023563 13.1671 0.0300158 13.212 0.0823147C13.339 0.22925 13.4734 0.341321 13.6303 0.458371C14.2505 0.92657 14.8233 1.43212 15.416 1.94764C15.9464 1.90032 16.4794 1.92772 17.0372 2.01737L17.5528 1.39477L18.5116 0.204347C18.5788 0.122163 18.6361 0.0848069 18.7357 0.0997495C18.8453 0.114692 18.8702 0.199366 18.9051 0.301473L19.7817 2.93385C20.0756 3.09075 20.362 3.23021 20.5861 3.45435C20.6733 3.54151 20.728 3.56144 20.8426 3.61125C21.3033 3.81048 21.647 4.16163 21.9409 4.56009C22.4041 5.18519 22.688 5.88998 22.7802 6.65454C22.8051 6.85377 22.815 7.04304 22.7802 7.24477C23.0666 7.48385 23.3206 7.73787 23.4999 8.06412L24.1125 7.95454C24.5882 7.86987 24.8323 7.40416 25.0315 7.64324C25.0788 7.69803 25.0938 7.77024 25.0464 7.84745C24.76 8.20607 24.1474 8.34305 23.6767 8.43768C23.8261 8.90339 23.8485 9.34917 23.7987 9.82484C24.1499 10.0241 24.4413 9.90204 24.7252 9.9643C24.8173 9.98423 24.8646 10.0838 24.8497 10.1635C24.7974 10.4425 24.1225 10.3727 23.729 10.2158L23.5995 10.6118C23.3131 11.3291 22.8275 11.9317 22.1899 12.3875C20.7131 13.4409 18.8328 13.68 16.9974 13.5804C17.1319 13.9614 17.087 14.345 16.965 14.721C17.0572 14.8406 17.1742 14.9402 17.3012 15.0174C17.5029 15.0946 17.6972 15.0348 17.8815 14.9327L18.6411 14.5118C18.93 14.3524 19.2761 14.2802 19.6049 14.3748C19.9809 14.4844 20.2997 14.7932 20.3719 15.1743C20.4865 15.7745 19.7941 16.4718 19.2587 16.803C18.788 17.0944 18.28 17.2861 17.7171 17.311C16.9252 17.3434 16.3823 17.057 15.8767 16.4618L15.675 16.6635L16.8305 17.9386L18.0708 19.3208L19.7916 19.2785V19.281ZM17.0198 13.1819C18.3123 13.3363 19.6397 13.1819 20.8551 12.6988C22.1052 12.2032 23.1612 11.2419 23.4052 9.90454C23.4974 9.394 23.4725 8.89094 23.2633 8.42274C23.1188 8.0965 22.9196 7.81259 22.6058 7.61335C22.5336 7.72293 22.4564 7.82752 22.3344 7.85492C21.911 7.94955 21.7591 7.61833 21.3706 7.49381L21.2959 7.35435C20.606 6.54745 20.1851 5.28232 20.083 4.22887C20.0656 4.04956 20.1328 3.75569 20.2972 3.67848C20.0656 3.47178 19.8041 3.35473 19.5351 3.21527C19.4579 3.17542 19.4256 3.05837 19.3982 2.97369L18.6336 0.70492C18.4443 0.844384 18.3696 1.03864 18.2401 1.20052L18.1181 1.34994L17.4158 2.09458C17.8267 2.21412 18.3646 2.28385 18.2028 2.62753C17.615 2.46067 17.0348 2.32868 16.4246 2.27638C16.1905 2.25646 15.9738 2.24898 15.7422 2.29381C15.9315 2.49055 16.1681 2.70473 16.056 2.85914C16.0112 2.9214 15.9091 2.94132 15.8518 2.88404L15.1669 2.21412C14.9204 2.03232 14.7112 1.84553 14.4796 1.64381C14.0886 1.30262 13.6677 1.00875 13.2991 0.64017C13.2618 0.600324 13.2045 0.570437 13.1497 0.580399L13.1024 1.8804L13.0526 2.81182L12.9654 4.39324C12.9355 4.44305 12.8334 4.44304 12.7985 4.42312C12.7512 4.39573 12.6865 4.3509 12.684 4.27868L12.6715 3.80052C12.4175 4.02963 12.1959 4.25377 11.9842 4.51776C11.2644 5.41929 10.7265 6.18883 10.4849 7.33442C10.2508 8.43768 10.5821 9.51603 11.2595 10.3827C11.7526 11.0128 12.3303 11.5432 13.0476 11.9467C13.075 11.8944 13.1024 11.8047 13.1547 11.7748C13.4012 11.8072 13.6254 11.9093 13.8346 12.0463C14.0014 12.1559 14.1782 12.2256 14.3476 12.3227C14.492 12.4049 14.6439 12.4423 14.7884 12.512C15.401 12.8109 16.0286 13.0076 16.706 13.1122L17.0198 13.1794V13.1819ZM22.4987 6.38557C22.3593 5.69572 22.0579 5.05569 21.6022 4.51776C21.3656 4.23883 21.1041 3.98979 20.7704 3.85779C20.6135 3.79553 20.4143 3.8304 20.357 3.98232C20.2997 4.1417 20.3097 4.30607 20.337 4.47293C20.4989 5.51891 20.9995 6.93097 21.8911 7.54611C22.0156 7.63327 22.1451 7.65071 22.2771 7.59343C22.6033 7.44649 22.5809 6.79649 22.4987 6.38557ZM6.01962 15.7545C6.6995 16.3323 7.5836 16.6735 8.4951 16.7432L9.35927 16.534L10.0516 16.2451C10.2857 16.148 10.4974 16.0609 10.7091 15.9089C10.8386 15.8168 11.0254 15.7844 11.1125 15.6474L10.9482 15.3162L10.1861 15.777C10.1064 15.8268 10.0915 15.8517 9.98935 15.8566C9.77019 15.8691 9.60084 15.8317 9.40659 15.7471C9.02556 15.5802 8.61464 15.4955 8.25602 15.2838C8.04433 15.1593 7.79529 14.7858 7.53628 14.5317C7.53379 14.4496 7.479 14.3848 7.44165 14.3051L6.829 13.0624C6.5974 12.5942 6.0769 11.9218 5.661 12.3277C5.48418 12.4996 5.36464 12.7187 5.28494 12.9553C5.09567 13.5107 5.09567 14.0984 5.27 14.6513C5.40946 15.0946 5.67096 15.4582 6.02211 15.7545M13.2045 15.0971L12.9156 14.7609C12.8185 14.6488 12.7512 14.5442 12.7313 14.3998C12.8658 14.4446 12.9206 14.3524 13.0077 14.3051C13.4485 14.071 13.8545 13.7796 14.1558 13.3837C14.3003 13.1969 14.4173 13.0101 14.4497 12.771L13.8196 12.4298C13.6528 12.3402 13.4236 12.2356 13.2269 12.3103L12.8185 12.654C12.7213 12.7635 12.6068 12.7984 12.4748 12.7959C11.7227 13.2591 10.8485 13.69 11.11 14.6363C11.3217 15.4009 11.7476 16.0982 12.3478 16.6337C12.4947 16.7632 12.6591 16.8777 12.8434 16.9001C13.2493 16.9499 13.5581 16.681 13.6503 16.3224C13.7698 15.8666 13.5133 15.4582 13.2045 15.0971ZM14.7187 15.8517L14.9802 16.0011C15.1719 16.1181 15.3089 16.2999 15.4508 16.4668L15.7123 16.1754C16.0261 15.8243 16.2951 15.4407 16.462 15.0248L16.6487 14.5542C16.8206 14.1208 16.7409 13.4634 16.3424 13.4957C15.9913 13.5231 15.8991 13.3015 15.7074 13.3065C15.6899 13.2143 15.6052 13.1844 15.5181 13.167C15.2616 13.1147 15.015 13.0699 14.7859 12.9553C14.5568 13.5082 14.1882 13.9714 13.7026 14.3076L13.2369 14.6314C13.4809 14.8331 13.6179 15.0647 13.7698 15.3013C13.8495 15.4233 13.9541 15.5155 13.9715 15.6748C14.1558 16.28 14.0313 16.8329 13.4461 17.1616L14.1907 17.9984L15.8717 19.8015C16.0261 19.9683 16.1482 20.1178 16.3349 20.2448C16.8554 20.5934 16.9575 21.0268 17.4905 21.084L18.7233 21.2185L19.5575 21.2285L20.5462 21.2384C20.8252 21.2409 21.0767 21.1413 21.2311 20.9047C21.5051 20.4839 20.9696 20.0455 20.4964 19.8513C19.9934 19.6446 19.448 19.6047 18.9001 19.6271L18.2077 19.7019C18.1554 19.7068 18.0982 19.8065 18.021 19.7467C17.7644 19.5524 17.5478 19.3358 17.3361 19.0917L15.4309 16.9126C15.1445 16.5839 14.9254 16.2153 14.7211 15.8542M19.9635 15.5578C20.0656 15.366 20.0307 15.1593 19.8863 15.0124C19.6298 14.7509 19.1093 14.6837 18.7805 14.848L17.6897 15.3959C17.5901 15.4681 17.4432 15.4333 17.3336 15.3785C17.1194 15.3312 16.975 15.2042 16.7957 15.0373C16.589 15.4358 16.3872 15.8019 16.1183 16.1679C16.5242 16.7632 17.224 17.0645 17.9612 16.9325C18.7631 16.7906 19.58 16.2775 19.9635 15.5553M10.8286 16.2526C10.221 16.5614 9.58092 16.793 8.92096 17.0197L7.51387 17.5028C7.46655 17.5202 7.44663 17.5377 7.45161 17.59C7.27977 17.6373 7.10295 17.6572 6.91866 17.7743C6.89376 17.6498 6.81904 17.4605 6.68456 17.4356C6.46291 17.443 6.08935 17.595 5.99969 17.7394C5.94241 17.8291 5.91502 17.9461 5.93245 18.0706C6.00717 18.6459 6.2313 19.1714 6.54759 19.6421C6.75429 19.9484 6.99088 20.2298 7.28973 20.4739C7.55621 20.6906 7.96713 20.9072 8.12651 20.6632C8.23111 20.6308 8.36061 20.6308 8.45774 20.5436C8.86119 20.1825 8.72422 19.7716 8.43782 19.3432C8.36061 19.2262 8.26847 19.1515 8.13149 19.1042C8.14146 19.012 8.16636 18.8676 8.25851 18.8277C8.76406 18.6982 9.27958 18.631 9.76521 18.4467L10.9905 17.9785C11.5533 17.7643 12.0962 17.5601 12.6466 17.2538C12.3851 17.1517 12.1784 17.0271 12.0016 16.8404L11.7003 16.5166L11.2794 15.9612C11.125 16.0783 10.9756 16.1754 10.8212 16.2526" fill="#191E18"/>
<path d="M21.3733 7.49327C21.2886 7.46588 21.184 7.50572 21.0944 7.51319C20.7756 7.38618 20.2775 7.26913 20.0932 7.49576C20.0135 7.59289 19.9712 7.73235 20.0285 7.87181L19.503 7.85438L19.0298 7.9017L19.1319 7.62775C19.234 7.35132 19.2141 7.0425 19.1668 6.73369C19.0149 5.73005 18.4471 4.79863 17.6128 4.20342C16.9453 3.72775 16.0164 3.75515 15.8197 4.30553C15.7201 4.58197 15.6752 4.85591 15.7076 5.14978C15.7773 5.74001 16.0064 6.2904 16.2804 6.82584C16.3078 6.87814 16.2879 6.92296 16.3277 6.97028C16.6739 7.40112 16.9653 7.79212 17.4459 8.06606L16.9702 8.20055C16.2306 8.35745 15.8047 9.03733 15.735 9.7745C15.6628 10.544 15.8471 11.2887 16.2704 11.9262L16.6963 12.3969L17.0873 12.8228L17.4833 12.9946L17.0176 13.1889L16.7038 13.1216C16.0289 13.0145 15.3988 12.8178 14.7861 12.5214C14.6417 12.4517 14.4898 12.4143 14.3453 12.3322C14.176 12.235 13.9992 12.1653 13.8323 12.0557C13.6231 11.9212 13.399 11.8166 13.1524 11.7843C13.1001 11.8142 13.0727 11.9038 13.0453 11.9561C12.3281 11.5527 11.7503 11.0222 11.2572 10.3921C10.5823 9.52545 10.2511 8.4471 10.4827 7.34384C10.7243 6.19825 11.2622 5.42871 11.9819 4.52718C12.1936 4.26319 12.4153 4.03905 12.6693 3.80993L12.6817 4.2881C12.6817 4.36281 12.749 4.40764 12.7963 4.43254C12.8337 4.45246 12.9333 4.45246 12.9632 4.40266L13.0503 2.82124L13.1001 1.88982L13.1474 0.589821C13.2022 0.57986 13.2595 0.609742 13.2969 0.649589C13.6655 1.01817 14.0863 1.31204 14.4748 1.65323C14.7064 1.85496 14.9156 2.04174 15.1622 2.22354L15.8471 2.89346C15.9068 2.95074 16.0064 2.93082 16.0513 2.86856C16.1609 2.71415 15.9243 2.49998 15.7375 2.30323C15.9666 2.2584 16.1858 2.26587 16.4199 2.2858C17.03 2.3381 17.6103 2.4676 18.198 2.63695C18.3624 2.29078 17.822 2.22354 17.411 2.104L18.1133 1.35936L18.2354 1.20993C18.3649 1.04806 18.4396 0.853806 18.6289 0.714343L19.3934 2.98312C19.4208 3.0653 19.4532 3.18484 19.5304 3.22469C19.7994 3.36415 20.0609 3.4812 20.2925 3.68791C20.1306 3.76511 20.0633 4.05898 20.0783 4.23829C20.1779 5.29174 20.5988 6.55687 21.2911 7.36377L21.3658 7.50323L21.3733 7.49327ZM13.125 7.16703C12.7639 6.89806 12.4302 6.60917 12.0492 6.3676C11.7578 6.18331 11.2174 5.85457 11.0082 6.01645C10.9061 6.09365 10.9633 6.27794 11.0779 6.31779C11.7777 6.55438 12.3655 7.04499 12.9109 7.5381C13.0229 7.6402 13.1973 7.58044 13.2396 7.47086C13.2969 7.32143 13.2421 7.25419 13.1275 7.16703M12.9856 8.54174C13.0678 8.53924 13.1848 8.50687 13.2122 8.43465C13.2421 8.35994 13.2122 8.25783 13.1923 8.1881C13.0653 8.12584 12.9407 8.14327 12.8087 8.15821C12.3729 8.20304 11.9421 8.18312 11.5013 8.19308L11.0928 8.20055C11.0256 8.28273 11.0107 8.42219 11.0879 8.49442C11.1576 8.55917 12.5547 8.55668 12.9856 8.54174Z" fill="#F4C269"/>
<path d="M21.3734 7.49351C21.7619 7.62052 21.9138 7.95174 22.3372 7.85462C22.4592 7.82722 22.5364 7.72263 22.6086 7.61305C22.9224 7.81478 23.1192 8.09619 23.2661 8.42244C23.4753 8.89064 23.5027 9.3937 23.408 9.90424C23.164 11.2416 22.108 12.2029 20.8579 12.6985C19.6425 13.1791 18.3151 13.336 17.0226 13.1816L17.4883 12.9874L17.0923 12.8155L16.7013 12.3897L16.2755 11.919C15.8496 11.2839 15.6678 10.5368 15.74 9.76727C15.8098 9.03259 16.2356 8.35021 16.9728 8.19332L17.451 8.05883C17.9964 8.36765 18.751 8.46727 19.0349 7.89945L19.508 7.84964L20.0335 7.86707C20.168 8.19332 20.6113 8.44734 20.9425 8.68393C21.0272 8.74619 21.219 8.80845 21.2962 8.70884L21.6149 8.29293C21.7121 8.16592 21.7195 7.97665 21.6224 7.84715C21.4904 7.66784 21.2937 7.58566 21.1019 7.51094C21.1891 7.50347 21.2962 7.46113 21.3808 7.49102M22.5513 10.3924C22.5837 10.3251 22.5738 10.2454 22.5439 10.2006C22.499 10.1383 22.4443 10.1309 22.3621 10.1309C21.7718 10.1209 21.2115 9.99887 20.6586 9.79466C20.1929 9.62282 19.787 9.38623 19.3412 9.16957L18.5019 8.76363L18.3849 9.23183C18.1533 10.1657 18.2354 11.3985 19.0897 11.9613C20.1406 12.6512 21.981 11.5927 22.5538 10.3924" fill="#FCFAF5"/>
<path d="M16.4594 15.0275C16.4295 14.9155 16.4544 14.781 16.3872 14.6689C16.2352 14.4174 15.9314 14.2705 15.6226 14.3153C15.0772 14.395 14.6364 14.8233 14.5816 15.3687C14.5642 15.5306 14.6439 15.7224 14.7211 15.8519C14.9253 16.213 15.1444 16.5816 15.4308 16.9103L17.336 19.0894C17.5502 19.3335 17.7644 19.5502 18.0209 19.7444C18.0981 19.8042 18.1553 19.7046 18.2076 19.6996L18.9 19.6249C19.4504 19.6 19.9933 19.6398 20.4963 19.849C20.9695 20.0433 21.505 20.4816 21.231 20.9025C21.0791 21.139 20.8276 21.2387 20.5486 21.2362L19.5599 21.2262L18.7257 21.2162L17.4929 21.0818C16.9599 21.0245 16.8578 20.5887 16.3373 20.2425C16.1506 20.118 16.0285 19.9661 15.8741 19.7992L14.1931 17.9961L13.4485 17.1593C14.0362 16.8306 14.1582 16.2777 13.9739 15.6726C13.9565 15.5132 13.8519 15.421 13.7722 15.3015C13.6178 15.0674 13.4808 14.8333 13.2393 14.6316L13.705 14.3103C14.1906 13.9741 14.5617 13.5134 14.7883 12.958C15.0174 13.0726 15.2615 13.1174 15.5205 13.1697C15.6076 13.1871 15.6923 13.217 15.7098 13.3092C15.904 13.3067 15.9962 13.5283 16.3448 13.5009C16.7433 13.4685 16.823 14.126 16.6511 14.5593L16.4644 15.03L16.4594 15.0275Z" fill="#F4C269"/>
<path d="M6.54985 19.6422C6.5623 19.6422 6.57973 19.6497 6.60962 19.6273C6.44276 19.4106 6.34812 19.1641 6.23356 18.92C6.20119 18.8528 6.21115 18.8129 6.19621 18.7432C6.13893 18.4742 6.02188 18.1903 6.03184 17.9139C6.03184 17.8815 6.06421 17.8242 6.04927 17.7918C6.0418 17.7719 6.04927 17.742 6.00195 17.742C6.09161 17.5976 6.46517 17.4457 6.68682 17.4382C6.8213 17.4606 6.89601 17.6524 6.92092 17.7769C7.10272 17.6574 7.27954 17.6374 7.45138 17.5926C7.54601 17.5677 7.64314 17.5079 7.7328 17.5029C7.88471 17.493 8.02916 17.4058 8.19103 17.3585C8.57207 17.2489 8.94563 17.1418 9.30674 16.9725L9.75751 16.8206C9.93931 16.7259 10.156 16.701 10.3004 16.589C10.4125 16.5018 10.5345 16.4968 10.6516 16.4271L10.8931 16.2801C10.8657 16.2503 10.8433 16.2602 10.8259 16.2552C10.9803 16.178 11.1297 16.0809 11.2841 15.9639L11.705 16.5192L12.0064 16.843C12.1807 17.0298 12.3874 17.1568 12.6514 17.2564C12.101 17.5627 11.5556 17.7669 10.9952 17.9811L9.76996 18.4493C9.28433 18.6361 8.76881 18.7008 8.26326 18.8303C8.17111 18.8702 8.14372 19.0146 8.13624 19.1068C8.27322 19.1541 8.36536 19.2313 8.44257 19.3459C8.72647 19.7742 8.86345 20.1851 8.46249 20.5462C8.36536 20.6334 8.23586 20.6334 8.13126 20.6658C7.97188 20.9098 7.56096 20.6932 7.29448 20.4765C6.99314 20.2324 6.75904 19.951 6.55234 19.6447" fill="#F4C269"/>
<path d="M13.2041 15.0974C13.5154 15.4585 13.7694 15.867 13.6499 16.3227C13.5552 16.6838 13.2464 16.9503 12.843 16.9005C12.6587 16.8781 12.4943 16.7635 12.3474 16.634C11.7472 16.1011 11.3213 15.4038 11.1096 14.6367C10.8456 13.6903 11.7198 13.2595 12.4744 12.7963C12.6064 12.7963 12.7209 12.7614 12.8181 12.6543L13.2265 12.3106C13.4207 12.2359 13.6523 12.3405 13.8192 12.4302L14.4493 12.7714C14.4169 13.0105 14.2999 13.1947 14.1554 13.384C13.8541 13.7775 13.4481 14.0689 13.0073 14.3055C12.9202 14.3528 12.8654 14.4449 12.7309 14.4001C12.7483 14.5446 12.8181 14.6492 12.9152 14.7612L13.2041 15.0974Z" fill="#F4C269"/>
<path d="M7.53668 14.5344C7.79569 14.7859 8.04473 15.1595 8.25642 15.2865C8.61255 15.4982 9.02596 15.5803 9.40699 15.7497C9.60124 15.8344 9.77059 15.8717 9.98975 15.8593C10.0919 15.8543 10.1068 15.8269 10.1865 15.7796L10.9486 15.3188L11.1129 15.6501C11.0258 15.7895 10.839 15.8194 10.7095 15.9116C10.4978 16.0635 10.2886 16.1506 10.052 16.2478L9.35967 16.5367L8.4955 16.7459C7.584 16.6761 6.6999 16.3349 6.02002 15.7572C5.96523 15.2018 6.43094 14.5991 6.96887 14.4098C7.18304 14.3351 7.38975 14.3924 7.53668 14.5344Z" fill="#F4C269"/>
<path d="M19.9634 15.5581C19.5799 16.2804 18.7655 16.7934 17.9611 16.9353C17.2239 17.0648 16.5241 16.7635 16.1182 16.1708C16.3871 15.8047 16.5889 15.4386 16.7956 15.0401C16.9749 15.207 17.1193 15.334 17.3335 15.3813C17.4431 15.4361 17.59 15.4685 17.6896 15.3963L18.7804 14.8484C19.1067 14.684 19.6297 14.7537 19.8862 15.0127C20.0306 15.1597 20.063 15.3664 19.9634 15.5581Z" fill="#F4C269"/>
<path d="M7.53638 14.5341C7.39194 14.3922 7.18274 14.3349 6.96857 14.4096C6.43064 14.5989 5.96493 15.2016 6.01972 15.7569C5.66857 15.4581 5.40956 15.097 5.26761 14.6537C5.09328 14.1008 5.09328 13.5131 5.28255 12.9577C5.36224 12.7211 5.48178 12.5019 5.6586 12.3301C6.07451 11.9267 6.595 12.5966 6.82661 13.0648L7.43926 14.3075C7.47661 14.3847 7.5314 14.4495 7.53389 14.5341" fill="#FCFAF5"/>
<path d="M22.499 6.38571C22.5812 6.79663 22.6036 7.44663 22.2774 7.59357C22.1479 7.65085 22.0159 7.63341 21.8914 7.54625C20.9998 6.93111 20.4992 5.51905 20.3373 4.47307C20.3124 4.30372 20.3 4.14184 20.3573 3.98246C20.412 3.82805 20.6138 3.79567 20.7707 3.85793C21.1044 3.98993 21.3659 4.23897 21.6025 4.5179C22.0582 5.05583 22.3571 5.69587 22.499 6.3882M22.2076 6.3907C22.1379 6.15411 21.8814 5.88016 21.7295 5.93494C21.5751 5.99222 21.4929 6.16407 21.4755 6.29606C21.4381 6.5974 21.7818 6.95353 21.9785 6.89625C22.1877 6.83399 22.2674 6.59242 22.2076 6.3907Z" fill="#FCFAF5"/>
<path d="M16.4598 15.0273C16.2929 15.4432 16.0264 15.8268 15.7102 16.1779L15.4487 16.4693C15.3067 16.3024 15.1697 16.1206 14.978 16.0036L14.7165 15.8542C14.6418 15.7222 14.5621 15.5329 14.577 15.371C14.6343 14.8256 15.0751 14.3998 15.618 14.3176C15.9268 14.2727 16.2307 14.4197 16.3826 14.6712C16.4523 14.7858 16.4249 14.9178 16.4548 15.0298" fill="#FCFAF5"/>
<path d="M10.8284 16.2529C10.8458 16.2579 10.8682 16.248 10.8956 16.2778L10.6541 16.4248C10.5395 16.4945 10.4175 16.4995 10.3029 16.5867C10.1585 16.6987 9.93931 16.7236 9.76 16.8183L9.30923 16.9702C8.94812 17.1395 8.57207 17.2466 8.19352 17.3562C8.03165 17.4035 7.88471 17.4882 7.73529 17.5006C7.64563 17.5081 7.54851 17.5654 7.45387 17.5903C7.44889 17.538 7.46881 17.5181 7.51613 17.5031L8.92322 17.02C9.58318 16.7934 10.2232 16.5593 10.8309 16.2529" fill="#E6A21D"/>
<path d="M6.54984 19.6419C6.23356 19.1713 6.00942 18.6458 5.93471 18.0705C5.91976 17.946 5.94716 17.8314 6.00195 17.7393C6.04677 17.7393 6.04179 17.7691 6.04926 17.7891C6.06421 17.8214 6.03183 17.8787 6.03183 17.9111C6.01938 18.1875 6.13643 18.4714 6.1962 18.7404C6.21114 18.8126 6.20118 18.8525 6.23356 18.9172C6.34812 19.1588 6.44275 19.4054 6.60961 19.6245C6.57972 19.6469 6.56229 19.6395 6.54984 19.6395" fill="#E6A21D"/>
<path d="M19.0299 7.90287C18.746 8.47068 17.9939 8.37107 17.446 8.06226C16.9653 7.7908 16.674 7.39732 16.3278 6.96647C16.2904 6.91916 16.3079 6.87432 16.2805 6.82203C16.0065 6.28659 15.7774 5.7362 15.7077 5.14597C15.6728 4.8521 15.7201 4.57816 15.8198 4.30172C16.0165 3.75383 16.9454 3.72394 17.6129 4.19961C18.4471 4.79482 19.015 5.72624 19.1669 6.72988C19.2142 7.03869 19.2366 7.34751 19.132 7.62394L19.0299 7.89789V7.90287ZM18.223 8.07471C18.5343 8.09712 18.7834 7.9203 18.888 7.64885C18.9776 7.41724 18.9776 7.15823 18.9602 6.90172C18.9228 6.39866 18.751 5.94291 18.497 5.51455C18.091 4.83467 17.309 4.00536 16.4897 4.1C15.887 4.16973 15.8795 4.89195 16.0016 5.44732C16.1286 6.02011 16.3602 6.55306 16.7039 7.03122C17.0525 7.51685 17.6079 8.02988 18.223 8.07471Z" fill="#191E18"/>
<path d="M21.0938 7.51374C21.2856 7.59094 21.4823 7.67063 21.6143 7.84994C21.7115 7.98194 21.704 8.16872 21.6069 8.29573L21.2881 8.71163C21.2109 8.81374 21.0191 8.74899 20.9345 8.68673C20.6032 8.45014 20.1599 8.19612 20.0254 7.86987C19.9682 7.73041 20.0105 7.59094 20.0902 7.49382C20.2745 7.26968 20.7751 7.38673 21.0913 7.51125" fill="#191E18"/>
<path d="M13.1248 7.1677C13.2394 7.25487 13.2941 7.32211 13.2369 7.47154C13.1945 7.58111 13.0202 7.63839 12.9081 7.53877C12.3652 7.04816 11.775 6.55506 11.0752 6.31847C10.9631 6.28111 10.9058 6.09682 11.0055 6.01713C11.2146 5.85525 11.7526 6.18399 12.0464 6.36828C12.43 6.60985 12.7612 6.89625 13.1223 7.1677" fill="#191E18"/>
<path d="M12.9857 8.54226C12.5548 8.5572 11.1577 8.56218 11.088 8.49494C11.0083 8.42023 11.0232 8.28326 11.093 8.20107L11.5014 8.1936C11.9422 8.18613 12.373 8.20605 12.8089 8.15873C12.9408 8.14379 13.0654 8.12636 13.1924 8.18862C13.2148 8.25835 13.2422 8.36046 13.2123 8.43517C13.1824 8.50739 13.0654 8.53977 12.9857 8.54226Z" fill="#191E18"/>
<path d="M22.5508 10.3924C21.9805 11.5928 20.1376 12.6512 19.0867 11.9614C18.2324 11.401 18.1503 10.1683 18.3819 9.23187L18.4989 8.76367L19.3382 9.16961C19.784 9.38379 20.1899 9.62037 20.6556 9.7947C21.206 9.99892 21.7664 10.1209 22.3591 10.1309C22.4413 10.1309 22.4985 10.1409 22.5409 10.2006C22.5732 10.243 22.5807 10.3227 22.5483 10.3924M22.237 10.4298C21.348 10.3675 20.546 10.0985 19.7865 9.70505L18.6683 9.12229C18.5462 9.74988 18.4665 10.3874 18.6683 10.9677C18.7878 11.3039 19.0045 11.6052 19.3332 11.7721C20.2771 12.2527 21.6991 11.3188 22.2345 10.4298" fill="#191E18"/>
<path d="M22.2073 6.39019C22.2671 6.59441 22.1874 6.83598 21.9782 6.89575C21.7815 6.95303 21.4403 6.59939 21.4751 6.29556C21.4901 6.16356 21.5748 5.98923 21.7292 5.93444C21.8836 5.87716 22.1401 6.15111 22.2073 6.39019Z" fill="#191E18"/>
<path d="M18.2222 8.07393C17.6071 8.03159 17.0492 7.51607 16.7031 7.03044C16.3594 6.55228 16.1278 6.01933 16.0008 5.44654C15.8787 4.89366 15.8862 4.16895 16.4889 4.09922C17.3058 4.00458 18.0902 4.83389 18.4962 5.51378C18.7502 5.94213 18.922 6.39539 18.9594 6.90094C18.9793 7.15745 18.9768 7.41397 18.8872 7.64807C18.7826 7.91703 18.536 8.09634 18.2222 8.07393ZM18.4514 6.63446C18.3766 6.45266 18.2372 6.27336 18.0529 6.19616C17.9134 6.13888 17.769 6.25841 17.7092 6.38542C17.5772 6.65937 17.7042 6.96569 17.9508 7.13255C18.0454 7.19481 18.1376 7.22719 18.2596 7.18485C18.4364 7.12508 18.5286 6.82374 18.4489 6.63446" fill="#FCFAF5"/>
<path d="M22.2373 10.4305C21.7019 11.3196 20.2799 12.256 19.336 11.7729C19.0073 11.6035 18.7906 11.3022 18.671 10.9684C18.4693 10.3882 18.549 9.75063 18.671 9.12305L19.7892 9.7058C20.5463 10.1018 21.3507 10.3683 22.2398 10.4305" fill="#FCFAF5"/>
<path d="M18.4513 6.63459C18.531 6.82635 18.4364 7.1277 18.262 7.18498C18.14 7.22731 18.0479 7.19493 17.9532 7.13267C17.7042 6.96581 17.5797 6.65949 17.7116 6.38555C17.7714 6.26102 17.9134 6.14149 18.0553 6.19628C18.2421 6.27099 18.3791 6.45279 18.4538 6.63459" fill="#191E18"/>
<path d="M12.6608 20.1706C13.2463 20.1559 14.3204 20.695 14.2446 21.428C14.2172 21.6933 14.0614 21.9039 13.815 22.0113C13.2779 22.2472 12.0922 22.1651 11.433 22.0851L10.719 21.9987C10.4516 21.9671 10.1946 21.8787 9.99666 21.6828L8.86148 20.5624L7.41881 18.9891L6.9997 18.5447C6.8944 18.65 6.77225 18.7111 6.64378 18.7785C6.15727 19.0312 5.66234 19.225 5.15478 19.4398C4.54822 19.6968 3.93114 19.9074 3.28036 20.0043L3.51203 20.3623C3.62997 20.6319 3.64682 20.9478 3.51203 21.2089C3.25298 21.7144 2.63169 21.885 2.13676 21.5943C1.83349 21.4153 1.59971 21.1689 1.38278 20.8972C0.948931 20.3581 0.681459 19.7305 0.639337 19.0376C0.611958 18.6037 0.923658 18.4942 1.32803 18.3552C1.43122 18.3194 1.49441 18.2478 1.55127 18.153C1.71765 18.2267 1.83559 18.3215 1.9767 18.4226L2.4274 18.2709C1.56601 18.0182 0.666716 17.5212 0.249712 16.7124C-0.171504 15.8932 -0.0662001 14.5179 0.614064 14.0209C0.828884 13.865 1.10899 13.8903 1.32381 14.0314C1.93037 14.4294 2.12623 15.4193 2.61905 16.0448C2.92444 16.4323 3.31827 16.6851 3.79846 16.8093C3.96695 16.8535 4.16281 16.9546 4.34815 16.8999C4.61141 16.822 4.83676 16.6387 5.06421 16.4934C4.84518 15.7205 4.98208 15.3982 5.57389 14.9138C5.88137 14.6611 6.21624 14.4758 6.55953 14.2841L6.69222 14.1809C6.08777 13.8355 5.46016 13.2374 5.07053 12.6772C4.48925 11.8453 4.28918 10.8575 4.50821 9.86346C4.643 9.26112 4.90415 8.7325 5.24744 8.2144C5.63707 7.62891 6.09198 7.1045 6.63535 6.64748L6.72802 4.4024C6.73434 4.24233 6.73223 4.09912 6.80384 3.96223C6.83543 3.90747 6.88597 3.86745 6.93863 3.86535C6.99128 3.86324 7.05867 3.89062 7.09658 3.93485C7.20399 4.0591 7.31772 4.15388 7.4504 4.25287C7.97482 4.64881 8.45922 5.07634 8.96046 5.5123C9.40906 5.47229 9.85976 5.49545 10.3315 5.57127L10.7675 5.04475L11.5783 4.03804C11.6352 3.96854 11.6836 3.93695 11.7679 3.94959C11.8605 3.96223 11.8816 4.03383 11.9111 4.12018L12.6524 6.34631C12.9009 6.47899 13.1431 6.59693 13.3327 6.78648C13.4064 6.86019 13.4527 6.87704 13.5496 6.91917C13.9392 7.08765 14.2299 7.38461 14.4784 7.72158C14.8701 8.25021 15.1102 8.84623 15.1881 9.4928C15.2092 9.66128 15.2176 9.82134 15.1881 9.99194C15.4303 10.1941 15.6452 10.4089 15.7968 10.6848L16.3149 10.5922C16.7172 10.5206 16.9236 10.1267 17.092 10.3289C17.1321 10.3752 17.1447 10.4363 17.1047 10.5016C16.8625 10.8049 16.3444 10.9207 15.9463 11.0008C16.0727 11.3946 16.0917 11.7716 16.0495 12.1738C16.3465 12.3423 16.5929 12.2391 16.833 12.2918C16.9109 12.3086 16.9509 12.3929 16.9383 12.4603C16.8941 12.6961 16.3233 12.6372 15.9906 12.5045L15.881 12.8394C15.6388 13.4459 15.2282 13.9556 14.689 14.341C13.4401 15.2319 11.85 15.4341 10.2978 15.3498C10.4116 15.672 10.3736 15.9964 10.2704 16.3144C10.3484 16.4155 10.4474 16.4997 10.5548 16.565C10.7254 16.6303 10.8896 16.5798 11.0455 16.4934L11.6878 16.1375C11.9321 16.0027 12.2249 15.9416 12.5029 16.0216C12.8209 16.1143 13.0905 16.3755 13.1516 16.6977C13.2484 17.2053 12.663 17.795 12.2101 18.0751C11.8121 18.3215 11.3825 18.4837 10.9065 18.5047C10.2367 18.5321 9.77762 18.2899 9.35009 17.7865L9.1795 17.9571L10.1567 19.0355L11.2055 20.2043L12.6608 20.1685V20.1706ZM10.3168 15.0128C11.4098 15.1434 12.5324 15.0128 13.5601 14.6043C14.6174 14.1851 15.5104 13.3722 15.7168 12.2412C15.7947 11.8095 15.7736 11.3841 15.5967 10.9881C15.4746 10.7122 15.3061 10.4721 15.0407 10.3036C14.9796 10.3963 14.9144 10.4848 14.8112 10.5079C14.4531 10.588 14.3247 10.3078 13.9961 10.2025L13.9329 10.0846C13.3495 9.40223 12.9936 8.33235 12.9073 7.44147C12.8925 7.28983 12.9494 7.04132 13.0884 6.97603C12.8925 6.80122 12.6714 6.70224 12.4439 6.5843C12.3786 6.5506 12.3513 6.45161 12.3281 6.38001L11.6815 4.46137C11.5215 4.57931 11.4583 4.74358 11.3488 4.88048L11.2456 5.00684L10.6516 5.63656C10.9992 5.73765 11.4541 5.79662 11.3172 6.08726C10.8201 5.94615 10.3294 5.83453 9.81343 5.79031C9.61546 5.77346 9.43223 5.76714 9.23636 5.80505C9.39642 5.97143 9.5965 6.15255 9.50173 6.28313C9.46382 6.33578 9.37747 6.35263 9.32903 6.30419L8.74986 5.73765C8.54135 5.58391 8.36444 5.42595 8.16858 5.25536C7.83792 4.96683 7.482 4.71831 7.1703 4.40661C7.1387 4.37291 7.09026 4.34764 7.04393 4.35606L7.00392 5.45544L6.96179 6.24311L6.88808 7.58047C6.86281 7.6226 6.77646 7.6226 6.74697 7.60575C6.70696 7.58258 6.6522 7.54467 6.65009 7.48359L6.63956 7.07923C6.42474 7.27299 6.2373 7.46253 6.05828 7.68578C5.44963 8.44818 4.99471 9.09896 4.79042 10.0678C4.59245 11.0007 4.87256 11.9127 5.44542 12.6456C5.86242 13.1784 6.35103 13.627 6.95758 13.9682C6.98075 13.924 7.00392 13.8482 7.04814 13.8229C7.25664 13.8503 7.44619 13.9366 7.6231 14.0525C7.76421 14.1451 7.91374 14.2041 8.05696 14.2862C8.17911 14.3557 8.30758 14.3873 8.42973 14.4463C8.94783 14.699 9.47856 14.8654 10.0514 14.9539L10.3168 15.0107V15.0128ZM14.9502 9.26534C14.8322 8.68195 14.5774 8.14069 14.192 7.68578C13.9919 7.4499 13.7708 7.23929 13.4885 7.12767C13.3559 7.07501 13.1874 7.1045 13.1389 7.23297C13.0905 7.36776 13.0989 7.50676 13.1221 7.64787C13.259 8.53242 13.6823 9.72657 14.4363 10.2468C14.5416 10.3205 14.6511 10.3352 14.7627 10.2868C15.0386 10.1625 15.0197 9.61284 14.9502 9.26534ZM1.01422 17.1884C1.58918 17.677 2.33684 17.9656 3.10766 18.0245L3.83847 17.8476L4.42397 17.6033C4.62194 17.5212 4.80095 17.4475 4.97997 17.319C5.08949 17.2411 5.24744 17.2137 5.32116 17.0979L5.18215 16.8177L4.53769 17.2074C4.4703 17.2495 4.45766 17.2706 4.37131 17.2748C4.18598 17.2853 4.04277 17.2537 3.87849 17.1821C3.55626 17.041 3.20876 16.9694 2.90548 16.7904C2.72646 16.6851 2.51586 16.3692 2.29682 16.1543C2.29472 16.0848 2.24838 16.0301 2.21679 15.9627L1.6987 14.9117C1.50283 14.5158 1.06266 13.9472 0.710944 14.2904C0.561412 14.4358 0.46032 14.6211 0.392926 14.8212C0.232864 15.2908 0.232864 15.7879 0.380289 16.2554C0.49823 16.6303 0.719368 16.9378 1.01633 17.1884M7.09026 16.6324L6.84596 16.3481C6.76382 16.2533 6.70696 16.1649 6.69011 16.0427C6.80384 16.0806 6.85017 16.0027 6.92388 15.9627C7.29666 15.7647 7.63995 15.5183 7.89479 15.1834C8.01694 15.0255 8.11593 14.8675 8.14331 14.6653L7.61047 14.3768C7.46936 14.301 7.2756 14.2125 7.10922 14.2757L6.76382 14.5663C6.68168 14.659 6.58481 14.6885 6.47318 14.6864C5.83715 15.0781 5.09791 15.4425 5.31905 16.2428C5.49807 16.8894 5.85821 17.4791 6.36577 17.9319C6.49003 18.0414 6.62903 18.1383 6.78488 18.1572C7.12817 18.1993 7.38933 17.9719 7.46725 17.6686C7.56834 17.2832 7.35142 16.9378 7.09026 16.6324ZM8.37076 17.2706L8.5919 17.3969C8.75407 17.4959 8.8699 17.6496 8.98995 17.7908L9.21109 17.5443C9.47645 17.2474 9.70391 16.923 9.84502 16.5713L10.003 16.1733C10.1483 15.8068 10.0809 15.2508 9.74393 15.2782C9.44697 15.3014 9.36904 15.1139 9.20688 15.1181C9.19213 15.0402 9.12053 15.0149 9.04681 15.0002C8.82989 14.956 8.62139 14.9181 8.42763 14.8212C8.23387 15.2887 7.92217 15.6805 7.51148 15.9648L7.11764 16.2386C7.32404 16.4092 7.43987 16.605 7.56835 16.8051C7.63574 16.9083 7.72419 16.9862 7.73894 17.121C7.89479 17.6328 7.78948 18.1004 7.29455 18.3784L7.92427 19.086L9.34588 20.6108C9.47645 20.7519 9.57965 20.8783 9.73761 20.9857C10.1778 21.2805 10.2641 21.647 10.7148 21.6954L11.7573 21.8092L12.4629 21.8176L13.299 21.826C13.5349 21.8281 13.7476 21.7439 13.8782 21.5438C14.1098 21.1879 13.657 20.8172 13.2569 20.6529C12.8314 20.4781 12.3702 20.4444 11.9069 20.4634L11.3214 20.5266C11.2772 20.5308 11.2287 20.615 11.1634 20.5645C10.9465 20.4002 10.7633 20.217 10.5843 20.0106L8.9731 18.1677C8.7309 17.8897 8.54557 17.578 8.37287 17.2727M12.8062 17.022C12.8925 16.8599 12.863 16.6851 12.7409 16.5608C12.524 16.3397 12.0838 16.2828 11.8058 16.4218L10.8833 16.8851C10.7991 16.9462 10.6748 16.9167 10.5821 16.8704C10.401 16.8304 10.2789 16.723 10.1272 16.5819C9.95243 16.9188 9.78184 17.2284 9.55438 17.538C9.89767 18.0414 10.4895 18.2962 11.1129 18.1846C11.791 18.0645 12.4818 17.6307 12.8062 17.0199M5.08106 17.6096C4.56718 17.8708 4.02592 18.0667 3.4678 18.2583L2.27787 18.6669C2.23785 18.6816 2.221 18.6964 2.22522 18.7406C2.0799 18.7806 1.93037 18.7975 1.77452 18.8964C1.75345 18.7911 1.69027 18.6311 1.57654 18.61C1.3891 18.6163 1.07319 18.7448 0.997371 18.867C0.948931 18.9428 0.925765 19.0418 0.940507 19.1471C1.00369 19.6336 1.19324 20.078 1.46071 20.476C1.63551 20.7351 1.83559 20.973 2.08832 21.1794C2.31367 21.3627 2.66118 21.5459 2.79596 21.3395C2.88442 21.3121 2.99394 21.3121 3.07607 21.2384C3.41726 20.933 3.30142 20.5855 3.05923 20.2233C2.99394 20.1243 2.91601 20.0611 2.80018 20.0211C2.8086 19.9432 2.82966 19.821 2.90759 19.7873C3.33512 19.6778 3.77108 19.6209 4.18177 19.4651L5.21796 19.0691C5.69393 18.888 6.15306 18.7153 6.6185 18.4563C6.39736 18.3699 6.22256 18.2646 6.07303 18.1067L5.81819 17.8329L5.46226 17.3632C5.33169 17.4622 5.20532 17.5443 5.07475 17.6096" fill="#191E18"/>
<path d="M13.9986 10.202C13.927 10.1788 13.8386 10.2125 13.7627 10.2188C13.4932 10.1114 13.0719 10.0124 12.9161 10.2041C12.8487 10.2862 12.8129 10.4042 12.8613 10.5221L12.417 10.5074L12.0168 10.5474L12.1032 10.3157C12.1895 10.082 12.1727 9.82079 12.1326 9.55964C12.0042 8.71089 11.524 7.92321 10.8184 7.41986C10.254 7.0176 9.46844 7.04077 9.30206 7.50621C9.21782 7.73999 9.17991 7.97165 9.20729 8.22017C9.26626 8.71931 9.46002 9.18476 9.69169 9.63757C9.71486 9.68179 9.69801 9.7197 9.73171 9.75972C10.0245 10.1241 10.2709 10.4547 10.6773 10.6864L10.2751 10.8001C9.64957 10.9328 9.28943 11.5078 9.23046 12.1312C9.16938 12.7819 9.32523 13.4117 9.68326 13.9508L10.0434 14.3489L10.3741 14.709L10.7089 14.8543L10.3151 15.0186L10.0497 14.9617C9.47897 14.8712 8.94614 14.7048 8.42804 14.4542C8.30589 14.3952 8.17742 14.3636 8.05526 14.2941C7.91205 14.212 7.76252 14.153 7.62141 14.0603C7.4445 13.9466 7.25495 13.8582 7.04645 13.8308C7.00222 13.856 6.97906 13.9319 6.95589 13.9761C6.34934 13.6349 5.86073 13.1863 5.44372 12.6535C4.87298 11.9206 4.59287 11.0086 4.78873 10.0756C4.99302 9.10683 5.44794 8.45605 6.05659 7.69365C6.23561 7.47041 6.42305 7.28086 6.63787 7.0871L6.6484 7.49147C6.6484 7.55465 6.70527 7.59256 6.74528 7.61362C6.77687 7.63047 6.86112 7.63047 6.88639 7.58835L6.9601 6.25098L7.00222 5.46331L7.04224 4.36394C7.08857 4.35551 7.13701 4.38078 7.1686 4.41448C7.4803 4.72618 7.83623 4.9747 8.16478 5.26324C8.36065 5.43383 8.53756 5.59178 8.74606 5.74553L9.32523 6.31206C9.37578 6.3605 9.46002 6.34365 9.49793 6.291C9.5906 6.16042 9.39052 5.9793 9.23256 5.81292C9.42632 5.77501 9.61166 5.78133 9.80963 5.79818C10.3256 5.84241 10.8163 5.95192 11.3134 6.09514C11.4524 5.80239 10.9954 5.74553 10.6479 5.64444L11.2418 5.01472L11.345 4.88835C11.4545 4.75145 11.5177 4.58718 11.6777 4.46924L12.3243 6.38788C12.3475 6.45738 12.3748 6.55847 12.4401 6.59217C12.6676 6.71011 12.8887 6.8091 13.0846 6.9839C12.9477 7.04919 12.8908 7.29771 12.9035 7.44935C12.9877 8.34022 13.3436 9.41011 13.9291 10.0925L13.9923 10.2104L13.9986 10.202ZM7.02328 9.9261C6.7179 9.69864 6.43569 9.45434 6.11346 9.25005C5.86705 9.0942 5.41003 8.8162 5.23312 8.95309C5.14677 9.01838 5.19521 9.17423 5.29209 9.20792C5.88389 9.408 6.38093 9.8229 6.84216 10.2399C6.93693 10.3263 7.08436 10.2757 7.12016 10.183C7.1686 10.0567 7.12227 9.99981 7.02539 9.9261M6.90534 11.0887C6.97484 11.0865 7.07383 11.0592 7.097 10.9981C7.12227 10.9349 7.097 10.8486 7.08015 10.7896C6.97274 10.7369 6.86743 10.7517 6.75581 10.7643C6.38725 10.8022 6.0229 10.7854 5.65012 10.7938L5.30472 10.8001C5.24786 10.8696 5.23522 10.9876 5.30051 11.0486C5.35948 11.1034 6.54099 11.1013 6.90534 11.0887Z" fill="#EEA82A"/>
<path d="M13.9977 10.2015C14.3263 10.3089 14.4547 10.589 14.8128 10.5068C14.916 10.4837 14.9812 10.3952 15.0423 10.3026C15.3077 10.4731 15.4741 10.7111 15.5983 10.987C15.7752 11.383 15.7984 11.8084 15.7184 12.2401C15.512 13.3711 14.619 14.1841 13.5617 14.6032C12.534 15.0096 11.4114 15.1423 10.3184 15.0117L10.7122 14.8475L10.3774 14.7022L10.0467 14.342L9.68656 13.944C9.32642 13.4069 9.17267 12.7751 9.23375 12.1243C9.29272 11.503 9.65286 10.9259 10.2763 10.7933L10.6806 10.6795C11.1419 10.9407 11.78 11.0249 12.0201 10.5448L12.4203 10.5026L12.8646 10.5174C12.9784 10.7933 13.3532 11.0081 13.6334 11.2082C13.705 11.2608 13.8671 11.3135 13.9324 11.2292L14.202 10.8775C14.2841 10.7701 14.2905 10.61 14.2083 10.5005C14.0967 10.3489 13.9303 10.2794 13.7681 10.2162C13.8419 10.2099 13.9324 10.1741 14.004 10.1994M14.9939 12.6529C15.0213 12.5961 15.0128 12.5287 14.9876 12.4908C14.9497 12.4381 14.9033 12.4318 14.8338 12.4318C14.3347 12.4234 13.8608 12.3202 13.3933 12.1475C12.9994 12.0022 12.6561 11.8021 12.2791 11.6189L11.5694 11.2756L11.4704 11.6715C11.2745 12.4613 11.344 13.5038 12.0664 13.9798C12.9552 14.5632 14.5116 13.6681 14.996 12.6529" fill="#FCFAF5"/>
<path d="M9.84328 16.5744C9.81801 16.4796 9.83907 16.3659 9.7822 16.2711C9.65373 16.0584 9.39679 15.9341 9.13564 15.972C8.67441 16.0394 8.30163 16.4017 8.25529 16.8629C8.24055 16.9998 8.30795 17.162 8.37323 17.2715C8.54593 17.5769 8.73127 17.8886 8.97347 18.1666L10.5846 20.0094C10.7657 20.2158 10.9469 20.399 11.1638 20.5633C11.2291 20.6138 11.2775 20.5296 11.3217 20.5254L11.9072 20.4622C12.3727 20.4411 12.8318 20.4748 13.2572 20.6517C13.6574 20.816 14.1102 21.1867 13.8785 21.5426C13.7501 21.7427 13.5373 21.8269 13.3015 21.8248L12.4654 21.8164L11.7598 21.808L10.7173 21.6943C10.2666 21.6458 10.1803 21.2773 9.74008 20.9845C9.58213 20.8792 9.47893 20.7507 9.34835 20.6096L7.92675 19.0848L7.29703 18.3772C7.79406 18.0992 7.89726 17.6316 7.74141 17.1198C7.72667 16.9851 7.63821 16.9071 7.57082 16.806C7.44024 16.6081 7.32441 16.4101 7.12012 16.2395L7.51395 15.9678C7.92464 15.6835 8.23845 15.2939 8.4301 14.8242C8.62386 14.9211 8.83025 14.959 9.04929 15.0032C9.123 15.018 9.19461 15.0433 9.20935 15.1212C9.37362 15.1191 9.45155 15.3065 9.7464 15.2833C10.0834 15.256 10.1508 15.812 10.0054 16.1784L9.84749 16.5765L9.84328 16.5744Z" fill="#EEA82A"/>
<path d="M1.46334 20.4769C1.47387 20.4769 1.48861 20.4832 1.51388 20.4643C1.37278 20.281 1.29275 20.0725 1.19587 19.8661C1.16849 19.8093 1.17691 19.7756 1.16427 19.7166C1.11583 19.4891 1.01685 19.249 1.02527 19.0153C1.02527 18.9879 1.05265 18.9395 1.04002 18.9121C1.0337 18.8952 1.04002 18.8699 1 18.8699C1.07582 18.7478 1.39173 18.6193 1.57917 18.613C1.6929 18.632 1.75608 18.7941 1.77714 18.8994C1.93089 18.7983 2.08042 18.7815 2.22574 18.7436C2.30577 18.7225 2.38791 18.672 2.46373 18.6678C2.5922 18.6593 2.71435 18.5856 2.85125 18.5456C3.17348 18.4529 3.48939 18.3624 3.79477 18.2192L4.17597 18.0907C4.32971 18.0107 4.51294 17.9896 4.6351 17.8948C4.72987 17.8211 4.83307 17.8169 4.93205 17.7579L5.13634 17.6337C5.11318 17.6084 5.09422 17.6168 5.07948 17.6126C5.21006 17.5473 5.33642 17.4652 5.467 17.3662L5.82293 17.8359L6.07776 18.1097C6.22519 18.2676 6.39999 18.375 6.62324 18.4593C6.15779 18.7183 5.69656 18.891 5.22269 19.0721L4.1865 19.4681C3.77582 19.626 3.33986 19.6808 2.91232 19.7903C2.8344 19.824 2.81123 19.9462 2.80491 20.0241C2.92075 20.0641 2.99867 20.1294 3.06396 20.2263C3.30405 20.5885 3.41989 20.936 3.08081 21.2414C2.99867 21.3151 2.88915 21.3151 2.8007 21.3425C2.66591 21.5489 2.31841 21.3657 2.09306 21.1824C1.83822 20.976 1.64025 20.738 1.46544 20.479" fill="#EEA82A"/>
<path d="M7.09021 16.6331C7.35347 16.9385 7.56829 17.2839 7.4672 17.6693C7.38717 17.9747 7.12602 18.2001 6.78483 18.1579C6.62898 18.139 6.48998 18.0421 6.36572 17.9326C5.85815 17.4819 5.49802 16.8922 5.319 16.2435C5.09575 15.4432 5.83499 15.0789 6.47313 14.6871C6.58475 14.6871 6.68163 14.6576 6.76377 14.5671L7.10917 14.2764C7.27344 14.2133 7.46931 14.3017 7.61041 14.3775L8.14325 14.6661C8.11587 14.8683 8.01689 15.0241 7.89474 15.1842C7.6399 15.5169 7.29661 15.7633 6.92383 15.9634C6.85012 16.0034 6.80379 16.0814 6.69006 16.0434C6.7048 16.1656 6.76377 16.2541 6.84591 16.3488L7.09021 16.6331Z" fill="#EEA82A"/>
<path d="M2.29706 16.1565C2.51609 16.3693 2.7267 16.6852 2.90572 16.7926C3.20689 16.9716 3.5565 17.0411 3.87873 17.1843C4.043 17.2559 4.18622 17.2875 4.37155 17.277C4.4579 17.2728 4.47054 17.2496 4.53793 17.2096L5.18239 16.82L5.32139 17.1001C5.24768 17.218 5.08972 17.2433 4.98021 17.3212C4.80119 17.4497 4.62428 17.5234 4.4242 17.6055L3.83871 17.8498L3.1079 18.0267C2.33708 17.9678 1.58942 17.6792 1.01446 17.1906C0.968124 16.721 1.36196 16.2113 1.81687 16.0512C1.998 15.9881 2.1728 16.0365 2.29706 16.1565Z" fill="#EEA82A"/>
<path d="M12.8055 17.0228C12.4812 17.6336 11.7925 18.0674 11.1122 18.1875C10.4888 18.297 9.897 18.0422 9.55371 17.5409C9.78117 17.2313 9.95176 16.9217 10.1266 16.5847C10.2782 16.7259 10.4004 16.8333 10.5815 16.8733C10.6741 16.9196 10.7984 16.947 10.8826 16.8859L11.8051 16.4226C12.081 16.2836 12.5233 16.3426 12.7402 16.5616C12.8624 16.6858 12.8897 16.8606 12.8055 17.0228Z" fill="#EEA82A"/>
<path d="M2.29721 16.1563C2.17506 16.0362 1.99815 15.9878 1.81702 16.051C1.36211 16.211 0.968273 16.7207 1.01461 17.1904C0.717649 16.9376 0.498616 16.6323 0.37857 16.2574C0.231144 15.7898 0.231144 15.2928 0.391206 14.8231C0.458601 14.6231 0.559693 14.4377 0.709224 14.2924C1.06094 13.9512 1.50111 14.5178 1.69698 14.9137L2.21507 15.9646C2.24666 16.0299 2.293 16.0847 2.2951 16.1563" fill="#FCFAF5"/>
<path d="M14.9503 9.26542C15.0198 9.61292 15.0387 10.1626 14.7628 10.2869C14.6533 10.3353 14.5417 10.3206 14.4364 10.2469C13.6824 9.72665 13.2591 8.5325 13.1222 7.64795C13.1011 7.50474 13.0906 7.36784 13.139 7.23305C13.1854 7.10247 13.356 7.0751 13.4886 7.12775C13.7709 7.23937 13.992 7.44998 14.1921 7.68586C14.5775 8.14077 14.8302 8.68204 14.9503 9.26753M14.7039 9.26964C14.6449 9.06956 14.428 8.83789 14.2995 8.88422C14.1689 8.93266 14.0994 9.07798 14.0847 9.1896C14.0531 9.44444 14.3437 9.74561 14.5101 9.69717C14.687 9.64452 14.7544 9.44023 14.7039 9.26964Z" fill="#FCFAF5"/>
<path d="M9.84276 16.5728C9.70165 16.9245 9.4763 17.2489 9.20883 17.5458L8.98769 17.7922C8.86765 17.6511 8.75181 17.4974 8.58964 17.3984L8.3685 17.272C8.30532 17.1604 8.23793 17.0004 8.25056 16.8635C8.299 16.4022 8.67178 16.0421 9.13091 15.9726C9.39206 15.9347 9.649 16.0589 9.77747 16.2717C9.83644 16.3685 9.81328 16.4802 9.83855 16.5749" fill="#FCFAF5"/>
<path d="M5.08093 17.6104C5.09567 17.6146 5.11463 17.6061 5.1378 17.6314L4.93351 17.7557C4.83663 17.8146 4.73343 17.8189 4.63655 17.8926C4.5144 17.9873 4.32906 18.0084 4.17742 18.0884L3.79622 18.2169C3.49084 18.3601 3.17282 18.4507 2.8527 18.5434C2.7158 18.5834 2.59154 18.655 2.46518 18.6655C2.38936 18.6718 2.30722 18.7203 2.22719 18.7413C2.22298 18.6971 2.23983 18.6802 2.27984 18.6676L3.46978 18.259C4.02789 18.0674 4.56915 17.8694 5.08304 17.6104" fill="#F5B538"/>
<path d="M1.4621 20.4753C1.19462 20.0772 1.00508 19.6328 0.941894 19.1463C0.929258 19.041 0.952425 18.9441 0.998758 18.8662C1.03667 18.8662 1.03246 18.8915 1.03877 18.9083C1.05141 18.9357 1.02403 18.9842 1.02403 19.0115C1.0135 19.2453 1.11249 19.4854 1.16303 19.7129C1.17567 19.7739 1.16724 19.8076 1.19462 19.8624C1.2915 20.0667 1.37153 20.2752 1.51264 20.4605C1.48737 20.4795 1.47263 20.4732 1.4621 20.4732" fill="#F5B538"/>
<path d="M12.0164 10.5483C11.7763 11.0285 11.1403 10.9443 10.6769 10.6831C10.2705 10.4535 10.0241 10.1208 9.73132 9.75642C9.69973 9.71641 9.71447 9.67849 9.6913 9.63427C9.45963 9.18146 9.26587 8.71602 9.2069 8.21688C9.17742 7.96836 9.21743 7.73669 9.30168 7.50291C9.46806 7.03958 10.2536 7.0143 10.8181 7.41656C11.5236 7.91992 12.0038 8.70759 12.1323 9.55634C12.1723 9.8175 12.1912 10.0787 12.1028 10.3124L12.0164 10.5441V10.5483ZM11.334 10.6936C11.5973 10.7126 11.8079 10.5631 11.8964 10.3335C11.9722 10.1376 11.9722 9.91859 11.9574 9.70166C11.9259 9.27623 11.7805 8.89082 11.5657 8.52857C11.2224 7.95361 10.5611 7.25229 9.86821 7.33232C9.35854 7.39129 9.35222 8.00206 9.45542 8.47171C9.56283 8.95611 9.7587 9.40681 10.0493 9.81118C10.3442 10.2219 10.8138 10.6557 11.334 10.6936Z" fill="#191E18"/>
<path d="M13.7628 10.2187C13.9249 10.2839 14.0913 10.3513 14.2029 10.503C14.2851 10.6146 14.2788 10.7726 14.1966 10.88L13.927 11.2317C13.8618 11.318 13.6996 11.2633 13.628 11.2106C13.3479 11.0106 12.973 10.7957 12.8593 10.5198C12.8108 10.4019 12.8466 10.284 12.914 10.2018C13.0699 10.0123 13.4932 10.1113 13.7607 10.2166" fill="#191E18"/>
<path d="M7.02222 9.92679C7.1191 10.0005 7.16544 10.0574 7.117 10.1837C7.08119 10.2764 6.93377 10.3248 6.83899 10.2406C6.37987 9.82569 5.88073 9.40869 5.28892 9.20861C5.19414 9.17702 5.1457 9.02117 5.22995 8.95378C5.40686 8.81688 5.86177 9.09489 6.11029 9.25074C6.43463 9.45503 6.71474 9.69722 7.02012 9.92679" fill="#191E18"/>
<path d="M6.90521 11.0893C6.54085 11.1019 5.35934 11.1061 5.30037 11.0493C5.23298 10.9861 5.24561 10.8702 5.30459 10.8007L5.64998 10.7944C6.02276 10.7881 6.38711 10.805 6.75567 10.7649C6.8673 10.7523 6.9726 10.7376 7.08001 10.7902C7.09897 10.8492 7.12213 10.9355 7.09686 10.9987C7.07159 11.0598 6.9726 11.0872 6.90521 11.0893Z" fill="#191E18"/>
<path d="M14.9948 12.6537C14.5125 13.6689 12.954 14.564 12.0652 13.9806C11.3428 13.5067 11.2733 12.4642 11.4692 11.6723L11.5682 11.2764L12.2779 11.6197C12.6549 11.8008 12.9982 12.0009 13.392 12.1483C13.8575 12.321 14.3313 12.4242 14.8326 12.4326C14.9021 12.4326 14.9505 12.441 14.9863 12.4916C15.0137 12.5274 15.02 12.5948 14.9926 12.6537M14.7294 12.6853C13.9775 12.6327 13.2994 12.4052 12.657 12.0725L11.7114 11.5796C11.6082 12.1104 11.5408 12.6495 11.7114 13.1402C11.8125 13.4246 11.9957 13.6794 12.2737 13.8205C13.0719 14.227 14.2745 13.4372 14.7273 12.6853" fill="#191E18"/>
<path d="M14.7033 9.26887C14.7539 9.44157 14.6865 9.64586 14.5096 9.6964C14.3432 9.74484 14.0546 9.44578 14.0841 9.18884C14.0968 9.07721 14.1684 8.92979 14.2989 8.88345C14.4295 8.83501 14.6465 9.06668 14.7033 9.26887Z" fill="#191E18"/>
<path d="M11.3337 10.6928C10.8135 10.657 10.3417 10.221 10.0489 9.81033C9.75831 9.40596 9.56244 8.95526 9.45503 8.47086C9.35183 8.00331 9.35815 7.39044 9.86783 7.33147C10.5586 7.25144 11.222 7.95276 11.5653 8.52772C11.7801 8.88997 11.9255 9.27328 11.9571 9.70081C11.9739 9.91774 11.9718 10.1347 11.896 10.3326C11.8075 10.5601 11.599 10.7117 11.3337 10.6928ZM11.5274 9.47546C11.4642 9.32172 11.3463 9.17008 11.1904 9.10479C11.0725 9.05635 10.9504 9.15744 10.8998 9.26485C10.7882 9.49652 10.8956 9.75557 11.1041 9.89668C11.1841 9.94933 11.2621 9.97671 11.3652 9.94091C11.5148 9.89036 11.5927 9.63552 11.5253 9.47546" fill="#FCFAF5"/>
<path d="M14.7295 12.6858C14.2767 13.4376 13.0741 14.2295 12.2759 13.8209C11.9979 13.6777 11.8146 13.4229 11.7136 13.1407C11.543 12.65 11.6104 12.1108 11.7136 11.5801L12.6592 12.0729C13.2994 12.4078 13.9797 12.6331 14.7316 12.6858" fill="#FCFAF5"/>
<path d="M11.5281 9.47597C11.5955 9.63814 11.5155 9.89298 11.3681 9.94142C11.2649 9.97722 11.1869 9.94984 11.1069 9.89719C10.8963 9.75608 10.791 9.49703 10.9026 9.26536C10.9532 9.16006 11.0732 9.05897 11.1933 9.1053C11.3512 9.16849 11.467 9.32223 11.5302 9.47597" fill="#191E18"/>
</svg>
