<svg width="39" height="26" viewBox="0 0 39 26" fill="none" xmlns="http://www.w3.org/2000/svg">
<path d="M14.2336 23.3339C11.8781 18.9174 5.62442 18.7061 2.97446 22.9547C2.89762 23.0786 2.82504 23.2051 2.75684 23.3339H14.2336Z" fill="#6666FF"/>
<path d="M7.90727 17.5121C11.4133 17.5121 13.604 13.718 11.8518 10.6824C11.4517 9.99065 10.8768 9.4162 10.1848 9.01656C9.49284 8.61692 8.70798 8.40612 7.90887 8.40527C4.4044 8.40527 2.21211 12.201 3.96594 15.235C4.36606 15.9267 4.9409 16.5012 5.6329 16.9008C6.3249 17.3004 7.10976 17.5112 7.90887 17.5121" fill="#FFDDA1"/>
<path d="M7.90727 17.5121C11.4133 17.5121 13.604 13.718 11.8518 10.6824C11.4517 9.99065 10.8768 9.4162 10.1848 9.01656C9.49284 8.61692 8.70798 8.40612 7.90887 8.40527C4.4044 8.40527 2.21211 12.201 3.96594 15.235C4.36606 15.9267 4.9409 16.5012 5.6329 16.9008C6.3249 17.3004 7.10976 17.5112 7.90887 17.5121" stroke="#191919" stroke-linecap="round" stroke-linejoin="round"/>
<path d="M7.73837 19.771C5.33805 19.771 3.12975 21.096 2 23.2147M10.4203 20.3471C9.57818 19.9661 8.66428 19.7697 7.73997 19.771" stroke="#191919" stroke-linecap="round" stroke-linejoin="round"/>
<path d="M9.03109 13.6622C10.052 13.6622 11.065 13.4542 12.0027 13.0494C11.5546 9.59609 7.53649 7.92227 4.76972 10.0377C4.29595 10.3985 3.89882 10.85 3.60156 11.3659C4.30622 12.0929 5.14985 12.6709 6.08231 13.0654C7.01477 13.4598 8.01862 13.6628 9.03109 13.6622Z" fill="#C09963" stroke="#191919" stroke-linecap="round" stroke-linejoin="round"/>
<path d="M25.5233 23.3325C27.8788 18.9159 34.1324 18.7047 36.7824 22.9532C36.8592 23.0771 36.9318 23.2036 37 23.3325H25.5233Z" fill="#66FF7A"/>
<path d="M11.7489 23.3338C11.7489 17.4434 18.1258 13.7613 23.2272 16.7073C24.3901 17.3787 25.3558 18.3444 26.0271 19.5074C26.6985 20.6703 27.0519 21.9894 27.0518 23.3322" fill="#66E1FF"/>
<path d="M11.7489 23.3338C11.7489 17.4434 18.1258 13.7613 23.2272 16.7073C24.3901 17.3787 25.3558 18.3444 26.0271 19.5074C26.6985 20.6703 27.0519 21.9894 27.0518 23.3322" stroke="#191919" stroke-linecap="round" stroke-linejoin="round"/>
<path d="M14.0498 8.0244C14.0498 12.1466 18.5144 14.7245 22.0844 12.6618C22.8983 12.1915 23.5743 11.5155 24.0444 10.7016C24.5146 9.88765 24.7625 8.96438 24.7632 8.0244C24.7665 6.86185 24.3838 5.7311 23.6751 4.80957C22.0948 6.33688 19.9963 7.2113 17.7991 7.2579C16.5859 7.2737 15.3792 7.07711 14.2338 6.67702C14.1122 7.11761 14.0508 7.56674 14.0498 8.0244ZM31.2617 17.9393C27.7556 17.9393 25.5649 14.1452 27.3171 11.1096C27.7173 10.4179 28.2921 9.84344 28.9841 9.4438C29.6761 9.04416 30.461 8.83335 31.2601 8.83251C34.7645 8.83251 36.9568 12.6282 35.203 15.6622C34.8029 16.3539 34.228 16.9284 33.536 17.328C32.844 17.7277 32.0592 17.9385 31.2601 17.9393" fill="#FFDDA1"/>
<path d="M31.2617 17.9393C27.7556 17.9393 25.5649 14.1452 27.3171 11.1096C27.7173 10.4179 28.2921 9.84344 28.9841 9.4438C29.6761 9.04416 30.461 8.83335 31.2601 8.83251C34.7645 8.83251 36.9568 12.6282 35.203 15.6622C34.8029 16.3539 34.228 16.9284 33.536 17.328C32.844 17.7277 32.0592 17.9385 31.2601 17.9393M14.0498 8.0244C14.0498 12.1466 18.5144 14.7245 22.0844 12.6618C22.8983 12.1915 23.5743 11.5155 24.0444 10.7016C24.5146 9.88765 24.7625 8.96438 24.7632 8.0244C24.7665 6.86185 24.3838 5.7311 23.6751 4.80957C22.0948 6.33688 19.9963 7.2113 17.7991 7.2579C16.5859 7.2737 15.3792 7.07711 14.2338 6.67702C14.1122 7.11761 14.0508 7.56674 14.0498 8.0244Z" stroke="#191919" stroke-linecap="round" stroke-linejoin="round"/>
<path d="M19.4014 20.4165V22.5688" stroke="#191919" stroke-linecap="round" stroke-linejoin="round"/>
<path d="M14.2355 6.67752C15.3808 7.07815 16.5875 7.27528 17.8008 7.25999C19.998 7.21339 22.0965 6.33898 23.6768 4.81167C21.222 1.52003 16.1253 2.12011 14.5027 5.89021C14.3918 6.14625 14.3022 6.40868 14.2339 6.67752" fill="#C38570"/>
<path d="M14.2355 6.67752C15.3808 7.07815 16.5875 7.27528 17.8008 7.26C19.998 7.21339 22.0965 6.33898 23.6768 4.81167C21.222 1.52003 16.1253 2.12011 14.5027 5.89021C14.3918 6.14625 14.3022 6.40868 14.2339 6.67752" stroke="#191919" stroke-linecap="round" stroke-linejoin="round"/>
<path d="M31.2616 19.8906C33.662 19.8906 35.8702 21.2156 37 23.3343L31.2616 19.8906Z" fill="#66E1FF"/>
<path d="M31.2616 19.8906C33.662 19.8906 35.8702 21.2156 37 23.3343M28.5797 20.4667C29.4218 20.0857 30.3357 19.8893 31.26 19.8906" stroke="#191919" stroke-linecap="round" stroke-linejoin="round"/>
<path d="M29.7423 13.3854C28.7214 13.3854 27.7085 13.1774 26.7708 12.7725C27.2188 9.31924 31.2369 7.64541 34.0037 9.76089C34.4775 10.1216 34.8746 10.5731 35.1719 11.0891C34.4672 11.8161 33.6236 12.394 32.6911 12.7885C31.7587 13.183 30.7548 13.386 29.7423 13.3854Z" fill="#BEB372" stroke="#191919" stroke-linecap="round" stroke-linejoin="round"/>
</svg>
