<svg width="24" height="24" viewBox="0 0 24 24" fill="none" xmlns="http://www.w3.org/2000/svg">
<g clip-path="url(#clip0_358_5395)">
<path d="M15.2487 9.1183C16.3428 8.10964 18.3881 8.79135 18.3062 10.1617C18.221 11.5877 19.3002 11.974 19.9313 12.7765C20.2223 13.1465 20.5324 13.0722 20.8766 12.8065C21.897 12.0187 22.8832 11.1989 23.6025 10.1106C23.7993 9.81285 24.147 9.43349 23.8162 9.12781C23.0784 8.44592 22.6667 7.40431 21.3819 7.31441C20.0869 7.2238 19.3479 6.31203 19.2736 5.00492C19.2432 4.47111 19.1349 4.06011 18.7669 3.65305C15.9325 0.518377 10.6514 -0.411061 7.00526 1.60972C6.73207 1.76113 6.32008 1.86233 6.38862 2.24577C6.46455 2.67031 6.81035 2.94575 7.25726 2.99525C7.57366 3.03031 7.89705 3.00205 8.2173 3.00205C9.84607 2.91702 11.6529 3.44136 12.6229 4.24466C13.6593 5.10303 13.7472 5.97224 12.8367 6.9252L11.224 8.49397L13.6916 10.721L15.2487 9.1183Z" fill="#AAB8B9"/>
<path d="M0.458547 19.745L2.41173 21.6981C2.8188 22.1052 3.4788 22.1052 3.88586 21.6981L13.6146 11.9694C14.0217 11.5624 14.0217 10.9024 13.6146 10.4953L11.6614 8.54211C11.2544 8.13505 10.5944 8.13505 10.1873 8.54211L0.458547 18.2709C0.0514846 18.6779 0.0514846 19.3379 0.458547 19.745Z" fill="#8E6049"/>
<path d="M22.3442 10.0961C22.4226 10.0962 22.5003 10.0808 22.5728 10.0508C22.6453 10.0208 22.7111 9.97671 22.7665 9.92116C22.9997 9.68791 22.9997 9.30977 22.7665 9.07652L22.0776 8.3877C21.8444 8.15445 21.4663 8.15445 21.233 8.3877C20.9998 8.62095 20.9998 8.99909 21.233 9.23234L21.9219 9.92116C21.9773 9.97671 22.0431 10.0208 22.1156 10.0508C22.188 10.0808 22.2657 10.0962 22.3442 10.0961ZM17.582 4.93624L16.4631 3.81743C16.2299 3.58418 16.2299 3.20604 16.4631 2.97279C16.6964 2.73954 17.0745 2.73954 17.3078 2.97279L18.4266 4.0916C18.6598 4.32485 18.6598 4.70299 18.4266 4.93624C18.31 5.05287 18.1571 5.11118 18.0043 5.11118C17.8515 5.11118 17.6986 5.05287 17.582 4.93624Z" fill="#D3E2E2"/>
<path d="M18.636 9.08526C18.7145 9.08536 18.7922 9.06996 18.8647 9.03994C18.9371 9.00991 19.003 8.96586 19.0583 8.91032L19.7352 8.23345C19.9685 8.0002 19.9685 7.62205 19.7352 7.3888C19.502 7.15555 19.1238 7.15555 18.8906 7.3888L18.2137 8.06568C17.9805 8.29893 17.9805 8.67707 18.2137 8.91032C18.2691 8.96587 18.3349 9.00992 18.4074 9.03994C18.4799 9.06997 18.5576 9.08537 18.636 9.08526Z" fill="#909999"/>
</g>
<defs>
<clipPath id="clip0_358_5395">
<rect width="24" height="24" fill="white" transform="matrix(-1 0 0 1 24 0)"/>
</clipPath>
</defs>
</svg>
