<svg width="23" height="29" viewBox="0 0 23 29" fill="none" xmlns="http://www.w3.org/2000/svg">
<path d="M11.1802 0C5.01244 0 0 5.01245 0 11.1802C0 14.9442 2.18013 18.0932 4.71431 20.292C5.51555 20.9815 6.91307 22.0808 8.16153 23.702C9.54042 25.5094 10.7889 27.4473 11.1802 28.7517C11.5715 27.4473 12.8199 25.5094 14.1988 23.702C15.4473 22.0808 16.8448 20.9815 17.646 20.292C20.1802 18.0932 22.3603 14.9442 22.3603 11.1802C22.3603 5.01245 17.3479 0 11.1802 0ZM11.1802 4.77021C12.0219 4.77021 12.8555 4.93601 13.6332 5.25814C14.4109 5.58027 15.1175 6.05242 15.7127 6.64764C16.3079 7.24286 16.7801 7.94949 17.1022 8.72719C17.4243 9.50488 17.5901 10.3384 17.5901 11.1802C17.5901 12.0219 17.4243 12.8555 17.1022 13.6332C16.7801 14.4109 16.3079 15.1175 15.7127 15.7127C15.1175 16.3079 14.4109 16.7801 13.6332 17.1022C12.8555 17.4243 12.0219 17.5901 11.1802 17.5901C9.48015 17.5901 7.84974 16.9148 6.64764 15.7127C5.44554 14.5106 4.77021 12.8802 4.77021 11.1802C4.77021 9.48015 5.44554 7.84975 6.64764 6.64764C7.84974 5.44554 9.48015 4.77021 11.1802 4.77021Z" fill="#0E5E42"/>
<path d="M11.1799 1.90918C12.0271 1.90918 12.8411 2.016 13.622 2.22963C14.4028 2.44326 15.1358 2.75266 15.8209 3.15783C16.506 3.563 17.1248 4.04183 17.6773 4.59433C18.2298 5.14683 18.7087 5.76563 19.1138 6.45073C19.519 7.13583 19.8284 7.86882 20.042 8.64968C20.2557 9.43055 20.3662 10.2482 20.3735 11.1028C20.3735 11.95 20.2667 12.764 20.0531 13.5448C19.8395 14.3257 19.5301 15.0587 19.1249 15.7438C18.7197 16.4289 18.2409 17.0477 17.6884 17.6002C17.1359 18.1527 16.5171 18.6315 15.832 19.0367C15.1469 19.4419 14.4139 19.7513 13.633 19.9649C12.8522 20.1785 12.0345 20.289 11.1799 20.2964C10.3328 20.2964 9.51875 20.1896 8.73788 19.9759C7.95701 19.7623 7.22403 19.4529 6.53893 19.0477C5.85383 18.6426 5.23503 18.1637 4.68253 17.6112C4.13003 17.0587 3.6512 16.4399 3.24603 15.7548C2.84086 15.0697 2.53146 14.3368 2.31783 13.5559C2.10419 12.775 1.99369 11.9573 1.98633 11.1028C1.98633 10.2556 2.09314 9.4416 2.30678 8.66073C2.52041 7.87987 2.82981 7.14688 3.23498 6.46178C3.64015 5.77668 4.11898 5.15788 4.67148 4.60538C5.22398 4.05288 5.84278 3.57405 6.52788 3.16888C7.21298 2.76371 7.94596 2.45431 8.72683 2.24068C9.5077 2.02705 10.3254 1.91655 11.1799 1.90918Z" fill="white"/>
<path d="M11.4962 5.35454C12.3336 5.35454 13.0322 5.53854 13.5922 5.90654C14.1522 6.27454 14.5709 6.79454 14.8482 7.46654C15.1309 8.13321 15.2722 8.91987 15.2722 9.82654C15.2722 10.9199 15.1496 11.8612 14.9042 12.6505C14.6642 13.4345 14.2909 14.1012 13.7842 14.6505C13.2829 15.1999 12.6402 15.6612 11.8562 16.0345C11.0776 16.4079 10.1469 16.7279 9.06422 16.9945L8.67222 15.6825C9.68022 15.4105 10.5229 15.0852 11.2002 14.7065C11.8776 14.3225 12.3976 13.8452 12.7602 13.2745C13.1282 12.6985 13.3416 11.9972 13.4002 11.1705L13.4162 10.3705C13.4216 9.50121 13.3629 8.79721 13.2402 8.25854C13.1176 7.71987 12.9149 7.32787 12.6322 7.08254C12.3496 6.83721 11.9682 6.71454 11.4882 6.71454C10.8749 6.71454 10.4029 6.91454 10.0722 7.31454C9.74155 7.71454 9.57622 8.31454 9.57622 9.11454C9.57622 9.89321 9.73622 10.4532 10.0562 10.7945C10.3816 11.1359 10.8109 11.3065 11.3442 11.3065C11.8242 11.3065 12.2456 11.1812 12.6082 10.9305C12.9709 10.6745 13.3202 10.3252 13.6562 9.88254L13.6402 11.1545C13.2882 11.5972 12.8909 11.9572 12.4482 12.2345C12.0109 12.5065 11.4936 12.6425 10.8962 12.6425C10.2936 12.6425 9.75489 12.5012 9.28022 12.2185C8.80555 11.9305 8.43222 11.5225 8.16022 10.9945C7.88822 10.4612 7.75222 9.83454 7.75222 9.11454C7.75222 8.31987 7.91755 7.64254 8.24822 7.08254C8.58422 6.52254 9.03489 6.09587 9.60022 5.80254C10.1656 5.50387 10.7976 5.35454 11.4962 5.35454Z" fill="#0E5E42"/>
</svg>
