<svg width="23" height="29" viewBox="0 0 23 29" fill="none" xmlns="http://www.w3.org/2000/svg">
<path d="M11.1802 0C5.01244 0 0 5.01245 0 11.1802C0 14.9442 2.18013 18.0932 4.71431 20.292C5.51555 20.9815 6.91307 22.0808 8.16153 23.702C9.54042 25.5094 10.7889 27.4473 11.1802 28.7517C11.5715 27.4473 12.8199 25.5094 14.1988 23.702C15.4473 22.0808 16.8448 20.9815 17.646 20.292C20.1802 18.0932 22.3603 14.9442 22.3603 11.1802C22.3603 5.01245 17.3479 0 11.1802 0ZM11.1802 4.77021C12.0219 4.77021 12.8555 4.93601 13.6332 5.25814C14.4109 5.58027 15.1175 6.05242 15.7127 6.64764C16.3079 7.24286 16.7801 7.94949 17.1022 8.72719C17.4243 9.50488 17.5901 10.3384 17.5901 11.1802C17.5901 12.0219 17.4243 12.8555 17.1022 13.6332C16.7801 14.4109 16.3079 15.1175 15.7127 15.7127C15.1175 16.3079 14.4109 16.7801 13.6332 17.1022C12.8555 17.4243 12.0219 17.5901 11.1802 17.5901C9.48015 17.5901 7.84974 16.9148 6.64764 15.7127C5.44554 14.5106 4.77021 12.8802 4.77021 11.1802C4.77021 9.48015 5.44554 7.84975 6.64764 6.64764C7.84974 5.44554 9.48015 4.77021 11.1802 4.77021Z" fill="#0E5E42"/>
<path d="M11.1799 1.90918C12.0271 1.90918 12.8411 2.016 13.622 2.22963C14.4028 2.44326 15.1358 2.75266 15.8209 3.15783C16.506 3.563 17.1248 4.04183 17.6773 4.59433C18.2298 5.14683 18.7087 5.76563 19.1138 6.45073C19.519 7.13583 19.8284 7.86882 20.042 8.64968C20.2557 9.43055 20.3662 10.2482 20.3735 11.1028C20.3735 11.95 20.2667 12.764 20.0531 13.5448C19.8395 14.3257 19.5301 15.0587 19.1249 15.7438C18.7197 16.4289 18.2409 17.0477 17.6884 17.6002C17.1359 18.1527 16.5171 18.6315 15.832 19.0367C15.1469 19.4419 14.4139 19.7513 13.633 19.9649C12.8522 20.1785 12.0345 20.289 11.1799 20.2964C10.3328 20.2964 9.51875 20.1896 8.73788 19.9759C7.95701 19.7623 7.22403 19.4529 6.53893 19.0477C5.85383 18.6426 5.23503 18.1637 4.68253 17.6112C4.13003 17.0587 3.6512 16.4399 3.24603 15.7548C2.84086 15.0697 2.53146 14.3368 2.31783 13.5559C2.10419 12.775 1.99369 11.9573 1.98633 11.1028C1.98633 10.2556 2.09314 9.4416 2.30678 8.66073C2.52041 7.87987 2.82981 7.14688 3.23498 6.46178C3.64015 5.77668 4.11898 5.15788 4.67148 4.60538C5.22398 4.05288 5.84278 3.57405 6.52788 3.16888C7.21298 2.76371 7.94596 2.45431 8.72683 2.24068C9.5077 2.02705 10.3254 1.91655 11.1799 1.90918Z" fill="white"/>
<path d="M15.0722 8.19503C15.0722 8.72303 14.9176 9.18169 14.6082 9.57103C14.2989 9.95503 13.8402 10.315 13.2322 10.651C13.9629 10.971 14.5256 11.3844 14.9202 11.891C15.3149 12.3924 15.5122 12.971 15.5122 13.627C15.5122 14.219 15.3576 14.7577 15.0482 15.243C14.7389 15.723 14.2909 16.107 13.7042 16.395C13.1229 16.6777 12.4162 16.819 11.5842 16.819C10.7576 16.819 10.0562 16.6777 9.48022 16.395C8.90422 16.1124 8.46955 15.7337 8.17622 15.259C7.88289 14.779 7.73622 14.2484 7.73622 13.667C7.73622 13.0057 7.93089 12.443 8.32022 11.979C8.70955 11.5097 9.22955 11.1284 9.88022 10.835C9.30422 10.5257 8.87489 10.179 8.59222 9.79503C8.31489 9.40569 8.17622 8.90436 8.17622 8.29103C8.17622 7.79503 8.27489 7.36569 8.47222 7.00303C8.66955 6.63503 8.93355 6.32836 9.26422 6.08303C9.59489 5.83236 9.96555 5.64569 10.3762 5.52303C10.7869 5.40036 11.2056 5.33903 11.6322 5.33903C12.0856 5.33903 12.5176 5.40036 12.9282 5.52303C13.3389 5.64036 13.7042 5.81903 14.0242 6.05903C14.3496 6.29369 14.6056 6.58969 14.7922 6.94703C14.9789 7.30436 15.0722 7.72036 15.0722 8.19503ZM13.6802 13.635C13.6802 13.187 13.5736 12.8297 13.3602 12.563C13.1522 12.2964 12.8509 12.0724 12.4562 11.891C12.0616 11.7097 11.5896 11.523 11.0402 11.331C10.7736 11.4697 10.5282 11.643 10.3042 11.851C10.0802 12.0537 9.90155 12.299 9.76822 12.587C9.63489 12.875 9.56822 13.2164 9.56822 13.611C9.56822 14.1764 9.73889 14.627 10.0802 14.963C10.4216 15.2937 10.9309 15.459 11.6082 15.459C12.2909 15.459 12.8056 15.283 13.1522 14.931C13.5042 14.579 13.6802 14.147 13.6802 13.635ZM9.91222 8.29903C9.91222 8.66169 9.99489 8.95503 10.1602 9.17903C10.3256 9.40303 10.5656 9.59236 10.8802 9.74703C11.1949 9.89636 11.5762 10.0484 12.0242 10.203C12.4776 9.92036 12.8082 9.63769 13.0162 9.35503C13.2296 9.06703 13.3362 8.70969 13.3362 8.28303C13.3362 7.78703 13.1896 7.38969 12.8962 7.09103C12.6029 6.79236 12.1816 6.64303 11.6322 6.64303C11.0882 6.64303 10.6642 6.78703 10.3602 7.07503C10.0616 7.36303 9.91222 7.77103 9.91222 8.29903Z" fill="#0E5E42"/>
</svg>
