<svg width="23" height="29" viewBox="0 0 23 29" fill="none" xmlns="http://www.w3.org/2000/svg">
<path d="M11.1802 0C5.01244 0 0 5.01245 0 11.1802C0 14.9442 2.18013 18.0932 4.71431 20.292C5.51555 20.9815 6.91307 22.0808 8.16153 23.702C9.54042 25.5094 10.7889 27.4473 11.1802 28.7517C11.5715 27.4473 12.8199 25.5094 14.1988 23.702C15.4473 22.0808 16.8448 20.9815 17.646 20.292C20.1802 18.0932 22.3603 14.9442 22.3603 11.1802C22.3603 5.01245 17.3479 0 11.1802 0ZM11.1802 4.77021C12.0219 4.77021 12.8555 4.93601 13.6332 5.25814C14.4109 5.58027 15.1175 6.05242 15.7127 6.64764C16.3079 7.24286 16.7801 7.94949 17.1022 8.72719C17.4243 9.50488 17.5901 10.3384 17.5901 11.1802C17.5901 12.0219 17.4243 12.8555 17.1022 13.6332C16.7801 14.4109 16.3079 15.1175 15.7127 15.7127C15.1175 16.3079 14.4109 16.7801 13.6332 17.1022C12.8555 17.4243 12.0219 17.5901 11.1802 17.5901C9.48015 17.5901 7.84974 16.9148 6.64764 15.7127C5.44554 14.5106 4.77021 12.8802 4.77021 11.1802C4.77021 9.48015 5.44554 7.84975 6.64764 6.64764C7.84974 5.44554 9.48015 4.77021 11.1802 4.77021Z" fill="#0E5E42"/>
<path d="M11.1799 1.90918C12.0271 1.90918 12.8411 2.016 13.622 2.22963C14.4028 2.44326 15.1358 2.75266 15.8209 3.15783C16.506 3.563 17.1248 4.04183 17.6773 4.59433C18.2298 5.14683 18.7087 5.76563 19.1138 6.45073C19.519 7.13583 19.8284 7.86882 20.042 8.64968C20.2557 9.43055 20.3662 10.2482 20.3735 11.1028C20.3735 11.95 20.2667 12.764 20.0531 13.5448C19.8395 14.3257 19.5301 15.0587 19.1249 15.7438C18.7197 16.4289 18.2409 17.0477 17.6884 17.6002C17.1359 18.1527 16.5171 18.6315 15.832 19.0367C15.1469 19.4419 14.4139 19.7513 13.633 19.9649C12.8522 20.1785 12.0345 20.289 11.1799 20.2964C10.3328 20.2964 9.51875 20.1896 8.73788 19.9759C7.95701 19.7623 7.22403 19.4529 6.53893 19.0477C5.85383 18.6426 5.23503 18.1637 4.68253 17.6112C4.13003 17.0587 3.6512 16.4399 3.24603 15.7548C2.84086 15.0697 2.53146 14.3368 2.31783 13.5559C2.10419 12.775 1.99369 11.9573 1.98633 11.1028C1.98633 10.2556 2.09314 9.4416 2.30678 8.66073C2.52041 7.87987 2.82981 7.14688 3.23498 6.46178C3.64015 5.77668 4.11898 5.15788 4.67148 4.60538C5.22398 4.05288 5.84278 3.57405 6.52788 3.16888C7.21298 2.76371 7.94596 2.45431 8.72683 2.24068C9.5077 2.02705 10.3254 1.91655 11.1799 1.90918Z" fill="white"/>
<path d="M12.2802 5.33854C12.7336 5.33854 13.1469 5.39987 13.5202 5.52254C13.8989 5.63987 14.2429 5.80254 14.5522 6.01054L13.8562 7.16254C13.6216 7.00787 13.3709 6.89321 13.1042 6.81854C12.8376 6.73854 12.5656 6.69854 12.2882 6.69854C11.7602 6.69854 11.3042 6.87187 10.9202 7.21854C10.5416 7.56521 10.2509 8.05854 10.0482 8.69854C9.84555 9.33854 9.74422 10.1012 9.74422 10.9865L9.76022 11.6025C9.76022 12.9199 9.90955 13.8932 10.2082 14.5225C10.5122 15.1465 11.0296 15.4585 11.7602 15.4585C12.3736 15.4585 12.8296 15.2292 13.1282 14.7705C13.4322 14.3065 13.5842 13.7012 13.5842 12.9545C13.5842 12.3839 13.5149 11.9332 13.3762 11.6025C13.2376 11.2719 13.0429 11.0345 12.7922 10.8905C12.5416 10.7465 12.2456 10.6745 11.9042 10.6745C11.4189 10.6745 10.9789 10.8159 10.5842 11.0985C10.1896 11.3812 9.86422 11.7545 9.60822 12.2185L9.57622 10.8745C9.93355 10.3305 10.3416 9.93854 10.8002 9.69854C11.2589 9.45321 11.7522 9.33054 12.2802 9.33054C12.8509 9.33054 13.3709 9.46387 13.8402 9.73054C14.3149 9.99187 14.6936 10.3865 14.9762 10.9145C15.2589 11.4372 15.4002 12.0905 15.4002 12.8745C15.4002 13.6585 15.2402 14.3465 14.9202 14.9385C14.6056 15.5305 14.1736 15.9919 13.6242 16.3225C13.0749 16.6532 12.4509 16.8185 11.7522 16.8185C11.0589 16.8185 10.4669 16.6879 9.97622 16.4265C9.49089 16.1652 9.09622 15.7945 8.79222 15.3145C8.48822 14.8345 8.26422 14.2692 8.12022 13.6185C7.98155 12.9625 7.91222 12.2452 7.91222 11.4665C7.91222 10.2345 8.08555 9.15987 8.43222 8.24254C8.78422 7.32521 9.28555 6.61321 9.93622 6.10654C10.5869 5.59454 11.3682 5.33854 12.2802 5.33854Z" fill="#0E5E42"/>
</svg>
