<svg width="23" height="29" viewBox="0 0 23 29" fill="none" xmlns="http://www.w3.org/2000/svg">
<path d="M11.1802 0C5.01244 0 0 5.01245 0 11.1802C0 14.9442 2.18013 18.0932 4.71431 20.292C5.51555 20.9815 6.91307 22.0808 8.16153 23.702C9.54042 25.5094 10.7889 27.4473 11.1802 28.7517C11.5715 27.4473 12.8199 25.5094 14.1988 23.702C15.4473 22.0808 16.8448 20.9815 17.646 20.292C20.1802 18.0932 22.3603 14.9442 22.3603 11.1802C22.3603 5.01245 17.3479 0 11.1802 0ZM11.1802 4.77021C12.0219 4.77021 12.8555 4.93601 13.6332 5.25814C14.4109 5.58027 15.1175 6.05242 15.7127 6.64764C16.3079 7.24286 16.7801 7.94949 17.1022 8.72719C17.4243 9.50488 17.5901 10.3384 17.5901 11.1802C17.5901 12.0219 17.4243 12.8555 17.1022 13.6332C16.7801 14.4109 16.3079 15.1175 15.7127 15.7127C15.1175 16.3079 14.4109 16.7801 13.6332 17.1022C12.8555 17.4243 12.0219 17.5901 11.1802 17.5901C9.48015 17.5901 7.84974 16.9148 6.64764 15.7127C5.44554 14.5106 4.77021 12.8802 4.77021 11.1802C4.77021 9.48015 5.44554 7.84975 6.64764 6.64764C7.84974 5.44554 9.48015 4.77021 11.1802 4.77021Z" fill="#0E5E42"/>
<path d="M11.1799 1.90918C12.0271 1.90918 12.8411 2.016 13.622 2.22963C14.4028 2.44326 15.1358 2.75266 15.8209 3.15783C16.506 3.563 17.1248 4.04183 17.6773 4.59433C18.2298 5.14683 18.7087 5.76563 19.1138 6.45073C19.519 7.13583 19.8284 7.86882 20.042 8.64968C20.2557 9.43055 20.3662 10.2482 20.3735 11.1028C20.3735 11.95 20.2667 12.764 20.0531 13.5448C19.8395 14.3257 19.5301 15.0587 19.1249 15.7438C18.7197 16.4289 18.2409 17.0477 17.6884 17.6002C17.1359 18.1527 16.5171 18.6315 15.832 19.0367C15.1469 19.4419 14.4139 19.7513 13.633 19.9649C12.8522 20.1785 12.0345 20.289 11.1799 20.2964C10.3328 20.2964 9.51875 20.1896 8.73788 19.9759C7.95701 19.7623 7.22403 19.4529 6.53893 19.0477C5.85383 18.6426 5.23503 18.1637 4.68253 17.6112C4.13003 17.0587 3.6512 16.4399 3.24603 15.7548C2.84086 15.0697 2.53146 14.3368 2.31783 13.5559C2.10419 12.775 1.99369 11.9573 1.98633 11.1028C1.98633 10.2556 2.09314 9.4416 2.30678 8.66073C2.52041 7.87987 2.82981 7.14688 3.23498 6.46178C3.64015 5.77668 4.11898 5.15788 4.67148 4.60538C5.22398 4.05288 5.84278 3.57405 6.52788 3.16888C7.21298 2.76371 7.94596 2.45431 8.72683 2.24068C9.5077 2.02705 10.3254 1.91655 11.1799 1.90918Z" fill="white"/>
<path d="M11.0415 5.33854C11.7935 5.33854 12.4281 5.47987 12.9455 5.76254C13.4681 6.03987 13.8655 6.41321 14.1375 6.88254C14.4148 7.35187 14.5535 7.87721 14.5535 8.45854C14.5535 8.93854 14.4681 9.41054 14.2975 9.87454C14.1321 10.3385 13.8628 10.8265 13.4895 11.3385C13.1215 11.8452 12.6335 12.4105 12.0255 13.0345C11.4175 13.6532 10.6735 14.3625 9.79345 15.1625H14.8095L14.6015 16.6025H7.73745V15.2425C8.53212 14.4852 9.21212 13.8185 9.77745 13.2425C10.3428 12.6612 10.8148 12.1519 11.1935 11.7145C11.5721 11.2719 11.8708 10.8745 12.0895 10.5225C12.3081 10.1652 12.4628 9.83187 12.5535 9.52254C12.6495 9.20787 12.6975 8.89054 12.6975 8.57054C12.6975 8.01587 12.5401 7.57854 12.2255 7.25854C11.9108 6.93854 11.4735 6.77854 10.9135 6.77854C10.4121 6.77854 9.99612 6.86921 9.66545 7.05054C9.33479 7.23187 9.00679 7.5252 8.68145 7.93054L7.51345 7.04254C7.94545 6.49321 8.44145 6.07187 9.00145 5.77854C9.56145 5.48521 10.2415 5.33854 11.0415 5.33854Z" fill="#0E5E42"/>
</svg>
