<svg width="23" height="29" viewBox="0 0 23 29" fill="none" xmlns="http://www.w3.org/2000/svg">
<path d="M11.1802 0C5.01244 0 0 5.01245 0 11.1802C0 14.9442 2.18013 18.0932 4.71431 20.292C5.51555 20.9815 6.91307 22.0808 8.16153 23.702C9.54042 25.5094 10.7889 27.4473 11.1802 28.7517C11.5715 27.4473 12.8199 25.5094 14.1988 23.702C15.4473 22.0808 16.8448 20.9815 17.646 20.292C20.1802 18.0932 22.3603 14.9442 22.3603 11.1802C22.3603 5.01245 17.3479 0 11.1802 0ZM11.1802 4.77021C12.0219 4.77021 12.8555 4.93601 13.6332 5.25814C14.4109 5.58027 15.1175 6.05242 15.7127 6.64764C16.3079 7.24286 16.7801 7.94949 17.1022 8.72719C17.4243 9.50488 17.5901 10.3384 17.5901 11.1802C17.5901 12.0219 17.4243 12.8555 17.1022 13.6332C16.7801 14.4109 16.3079 15.1175 15.7127 15.7127C15.1175 16.3079 14.4109 16.7801 13.6332 17.1022C12.8555 17.4243 12.0219 17.5901 11.1802 17.5901C9.48015 17.5901 7.84974 16.9148 6.64764 15.7127C5.44554 14.5106 4.77021 12.8802 4.77021 11.1802C4.77021 9.48015 5.44554 7.84975 6.64764 6.64764C7.84974 5.44554 9.48015 4.77021 11.1802 4.77021Z" fill="#0E5E42"/>
<path d="M11.1799 1.90918C12.0271 1.90918 12.8411 2.016 13.622 2.22963C14.4028 2.44326 15.1358 2.75266 15.8209 3.15783C16.506 3.563 17.1248 4.04183 17.6773 4.59433C18.2298 5.14683 18.7087 5.76563 19.1138 6.45073C19.519 7.13583 19.8284 7.86882 20.042 8.64968C20.2557 9.43055 20.3662 10.2482 20.3735 11.1028C20.3735 11.95 20.2667 12.764 20.0531 13.5448C19.8395 14.3257 19.5301 15.0587 19.1249 15.7438C18.7197 16.4289 18.2409 17.0477 17.6884 17.6002C17.1359 18.1527 16.5171 18.6315 15.832 19.0367C15.1469 19.4419 14.4139 19.7513 13.633 19.9649C12.8522 20.1785 12.0345 20.289 11.1799 20.2964C10.3328 20.2964 9.51875 20.1896 8.73788 19.9759C7.95701 19.7623 7.22403 19.4529 6.53893 19.0477C5.85383 18.6426 5.23503 18.1637 4.68253 17.6112C4.13003 17.0587 3.6512 16.4399 3.24603 15.7548C2.84086 15.0697 2.53146 14.3368 2.31783 13.5559C2.10419 12.775 1.99369 11.9573 1.98633 11.1028C1.98633 10.2556 2.09314 9.4416 2.30678 8.66073C2.52041 7.87987 2.82981 7.14688 3.23498 6.46178C3.64015 5.77668 4.11898 5.15788 4.67148 4.60538C5.22398 4.05288 5.84278 3.57405 6.52788 3.16888C7.21298 2.76371 7.94596 2.45431 8.72683 2.24068C9.5077 2.02705 10.3254 1.91655 11.1799 1.90918Z" fill="white"/>
<path d="M14.7842 5.56254L14.5522 6.90654H10.3122V9.97854C10.6269 9.81321 10.9309 9.70121 11.2242 9.64254C11.5229 9.57854 11.8216 9.54654 12.1202 9.54654C12.7069 9.54654 13.2296 9.68521 13.6882 9.96254C14.1469 10.2399 14.5069 10.6399 14.7682 11.1625C15.0349 11.6852 15.1682 12.3172 15.1682 13.0585C15.1682 13.7945 15.0029 14.4479 14.6722 15.0185C14.3469 15.5839 13.8882 16.0265 13.2962 16.3465C12.7042 16.6612 12.0082 16.8185 11.2082 16.8185C10.4882 16.8185 9.84822 16.6905 9.28822 16.4345C8.73355 16.1732 8.24555 15.8185 7.82422 15.3705L8.89622 14.3625C9.20555 14.7039 9.54422 14.9625 9.91222 15.1385C10.2856 15.3092 10.6936 15.3945 11.1362 15.3945C11.8082 15.3945 12.3362 15.1919 12.7202 14.7865C13.1096 14.3759 13.3042 13.7972 13.3042 13.0505C13.3042 12.5065 13.2242 12.0772 13.0642 11.7625C12.9096 11.4425 12.6962 11.2132 12.4242 11.0745C12.1522 10.9359 11.8456 10.8665 11.5042 10.8665C11.2269 10.8665 10.9656 10.8959 10.7202 10.9545C10.4802 11.0132 10.2136 11.1065 9.92022 11.2345H8.60022V5.56254H14.7842Z" fill="#0E5E42"/>
</svg>
