<svg width="23" height="29" viewBox="0 0 23 29" fill="none" xmlns="http://www.w3.org/2000/svg">
<path d="M11.1802 0C5.01244 0 0 5.01245 0 11.1802C0 14.9442 2.18013 18.0932 4.71431 20.292C5.51555 20.9815 6.91307 22.0808 8.16153 23.702C9.54042 25.5094 10.7889 27.4473 11.1802 28.7517C11.5715 27.4473 12.8199 25.5094 14.1988 23.702C15.4473 22.0808 16.8448 20.9815 17.646 20.292C20.1802 18.0932 22.3603 14.9442 22.3603 11.1802C22.3603 5.01245 17.3479 0 11.1802 0ZM11.1802 4.77021C12.0219 4.77021 12.8555 4.93601 13.6332 5.25814C14.4109 5.58027 15.1175 6.05242 15.7127 6.64764C16.3079 7.24286 16.7801 7.94949 17.1022 8.72719C17.4243 9.50488 17.5901 10.3384 17.5901 11.1802C17.5901 12.0219 17.4243 12.8555 17.1022 13.6332C16.7801 14.4109 16.3079 15.1175 15.7127 15.7127C15.1175 16.3079 14.4109 16.7801 13.6332 17.1022C12.8555 17.4243 12.0219 17.5901 11.1802 17.5901C9.48015 17.5901 7.84974 16.9148 6.64764 15.7127C5.44554 14.5106 4.77021 12.8802 4.77021 11.1802C4.77021 9.48015 5.44554 7.84975 6.64764 6.64764C7.84974 5.44554 9.48015 4.77021 11.1802 4.77021Z" fill="#0E5E42"/>
<path d="M11.1799 1.90918C12.0271 1.90918 12.8411 2.016 13.622 2.22963C14.4028 2.44326 15.1358 2.75266 15.8209 3.15783C16.506 3.563 17.1248 4.04183 17.6773 4.59433C18.2298 5.14683 18.7087 5.76563 19.1138 6.45073C19.519 7.13583 19.8284 7.86882 20.042 8.64968C20.2557 9.43055 20.3662 10.2482 20.3735 11.1028C20.3735 11.95 20.2667 12.764 20.0531 13.5448C19.8395 14.3257 19.5301 15.0587 19.1249 15.7438C18.7197 16.4289 18.2409 17.0477 17.6884 17.6002C17.1359 18.1527 16.5171 18.6315 15.832 19.0367C15.1469 19.4419 14.4139 19.7513 13.633 19.9649C12.8522 20.1785 12.0345 20.289 11.1799 20.2964C10.3328 20.2964 9.51875 20.1896 8.73788 19.9759C7.95701 19.7623 7.22403 19.4529 6.53893 19.0477C5.85383 18.6426 5.23503 18.1637 4.68253 17.6112C4.13003 17.0587 3.6512 16.4399 3.24603 15.7548C2.84086 15.0697 2.53146 14.3368 2.31783 13.5559C2.10419 12.775 1.99369 11.9573 1.98633 11.1028C1.98633 10.2556 2.09314 9.4416 2.30678 8.66073C2.52041 7.87987 2.82981 7.14688 3.23498 6.46178C3.64015 5.77668 4.11898 5.15788 4.67148 4.60538C5.22398 4.05288 5.84278 3.57405 6.52788 3.16888C7.21298 2.76371 7.94596 2.45431 8.72683 2.24068C9.5077 2.02705 10.3254 1.91655 11.1799 1.90918Z" fill="white"/>
<path d="M11.1442 5.33854C11.8749 5.33854 12.5042 5.46654 13.0322 5.72254C13.5602 5.97854 13.9656 6.31721 14.2482 6.73854C14.5309 7.15987 14.6722 7.62387 14.6722 8.13054C14.6722 8.58387 14.5762 8.98921 14.3842 9.34654C14.1922 9.70387 13.9309 9.99987 13.6002 10.2345C13.2696 10.4692 12.8962 10.6345 12.4802 10.7305C12.9442 10.7785 13.3682 10.9065 13.7522 11.1145C14.1362 11.3225 14.4429 11.6185 14.6722 12.0025C14.9069 12.3865 15.0242 12.8692 15.0242 13.4505C15.0242 14.0799 14.8589 14.6505 14.5282 15.1625C14.2029 15.6692 13.7389 16.0719 13.1362 16.3705C12.5389 16.6692 11.8349 16.8185 11.0242 16.8185C10.3309 16.8185 9.66955 16.6905 9.04022 16.4345C8.41622 16.1785 7.88555 15.7919 7.44822 15.2745L8.54422 14.3145C8.85889 14.6825 9.22689 14.9545 9.64822 15.1305C10.0696 15.3065 10.5016 15.3945 10.9442 15.3945C11.6269 15.3945 12.1682 15.2185 12.5682 14.8665C12.9682 14.5092 13.1682 14.0159 13.1682 13.3865C13.1682 12.9065 13.0776 12.5279 12.8962 12.2505C12.7202 11.9679 12.4722 11.7652 12.1522 11.6425C11.8322 11.5199 11.4616 11.4585 11.0402 11.4585H10.0882L10.2962 10.1385H10.9682C11.3149 10.1385 11.6349 10.0772 11.9282 9.95454C12.2216 9.82654 12.4562 9.63187 12.6322 9.37054C12.8136 9.10921 12.9042 8.78387 12.9042 8.39454C12.9042 7.85587 12.7202 7.44254 12.3522 7.15454C11.9896 6.86654 11.5389 6.72254 11.0002 6.72254C10.5416 6.72254 10.1309 6.80787 9.76822 6.97854C9.41089 7.14387 9.05889 7.38921 8.71222 7.71454L7.76022 6.69854C8.24555 6.23454 8.77089 5.89321 9.33622 5.67454C9.90155 5.45054 10.5042 5.33854 11.1442 5.33854Z" fill="#0E5E42"/>
</svg>
