<svg width="36" height="26" viewBox="0 0 36 26" fill="none" xmlns="http://www.w3.org/2000/svg">
<path d="M1.49805 1.64844L11.6626 5.44514L23.2423 1.64844L33.7927 5.16482V23.4482L23.2423 19.6961L12.0484 23.7529L1.88401 20.0081L1.49805 1.64844Z" fill="#FDEAC0"/>
<path d="M12.1652 3.99804C12.4993 3.8924 12.9187 3.67468 13.2951 3.54471C15.5258 2.77317 17.7386 1.96835 19.9324 1.1306C21.0007 0.732306 22.1711 0.223783 23.3196 0.0124093C23.6864 -0.0616731 23.9782 0.216888 24.2794 0.294615C25.1898 0.529529 25.9486 0.8836 26.7934 1.22944C27.6323 1.57388 28.4798 1.90447 29.3353 2.22106C29.7648 2.38113 30.2459 2.49167 30.6647 2.65244C32.1837 3.23532 33.7766 3.6436 35.2077 4.36056C35.2557 4.43664 35.3008 4.51391 35.3429 4.59225C35.4511 4.79405 35.3993 7.45996 35.3989 7.86579L35.3981 13.6197L35.3978 20.5476C35.3985 21.7334 35.4034 22.9205 35.3985 24.1064C35.3978 24.259 35.3808 24.668 35.3136 24.8074C35.2415 24.957 34.9999 25.0745 34.8166 25.1344C34.5032 25.1508 34.3037 25.1372 34.0114 25.0409C33.2026 24.7745 32.4057 24.4579 31.6081 24.1649C30.2068 23.65 28.7737 23.1658 27.3822 22.6382C26.2126 22.1947 25.0496 21.7486 23.869 21.323C23.6984 21.2702 23.395 21.1669 23.2161 21.2095C22.5722 21.3695 21.9431 21.6182 21.3319 21.8496C18.4341 22.947 15.4868 23.953 12.5972 25.0641C11.9592 25.3095 10.9297 24.8015 10.3568 24.5858L8.18633 23.7885L1.09549 21.2099C0.898212 21.1396 0.206558 20.8799 0.13217 20.7111C0.00308091 20.4179 0.00417018 20.0179 0.00371935 19.7078C0.00240441 18.8427 0.0017657 17.9772 0.000638618 17.112L0 11.2019L0.00574813 4.47461C0.00649953 3.34576 -0.00574795 2.21225 0.00852847 1.08346C0.0112335 0.868747 0.0385086 0.520386 0.141261 0.321982C0.240558 0.13017 0.417323 0.0930527 0.640636 0.0252577C0.909596 0.010587 1.07629 -7.42994e-05 1.33466 0.0817536C2.21608 0.360831 3.10215 0.72696 3.9584 1.03684L10.4355 3.39624C10.8735 3.55254 11.7784 3.91311 12.1652 3.99804ZM12.5698 19.4021C12.5698 19.4553 12.5698 19.5082 12.5698 19.6997C12.5698 20.0331 12.5698 20.6664 12.5698 20.6664C12.5698 20.6664 12.5732 21.5482 12.5698 22.0011C12.5685 22.5125 12.5563 22.994 12.6541 23.5015L12.6687 23.4927C12.9085 23.3501 14.2166 22.8792 14.5711 22.7442C16.4318 22.0245 18.3079 21.331 20.1983 20.6639C20.9005 20.4182 21.9843 20.0814 22.5906 19.7495C22.7561 19.6589 22.6968 17.4399 22.6963 17.1179L22.6844 11.0263C22.6835 10.5105 22.6751 9.99474 22.6592 9.47911C22.6497 9.22275 22.6592 8.71211 22.6592 8.47373C22.6592 8.35932 22.6599 8.58071 22.6592 7.6406C22.6591 7.49179 22.6592 7.50626 22.6592 7.3749C22.6361 6.88138 22.6445 6.11244 22.643 5.59353C22.6445 4.68416 22.6309 3.77485 22.6022 2.86578C22.5959 2.63959 22.6332 1.99815 22.596 1.83373L22.5308 1.81888C22.1115 1.88188 20.8361 2.39896 20.3977 2.5621L16.13 4.1449C15.2659 4.45945 14.3773 4.7607 13.5186 5.0875C13.2358 5.19514 12.8645 5.30012 12.6063 5.42508C12.5142 5.75737 12.5397 6.66285 12.5384 7.04414C12.5331 8.07923 12.5344 9.11432 12.5424 10.1494L12.5524 15.6887C12.554 16.7634 12.5482 18.2875 12.5698 19.4021ZM1.79669 1.84585C1.83899 2.34022 1.82276 2.92668 1.8275 3.42585L1.84091 6.34526L1.84414 14.5991L1.84395 16.9463C1.84327 17.4157 1.82648 18.0313 1.87765 18.49C1.86326 18.7314 1.84474 18.9783 1.84666 19.2195C1.84549 19.4625 1.84369 19.577 1.89568 19.8144C2.95364 20.4397 3.84205 20.5773 4.94483 21.0105C6.7275 21.711 8.5476 22.3051 10.3068 23.0366C10.7648 23.2271 11.1422 23.2071 11.5286 23.5239L11.5305 23.5081C11.5936 22.9449 11.505 22.249 11.5021 21.6636L11.5061 17.5239C11.5193 14.4288 11.4925 11.3336 11.4255 8.2389C11.4012 7.25955 11.4398 6.23859 11.371 5.26264C10.6179 5.08738 9.57843 4.67903 8.83312 4.40545L4.12551 2.67768C3.38825 2.40981 2.54263 2.0541 1.79669 1.84585ZM23.7335 1.64162C23.6847 1.94469 23.7073 2.51703 23.7084 2.83763C23.7104 3.64543 23.7207 4.45323 23.7393 5.26094C23.7449 5.68198 23.7689 7.12806 23.7962 7.46026C23.7962 7.6902 23.7962 7.67367 23.7962 7.91506C23.7962 8.15644 23.7962 8.2325 23.7962 8.47373C23.7689 8.6293 23.7777 8.86501 23.7689 8.99883C23.7375 9.47021 23.7466 10.0135 23.7465 10.4841L23.7841 14.4588C23.7991 15.7268 23.7683 17.0048 23.81 18.2717C23.8233 18.678 23.8102 19.3493 23.8696 19.7234C24.4112 19.9125 24.9497 20.1863 25.4366 20.3527C27.2523 20.9731 29.0347 21.6576 30.8338 22.3022C31.4082 22.508 32.621 23.0472 33.1286 23.1928L33.6557 23.3021C33.6267 22.0025 33.6647 20.5838 33.665 19.2754L33.6654 10.5139L33.6647 7.18538C33.6643 6.61799 33.6906 5.77064 33.6335 5.22619C32.7175 5.01184 31.8181 4.63766 30.9322 4.34923C30.5998 4.24106 30.2172 4.15802 29.9004 4.04226C27.864 3.29801 25.6831 2.52426 23.7335 1.64162Z" fill="#1D3948"/>
<path d="M18.6182 12.0612C18.9993 12.033 19.4226 11.9633 19.4808 12.3497C19.5302 12.6773 19.7983 13.792 19.4789 14.0475C19.3614 14.1083 19.2571 14.1003 19.1119 14.1039C18.9227 14.1044 18.2764 14.1195 18.2099 14.0335C17.9718 13.7255 18.01 12.5031 18.0029 12.1499C18.2075 12.1185 18.4126 12.089 18.6182 12.0612Z" fill="#F285B4"/>
<path d="M20.966 6.58289C21.0763 6.57175 21.1185 6.57626 21.2258 6.58349C21.4678 6.68436 21.5937 7.25555 21.5106 7.43288C21.3371 7.66681 20.7421 7.72515 20.4542 7.87321C20.0397 8.0864 20.0124 8.33646 19.4676 8.23179C17.4169 7.7641 20.0576 6.71995 20.966 6.58289Z" fill="#F285B4"/>
<path d="M18.1171 15.0971C18.4151 15.0872 19.1552 15.0694 19.3975 15.1729C19.4931 15.2613 19.4884 15.3604 19.458 15.4672C19.2658 16.1423 19.0109 16.5591 18.5302 17.1365C18.4484 17.2074 18.4373 17.2152 18.3144 17.2366C18.187 17.2268 18.133 17.171 18.0424 17.1298C16.9892 16.6509 17.5073 16.3085 17.8734 15.6661C17.9742 15.489 17.861 15.2489 18.1171 15.0971Z" fill="#F285B4"/>
<path d="M18.0491 9.01953C18.4714 9.00801 18.937 9.03574 19.3374 9.13633C19.4343 9.46129 19.3375 9.82038 19.3149 10.1548C19.2972 10.4171 19.3493 10.779 19.2795 11.0261C19.0457 11.0529 18.1726 11.1183 18.0129 11.0164C17.8821 10.7734 17.9051 9.26532 18.0491 9.01953Z" fill="#F285B4"/>
<path d="M27.276 7.12757C27.3541 7.12719 27.6186 7.12648 27.6826 7.14482C28.7592 7.45332 30.6829 7.36419 29.5079 8.59052C29.4779 8.59813 29.4939 8.59465 29.4545 8.60119C29.1601 8.65011 27.2575 8.14388 26.9463 8.00066C26.955 7.73919 26.916 7.25683 27.276 7.12757Z" fill="#F285B4"/>
<path d="M5.97588 15.9795C6.14265 16.0123 6.44057 16.1252 6.60644 16.1843C7.11544 16.3658 7.82482 16.6111 8.38299 16.67C8.43281 16.9463 8.35256 17.6326 7.89673 17.6915C7.46359 17.5515 5.51069 17.1833 5.41602 16.9042C5.42714 16.6695 5.78769 16.176 5.97588 15.9795Z" fill="#F285B4"/>
<path d="M9.95586 17.0885C10.1425 17.0756 10.2452 17.0947 10.4237 17.1308C11.1299 17.2736 11.8691 17.3395 12.5968 17.4059C12.6102 17.7445 12.6509 17.979 12.5406 18.3107C12.4412 18.3951 12.466 18.3698 12.2782 18.3909C11.8384 18.4072 10.1303 18.2471 9.73146 18.0347C9.5917 17.9603 9.73905 17.2334 9.95586 17.0885Z" fill="#F285B4"/>
<path d="M14.2322 17.5185C14.3893 17.444 14.4924 17.4262 14.6735 17.3978C15.39 17.2854 16.0868 17.0938 16.7736 16.9065C17.0012 17.2019 17.1866 17.3958 17.3003 17.7269C17.2659 17.8353 17.2718 17.8045 17.1189 17.8867C16.7398 18.0499 15.1248 18.4858 14.6362 18.4326C14.465 18.4139 14.1325 17.7203 14.2322 17.5185Z" fill="#F285B4"/>
<path d="M25.9015 6.813C25.8446 7.1181 25.7272 7.44755 25.5225 7.71771C25.0665 7.73146 24.5975 7.60034 24.1492 7.52673C23.7977 7.46903 23.2993 7.44428 22.9773 7.35178C22.9811 7.1794 23.0425 6.54144 23.2077 6.44432C23.5588 6.39208 25.5939 6.66745 25.9015 6.813Z" fill="#F285B4"/>
</svg>
