<svg width="22" height="22" viewBox="0 0 22 22" fill="none" xmlns="http://www.w3.org/2000/svg">
<rect x="0.75" y="0.75" width="20.5" height="20.5" rx="10.25" fill="#81CA7D"/>
<rect x="0.75" y="0.75" width="20.5" height="20.5" rx="10.25" stroke="#0E5E42" stroke-width="1.5"/>
<path d="M10.8966 5.252C11.7339 5.252 12.4326 5.436 12.9926 5.804C13.5526 6.172 13.9713 6.692 14.2486 7.364C14.5313 8.03067 14.6726 8.81733 14.6726 9.724C14.6726 10.8173 14.5499 11.7587 14.3046 12.548C14.0646 13.332 13.6913 13.9987 13.1846 14.548C12.6833 15.0973 12.0406 15.5587 11.2566 15.932C10.4779 16.3053 9.54728 16.6253 8.46461 16.892L8.07261 15.58C9.08061 15.308 9.92328 14.9827 10.6006 14.604C11.2779 14.22 11.7979 13.7427 12.1606 13.172C12.5286 12.596 12.7419 11.8947 12.8006 11.068L12.8166 10.268C12.8219 9.39867 12.7633 8.69467 12.6406 8.156C12.5179 7.61733 12.3153 7.22533 12.0326 6.98C11.7499 6.73467 11.3686 6.612 10.8886 6.612C10.2753 6.612 9.80328 6.812 9.47261 7.212C9.14194 7.612 8.97661 8.212 8.97661 9.012C8.97661 9.79067 9.13661 10.3507 9.45661 10.692C9.78194 11.0333 10.2113 11.204 10.7446 11.204C11.2246 11.204 11.6459 11.0787 12.0086 10.828C12.3713 10.572 12.7206 10.2227 13.0566 9.78L13.0406 11.052C12.6886 11.4947 12.2913 11.8547 11.8486 12.132C11.4113 12.404 10.8939 12.54 10.2966 12.54C9.69394 12.54 9.15528 12.3987 8.68061 12.116C8.20594 11.828 7.83261 11.42 7.56061 10.892C7.28861 10.3587 7.15261 9.732 7.15261 9.012C7.15261 8.21733 7.31794 7.54 7.64861 6.98C7.98461 6.42 8.43528 5.99333 9.00061 5.7C9.56594 5.40133 10.1979 5.252 10.8966 5.252Z" fill="#0E5E42"/>
</svg>
