<svg width="22" height="22" viewBox="0 0 22 22" fill="none" xmlns="http://www.w3.org/2000/svg">
<rect x="0.75" y="0.75" width="20.5" height="20.5" rx="10.25" fill="#81CA7D"/>
<rect x="0.75" y="0.75" width="20.5" height="20.5" rx="10.25" stroke="#0E5E42" stroke-width="1.5"/>
<path d="M14.1846 5.46L13.9526 6.804H9.71261V9.876C10.0273 9.71067 10.3313 9.59867 10.6246 9.54C10.9233 9.476 11.2219 9.444 11.5206 9.444C12.1073 9.444 12.6299 9.58267 13.0886 9.86C13.5473 10.1373 13.9073 10.5373 14.1686 11.06C14.4353 11.5827 14.5686 12.2147 14.5686 12.956C14.5686 13.692 14.4033 14.3453 14.0726 14.916C13.7473 15.4813 13.2886 15.924 12.6966 16.244C12.1046 16.5587 11.4086 16.716 10.6086 16.716C9.88861 16.716 9.24861 16.588 8.68861 16.332C8.13394 16.0707 7.64594 15.716 7.22461 15.268L8.29661 14.26C8.60594 14.6013 8.94461 14.86 9.31261 15.036C9.68594 15.2067 10.0939 15.292 10.5366 15.292C11.2086 15.292 11.7366 15.0893 12.1206 14.684C12.5099 14.2733 12.7046 13.6947 12.7046 12.948C12.7046 12.404 12.6246 11.9747 12.4646 11.66C12.3099 11.34 12.0966 11.1107 11.8246 10.972C11.5526 10.8333 11.2459 10.764 10.9046 10.764C10.6273 10.764 10.3659 10.7933 10.1206 10.852C9.88061 10.9107 9.61394 11.004 9.32061 11.132H8.00061V5.46H14.1846Z" fill="#0E5E42"/>
</svg>
