<svg width="22" height="22" viewBox="0 0 22 22" fill="none" xmlns="http://www.w3.org/2000/svg">
<rect x="0.75" y="0.75" width="20.5" height="20.5" rx="10.25" fill="#81CA7D"/>
<rect x="0.75" y="0.75" width="20.5" height="20.5" rx="10.25" stroke="#0E5E42" stroke-width="1.5"/>
<path d="M10.5766 5.236C11.3286 5.236 11.9633 5.37733 12.4806 5.66C13.0033 5.93733 13.4006 6.31067 13.6726 6.78C13.9499 7.24933 14.0886 7.77467 14.0886 8.356C14.0886 8.836 14.0033 9.308 13.8326 9.772C13.6673 10.236 13.3979 10.724 13.0246 11.236C12.6566 11.7427 12.1686 12.308 11.5606 12.932C10.9526 13.5507 10.2086 14.26 9.32861 15.06H14.3446L14.1366 16.5H7.27261V15.14C8.06728 14.3827 8.74728 13.716 9.31261 13.14C9.87794 12.5587 10.3499 12.0493 10.7286 11.612C11.1073 11.1693 11.4059 10.772 11.6246 10.42C11.8433 10.0627 11.9979 9.72933 12.0886 9.42C12.1846 9.10533 12.2326 8.788 12.2326 8.468C12.2326 7.91333 12.0753 7.476 11.7606 7.156C11.4459 6.836 11.0086 6.676 10.4486 6.676C9.94728 6.676 9.53128 6.76667 9.20061 6.948C8.86994 7.12933 8.54194 7.42267 8.21661 7.828L7.04861 6.94C7.48061 6.39067 7.97661 5.96933 8.53661 5.676C9.09661 5.38267 9.77661 5.236 10.5766 5.236Z" fill="#0E5E42"/>
</svg>
