<svg width="22" height="22" viewBox="0 0 22 22" fill="none" xmlns="http://www.w3.org/2000/svg">
<rect x="0.75" y="0.75" width="20.5" height="20.5" rx="10.25" fill="#81CA7D"/>
<rect x="0.75" y="0.75" width="20.5" height="20.5" rx="10.25" stroke="#0E5E42" stroke-width="1.5"/>
<path d="M10.5446 5.236C11.2753 5.236 11.9046 5.364 12.4326 5.62C12.9606 5.876 13.3659 6.21467 13.6486 6.636C13.9313 7.05733 14.0726 7.52133 14.0726 8.028C14.0726 8.48133 13.9766 8.88667 13.7846 9.244C13.5926 9.60133 13.3313 9.89733 13.0006 10.132C12.6699 10.3667 12.2966 10.532 11.8806 10.628C12.3446 10.676 12.7686 10.804 13.1526 11.012C13.5366 11.22 13.8433 11.516 14.0726 11.9C14.3073 12.284 14.4246 12.7667 14.4246 13.348C14.4246 13.9773 14.2593 14.548 13.9286 15.06C13.6033 15.5667 13.1393 15.9693 12.5366 16.268C11.9393 16.5667 11.2353 16.716 10.4246 16.716C9.73128 16.716 9.06994 16.588 8.44061 16.332C7.81661 16.076 7.28594 15.6893 6.84861 15.172L7.94461 14.212C8.25928 14.58 8.62728 14.852 9.04861 15.028C9.46994 15.204 9.90194 15.292 10.3446 15.292C11.0273 15.292 11.5686 15.116 11.9686 14.764C12.3686 14.4067 12.5686 13.9133 12.5686 13.284C12.5686 12.804 12.4779 12.4253 12.2966 12.148C12.1206 11.8653 11.8726 11.6627 11.5526 11.54C11.2326 11.4173 10.8619 11.356 10.4406 11.356H9.48861L9.69661 10.036H10.3686C10.7153 10.036 11.0353 9.97467 11.3286 9.852C11.6219 9.724 11.8566 9.52933 12.0326 9.268C12.2139 9.00667 12.3046 8.68133 12.3046 8.292C12.3046 7.75333 12.1206 7.34 11.7526 7.052C11.3899 6.764 10.9393 6.62 10.4006 6.62C9.94194 6.62 9.53128 6.70533 9.16861 6.876C8.81128 7.04133 8.45928 7.28667 8.11261 7.612L7.16061 6.596C7.64594 6.132 8.17128 5.79067 8.73661 5.572C9.30194 5.348 9.90461 5.236 10.5446 5.236Z" fill="#0E5E42"/>
</svg>
