<svg width="22" height="22" viewBox="0 0 22 22" fill="none" xmlns="http://www.w3.org/2000/svg">
<rect x="0.75" y="0.75" width="20.5" height="20.5" rx="10.25" fill="#81CA7D"/>
<rect x="0.75" y="0.75" width="20.5" height="20.5" rx="10.25" stroke="#0E5E42" stroke-width="1.5"/>
<path d="M11.6806 5.236C12.1339 5.236 12.5473 5.29733 12.9206 5.42C13.2993 5.53733 13.6433 5.7 13.9526 5.908L13.2566 7.06C13.0219 6.90533 12.7713 6.79067 12.5046 6.716C12.2379 6.636 11.9659 6.596 11.6886 6.596C11.1606 6.596 10.7046 6.76933 10.3206 7.116C9.94194 7.46267 9.65128 7.956 9.44861 8.596C9.24594 9.236 9.14461 9.99867 9.14461 10.884L9.16061 11.5C9.16061 12.8173 9.30994 13.7907 9.60861 14.42C9.91261 15.044 10.4299 15.356 11.1606 15.356C11.7739 15.356 12.2299 15.1267 12.5286 14.668C12.8326 14.204 12.9846 13.5987 12.9846 12.852C12.9846 12.2813 12.9153 11.8307 12.7766 11.5C12.6379 11.1693 12.4433 10.932 12.1926 10.788C11.9419 10.644 11.6459 10.572 11.3046 10.572C10.8193 10.572 10.3793 10.7133 9.98461 10.996C9.58994 11.2787 9.26461 11.652 9.00861 12.116L8.97661 10.772C9.33394 10.228 9.74194 9.836 10.2006 9.596C10.6593 9.35067 11.1526 9.228 11.6806 9.228C12.2513 9.228 12.7713 9.36133 13.2406 9.628C13.7153 9.88933 14.0939 10.284 14.3766 10.812C14.6593 11.3347 14.8006 11.988 14.8006 12.772C14.8006 13.556 14.6406 14.244 14.3206 14.836C14.0059 15.428 13.5739 15.8893 13.0246 16.22C12.4753 16.5507 11.8513 16.716 11.1526 16.716C10.4593 16.716 9.86728 16.5853 9.37661 16.324C8.89128 16.0627 8.49661 15.692 8.19261 15.212C7.88861 14.732 7.66461 14.1667 7.52061 13.516C7.38194 12.86 7.31261 12.1427 7.31261 11.364C7.31261 10.132 7.48594 9.05733 7.83261 8.14C8.18461 7.22267 8.68594 6.51067 9.33661 6.004C9.98728 5.492 10.7686 5.236 11.6806 5.236Z" fill="#0E5E42"/>
</svg>
