<svg width="22" height="22" viewBox="0 0 22 22" fill="none" xmlns="http://www.w3.org/2000/svg">
<rect x="0.75" y="0.75" width="20.5" height="20.5" rx="10.25" fill="#81CA7D"/>
<rect x="0.75" y="0.75" width="20.5" height="20.5" rx="10.25" stroke="#0E5E42" stroke-width="1.5"/>
<path d="M14.4726 8.092C14.4726 8.62 14.3179 9.07867 14.0086 9.468C13.6993 9.852 13.2406 10.212 12.6326 10.548C13.3633 10.868 13.9259 11.2813 14.3206 11.788C14.7153 12.2893 14.9126 12.868 14.9126 13.524C14.9126 14.116 14.7579 14.6547 14.4486 15.14C14.1393 15.62 13.6913 16.004 13.1046 16.292C12.5233 16.5747 11.8166 16.716 10.9846 16.716C10.1579 16.716 9.45661 16.5747 8.88061 16.292C8.30461 16.0093 7.86994 15.6307 7.57661 15.156C7.28328 14.676 7.13661 14.1453 7.13661 13.564C7.13661 12.9027 7.33128 12.34 7.72061 11.876C8.10994 11.4067 8.62994 11.0253 9.28061 10.732C8.70461 10.4227 8.27528 10.076 7.99261 9.692C7.71528 9.30267 7.57661 8.80133 7.57661 8.188C7.57661 7.692 7.67528 7.26267 7.87261 6.9C8.06994 6.532 8.33394 6.22533 8.66461 5.98C8.99528 5.72933 9.36594 5.54267 9.77661 5.42C10.1873 5.29733 10.6059 5.236 11.0326 5.236C11.4859 5.236 11.9179 5.29733 12.3286 5.42C12.7393 5.53733 13.1046 5.716 13.4246 5.956C13.7499 6.19067 14.0059 6.48667 14.1926 6.844C14.3793 7.20133 14.4726 7.61733 14.4726 8.092ZM13.0806 13.532C13.0806 13.084 12.9739 12.7267 12.7606 12.46C12.5526 12.1933 12.2513 11.9693 11.8566 11.788C11.4619 11.6067 10.9899 11.42 10.4406 11.228C10.1739 11.3667 9.92861 11.54 9.70461 11.748C9.48061 11.9507 9.30194 12.196 9.16861 12.484C9.03528 12.772 8.96861 13.1133 8.96861 13.508C8.96861 14.0733 9.13928 14.524 9.48061 14.86C9.82194 15.1907 10.3313 15.356 11.0086 15.356C11.6913 15.356 12.2059 15.18 12.5526 14.828C12.9046 14.476 13.0806 14.044 13.0806 13.532ZM9.31261 8.196C9.31261 8.55867 9.39528 8.852 9.56061 9.076C9.72594 9.3 9.96594 9.48933 10.2806 9.644C10.5953 9.79333 10.9766 9.94533 11.4246 10.1C11.8779 9.81733 12.2086 9.53467 12.4166 9.252C12.6299 8.964 12.7366 8.60667 12.7366 8.18C12.7366 7.684 12.5899 7.28667 12.2966 6.988C12.0033 6.68933 11.5819 6.54 11.0326 6.54C10.4886 6.54 10.0646 6.684 9.76061 6.972C9.46194 7.26 9.31261 7.668 9.31261 8.196Z" fill="#0E5E42"/>
</svg>
