<svg width="20" height="20" viewBox="0 0 20 20" fill="none" xmlns="http://www.w3.org/2000/svg">
<g clip-path="url(#clip0_358_5447)">
<path d="M18.0693 2.01028C16.9954 0.936372 15.7702 0.420396 15.3328 0.857818L12.375 3.81563L16.264 7.70461L19.2218 4.7468C19.6592 4.30938 19.1432 3.08422 18.0693 2.01028Z" fill="#FF6E83"/>
<path d="M16.194 3.88507C14.9688 2.65979 13.5709 2.07112 13.0719 2.57019L10.043 5.59909L14.48 10.0362L17.5089 7.00726C18.008 6.50819 17.4193 5.11034 16.194 3.88507Z" fill="#BFBCAF"/>
<path d="M4.51438 17.5774L1.84661 18.7377C1.65247 18.8221 1.42661 18.7332 1.34219 18.539C1.32132 18.4908 1.31055 18.4387 1.31055 18.3862C1.31055 18.3336 1.32132 18.2815 1.34219 18.2333L2.50254 15.5655C2.83934 14.7912 3.74008 14.4365 4.51442 14.7733C5.28875 15.1101 5.64344 16.0108 5.30665 16.7851C5.14641 17.1535 4.85547 17.4282 4.51438 17.5774Z" fill="#2B2622"/>
<path d="M15.7592 8.7483C15.7621 8.74427 15.7649 8.74017 15.7676 8.736C16.1524 8.18455 15.5636 6.85713 14.3931 5.68662C13.2225 4.51608 11.8951 3.92729 11.3437 4.31213C11.3396 4.31484 11.3355 4.31761 11.3315 4.32045C11.3266 4.32412 11.3214 4.3276 11.3166 4.33143C11.303 4.3419 11.2897 4.35295 11.2772 4.36541L11.2709 4.3717H11.2709L4.23813 11.4045C4.23813 11.4045 2.2468 16.3323 2.99712 17.0826C3.74743 17.8329 8.6752 15.8416 8.6752 15.8416L15.7143 8.80252C15.7267 8.79006 15.7378 8.77678 15.7483 8.76315C15.7521 8.75834 15.7555 8.75323 15.7592 8.7483Z" fill="#FFD469"/>
<path d="M4.2377 11.4043L4.08137 12.3785C4.05836 12.5218 4.18246 12.6455 4.32566 12.6221L5.02383 12.5081C5.16172 12.4856 5.28348 12.5999 5.26977 12.7389L5.19203 13.527C5.1784 13.6653 5.29895 13.7793 5.43629 13.758L6.14188 13.6486C6.28613 13.6262 6.40957 13.7525 6.38387 13.8962L6.26316 14.5713C6.23832 14.7103 6.35336 14.8345 6.49387 14.8203L7.28801 14.7402C7.42199 14.7267 7.53465 14.8395 7.52094 14.9735L7.43906 15.7746C7.42496 15.9125 7.54438 16.0268 7.68148 16.0067L8.69207 15.8587L2.99676 18.2418C3.45109 17.7875 2.27469 16.6111 1.82031 17.0654L4.2377 11.4043Z" fill="#E5AA6E"/>
<path d="M5.69881 11.6618C5.64635 11.6618 5.59508 11.6462 5.55146 11.6171C5.50785 11.5879 5.47386 11.5465 5.45378 11.498C5.43371 11.4496 5.42846 11.3962 5.43869 11.3448C5.44892 11.2933 5.47418 11.2461 5.51127 11.209L11.3846 5.3357C11.4343 5.28609 11.5017 5.25825 11.572 5.2583C11.6423 5.25836 11.7097 5.2863 11.7594 5.336C11.8091 5.38569 11.837 5.45308 11.8371 5.52336C11.8371 5.59363 11.8093 5.66106 11.7596 5.71082L5.88635 11.5841C5.86175 11.6087 5.83251 11.6283 5.80033 11.6416C5.76815 11.655 5.73364 11.6618 5.69881 11.6618ZM7.38674 13.0845L13.26 7.21117C13.2847 7.18656 13.3043 7.15732 13.3176 7.12512C13.331 7.09293 13.3379 7.05841 13.3379 7.02355C13.338 6.98869 13.3311 6.95416 13.3178 6.92194C13.3045 6.88973 13.2849 6.86046 13.2603 6.8358C13.2356 6.81115 13.2064 6.7916 13.1741 6.77827C13.1419 6.76494 13.1074 6.75809 13.0725 6.75811C13.0377 6.75813 13.0032 6.76503 12.971 6.7784C12.9388 6.79178 12.9095 6.81137 12.8849 6.83606L7.01162 12.7094C6.962 12.7591 6.93416 12.8266 6.93422 12.8968C6.93427 12.9671 6.96221 13.0345 7.01191 13.0842C7.06161 13.1339 7.12899 13.1618 7.19927 13.1619C7.26955 13.1619 7.33697 13.1341 7.38674 13.0845ZM8.88713 14.5848L14.7604 8.71156C14.7851 8.68695 14.8047 8.65771 14.818 8.62551C14.8314 8.59332 14.8383 8.5588 14.8383 8.52394C14.8384 8.48908 14.8315 8.45455 14.8182 8.42233C14.8049 8.39012 14.7853 8.36085 14.7607 8.33619C14.736 8.31154 14.7067 8.29199 14.6745 8.27866C14.6423 8.26533 14.6078 8.25848 14.5729 8.2585C14.5381 8.25852 14.5035 8.26542 14.4713 8.27879C14.4392 8.29217 14.4099 8.31176 14.3853 8.33645L8.51201 14.2097C8.46239 14.2595 8.43455 14.3269 8.43461 14.3972C8.43466 14.4675 8.46261 14.5349 8.5123 14.5846C8.562 14.6342 8.62939 14.6622 8.69966 14.6622C8.76994 14.6623 8.83737 14.6344 8.88713 14.5848Z" fill="#FFB636"/>
</g>
<defs>
<clipPath id="clip0_358_5447">
<rect width="20" height="20" fill="white"/>
</clipPath>
</defs>
</svg>
