<svg width="27" height="18" viewBox="0 0 27 18" fill="none" xmlns="http://www.w3.org/2000/svg">
<path d="M23.5601 0.5L16.4386 3.67331L9.88229 2.53999L6.4911 3.67331L12.3692 5.48663L6.83022 7.86662L3.89119 6.73329L0.5 7.86662L5.58678 12.3999L13.0474 9.56661L10.6736 17.4999L15.1952 15.2332L18.6994 7.29996L24.8035 4.80664L26.4991 1.74666L23.5601 0.5Z" fill="white"/>
<path d="M5.58694 12.3998L13.0476 9.56653L10.6737 17.4998L15.1953 15.2332L18.6995 7.29988L24.8037 4.80656L26.4993 1.74658L4.23047 11.2665L5.58694 12.3998Z" fill="#BBD8FF"/>
<path d="M6.83022 7.86662L23.5601 0.5L26.4991 1.74666L24.8035 4.80664L18.6994 7.29996L15.1952 15.2332L10.6736 17.4999L13.0474 9.56661L5.58678 12.3999L0.5 7.86662L3.89119 6.73329L6.83022 7.86662Z" stroke="#092F63" stroke-miterlimit="10" stroke-linecap="round" stroke-linejoin="round"/>
<path d="M16.4377 3.67336L9.88142 2.54004L6.49023 3.67336L12.3683 5.48669" stroke="#092F63" stroke-miterlimit="10" stroke-linecap="round" stroke-linejoin="round"/>
</svg>
