<svg width="25" height="25" viewBox="0 0 25 25" fill="none" xmlns="http://www.w3.org/2000/svg">
<rect x="1" y="1" width="23" height="23" rx="11.5" fill="#D7F5D6"/>
<rect x="1" y="1" width="23" height="23" rx="11.5" stroke="#1D3948" stroke-width="2"/>
<path d="M11.2497 13.4988C11.3102 14.1248 11.4111 14.5908 11.5524 14.8968C11.6936 15.2028 11.9461 15.3559 12.3099 15.3561C12.3782 15.3561 12.4394 15.3448 12.5002 15.3333C12.5614 15.3448 12.6219 15.3561 12.6899 15.3561C13.0531 15.3559 13.3056 15.2028 13.4474 14.8968C13.5884 14.5908 13.6892 14.1248 13.7497 13.4988L14.0727 8.6663C14.1332 7.7243 14.1634 7.04822 14.1634 6.63805C14.1634 6.07939 14.0174 5.64389 13.7252 5.33155C13.4319 5.01889 13.0465 4.86247 12.5692 4.8623C12.5442 4.8623 12.5249 4.86805 12.5007 4.86905C12.4764 4.86805 12.4569 4.8623 12.4322 4.8623C11.9544 4.8623 11.5691 5.01872 11.2764 5.33155C10.9839 5.64405 10.8377 6.07964 10.8377 6.6383C10.8377 7.04847 10.8679 7.72455 10.9284 8.66655L11.2512 13.4988M12.5099 17.1208C12.0476 17.1211 11.6529 17.2673 11.3259 17.5593C10.9993 17.8526 10.8359 18.2075 10.8359 18.6238C10.8359 19.0955 11.001 19.4654 11.3312 19.7336C11.6622 20.0026 12.0477 20.1381 12.4874 20.1381C12.9358 20.1377 13.3269 20.0048 13.6609 19.7393C13.9952 19.4736 14.1609 19.1018 14.1609 18.6236C14.1609 18.2072 14.0012 17.8524 13.6817 17.5591C13.3627 17.2676 12.9719 17.1208 12.5089 17.1208" fill="#1D3948"/>
</svg>
