<svg width="24" height="23" viewBox="0 0 24 23" fill="none" xmlns="http://www.w3.org/2000/svg">
<g clip-path="url(#clip0_358_5419)">
<path d="M17.4209 18.2454L13.864 14.8385C10.4871 17.3164 5.64023 17.0828 2.54836 14.1216C-0.813516 10.898 -0.813516 5.67266 2.54836 2.44906C5.91398 -0.772734 11.3665 -0.772734 14.7302 2.44906C17.8184 5.41031 18.0621 10.0552 15.4784 13.2914L19.0371 16.6983L17.4209 18.2454Z" fill="#78A3AD"/>
<path d="M13.4511 12.8963C16.1061 10.3483 16.1061 6.22091 13.4511 3.67653C10.7924 1.13216 6.48926 1.13036 3.83238 3.67653C1.17738 6.22091 1.17738 10.3483 3.83238 12.8963C6.48738 15.4407 10.7924 15.4407 13.4511 12.8963Z" fill="white"/>
<path d="M23.1207 22.1502C22.2957 22.9444 21.2232 23.2032 20.73 22.7306L15.9432 18.1324C14.7807 17.0183 17.7188 14.0948 18.9375 15.2628L23.7244 19.861C24.2194 20.3336 23.9475 21.3596 23.1207 22.1502Z" fill="#976531"/>
<mask id="mask0_358_5419" style="mask-type:luminance" maskUnits="userSpaceOnUse" x="15" y="14" width="9" height="9">
<path d="M23.1207 22.1502C22.2957 22.9444 21.2231 23.2032 20.73 22.7306L15.9431 18.1324C14.7806 17.0183 17.7188 14.0948 18.9375 15.2628L23.7244 19.861C24.2194 20.3336 23.9475 21.3596 23.1207 22.1502Z" fill="white"/>
</mask>
<g mask="url(#mask0_358_5419)">
<path d="M20.856 22.5993C20.8897 22.2327 21.1391 21.7997 21.3003 21.5553C21.7822 20.824 22.3878 20.2184 23.2916 19.9884C24.2103 19.753 24.3022 20.4161 24.0828 21.0881C23.8185 21.8985 23.2916 22.5076 22.5153 22.9335C22.3335 23.0341 22.0916 23.1761 21.8816 23.2066C21.3678 23.2767 20.8016 23.2138 20.856 22.5993Z" fill="#855C52"/>
</g>
</g>
<defs>
<clipPath id="clip0_358_5419">
<rect width="24" height="23" fill="white" transform="matrix(-1 0 0 1 24 0)"/>
</clipPath>
</defs>
</svg>
