<svg width="152" height="40" viewBox="0 0 152 40" fill="none" xmlns="http://www.w3.org/2000/svg">
<path d="M29.7471 22.8011C29.8277 22.5844 29.9011 22.3642 29.9638 22.1403L35.5073 24.0553C36.3063 21.4688 36.3966 18.6321 35.6083 15.834C35.3569 14.9433 35.021 14.101 34.6238 13.3031L37.1755 12.1743C36.2705 10.3174 35.0188 8.59153 33.4169 7.10028C31.8114 5.60544 29.9964 4.47768 28.0768 3.70627L25.1487 11.8448C24.7695 11.6761 24.3759 11.5332 23.968 11.4175L25.576 5.78486C23.5662 5.21185 21.4116 5.07003 19.2489 5.42745L19.6317 7.86202C19.2432 7.9272 18.8553 8.01136 18.4703 8.11593L17.3569 2.98535C14.2301 3.7736 11.2873 5.43712 8.92721 7.97268C6.56712 10.5061 5.11669 13.5606 4.55371 16.7333L7.31239 17.1294C7.24148 17.5086 7.18132 17.89 7.14156 18.275L9.60765 18.4484C9.50774 19.3462 9.50415 20.2598 9.61016 21.1694L16.935 20.0718C16.9121 19.6904 16.9375 19.3075 17.0074 18.9297C17.0385 18.761 17.0818 18.5952 17.1313 18.4301C17.1323 18.4276 17.1338 18.424 17.1338 18.4219C17.1567 18.3485 17.1818 18.275 17.2072 18.2027C17.253 18.0788 17.3021 17.9549 17.3576 17.8345C17.3841 17.7754 17.4117 17.7178 17.4407 17.6601C17.4529 17.6372 17.4647 17.6168 17.4769 17.5939C17.5381 17.4782 17.6044 17.3639 17.6767 17.2522C17.6874 17.2354 17.6982 17.2185 17.7093 17.2017C17.748 17.1441 17.7874 17.086 17.8296 17.0284C17.9403 16.878 18.0524 16.7286 18.1835 16.589C18.6565 16.0797 19.2195 15.708 19.8226 15.4601C19.92 15.4204 20.0164 15.3831 20.1163 15.3495C20.1739 15.3301 20.2295 15.3061 20.2871 15.2893C20.4687 15.2363 20.6531 15.194 20.8383 15.164C20.8863 15.1554 20.9357 15.1518 20.9851 15.146C21.1294 15.1267 21.2741 15.1124 21.4185 15.1063C21.4811 15.1038 21.5449 15.1052 21.6075 15.1052H21.6219C21.7483 15.1052 21.8758 15.1113 22.0022 15.121C22.0756 15.1281 22.149 15.1342 22.2214 15.1439C22.3478 15.1607 22.4717 15.1847 22.5956 15.2112C22.6644 15.2255 22.7328 15.2388 22.8016 15.2556C23.1661 15.352 23.5214 15.4938 23.8595 15.6804C23.9365 15.7226 24.0099 15.7706 24.0833 15.8175C24.1915 15.8849 24.2989 15.9536 24.401 16.0306C24.5381 16.1316 24.6728 16.2351 24.8006 16.3533C24.9031 16.4496 24.9933 16.5556 25.0857 16.6591C25.152 16.7315 25.2168 16.8049 25.2784 16.8819C25.283 16.888 25.287 16.8926 25.2916 16.8987C25.3529 16.9768 25.4084 17.0577 25.4639 17.1383C25.5144 17.2117 25.5649 17.2852 25.6107 17.3611C25.6397 17.408 25.6698 17.4524 25.6963 17.5008C25.783 17.6562 25.8625 17.8163 25.9298 17.9785C25.9323 17.9821 25.9345 17.9871 25.9359 17.9918C26.0058 18.1601 26.0634 18.3334 26.1128 18.5082C26.1261 18.5562 26.1358 18.6045 26.1465 18.6525C26.1791 18.78 26.2067 18.9089 26.2271 19.0375C26.2367 19.0977 26.2439 19.1568 26.2511 19.2169C26.2654 19.3383 26.2751 19.4601 26.2812 19.5829C26.2837 19.6431 26.2858 19.7033 26.2858 19.7634C26.2869 20.1137 26.2521 20.4639 26.1751 20.8081C26.1343 20.9886 26.0838 21.1666 26.0212 21.3424C25.9803 21.4567 25.9356 21.5688 25.8865 21.6794C25.8743 21.707 25.8636 21.7349 25.8518 21.7611C25.6494 22.1944 25.3787 22.6034 25.0359 22.9719C25.0155 22.9938 24.9937 23.0142 24.9733 23.0357L24.9722 23.0346C24.6606 23.3583 24.3104 23.6183 23.9397 23.8314C23.8505 23.8819 23.7617 23.9303 23.6715 23.9747C23.5536 24.0323 23.4344 24.0843 23.313 24.1323C23.237 24.1613 23.16 24.1889 23.083 24.2139C22.9448 24.2608 22.8037 24.2995 22.663 24.3317C22.6594 24.3328 22.6558 24.3328 22.6522 24.3342C22.5655 24.3547 22.4778 24.3729 22.3897 24.3883C22.2418 24.4138 22.095 24.4281 21.9456 24.4388C21.859 24.4449 21.7723 24.4532 21.6856 24.4546C21.4965 24.4582 21.3078 24.4499 21.1187 24.4306C21.08 24.427 21.0417 24.4245 21.003 24.4198C20.7706 24.3898 20.5396 24.3454 20.3122 24.2802L15.3198 35.9255C19.7535 37.6488 24.7315 37.4719 29.0316 35.437L27.7509 32.953C28.6667 32.5269 29.5287 32.0215 30.3155 31.4317L28.7594 29.5024C29.2698 29.1268 29.745 28.7203 30.1808 28.2798L33.9068 31.9793C34.0343 31.8493 34.1643 31.7218 34.2908 31.5882C35.8325 29.9308 36.9843 28.0509 37.7571 26.0604L29.7489 22.8025L29.7471 22.8011Z" fill="#EF4123"/>
<path d="M29.7471 22.8011C29.8277 22.5844 29.9011 22.3642 29.9638 22.1403L35.5073 24.0553C36.3063 21.4688 36.3966 18.6321 35.6083 15.834C35.3569 14.9433 35.021 14.101 34.6238 13.3031L37.1755 12.1743C36.2705 10.3174 35.0188 8.59153 33.4169 7.10028C31.8114 5.60544 29.9964 4.47768 28.0768 3.70627L25.1487 11.8448C24.7695 11.6761 24.3759 11.5332 23.968 11.4175L25.576 5.78486C23.5662 5.21185 21.4116 5.07003 19.2489 5.42745L19.6317 7.86202C19.2432 7.9272 18.8553 8.01136 18.4703 8.11593L17.3569 2.98535C14.2301 3.7736 11.2873 5.43712 8.92721 7.97268C6.56712 10.5061 5.11669 13.5606 4.55371 16.7333L7.31239 17.1294C7.24148 17.5086 7.18132 17.89 7.14156 18.275L9.60765 18.4484C9.50774 19.3462 9.50415 20.2598 9.61016 21.1694L16.935 20.0718C16.9121 19.6904 16.9375 19.3075 17.0074 18.9297C17.0385 18.761 17.0818 18.5952 17.1313 18.4301C17.1323 18.4276 17.1338 18.424 17.1338 18.4219C17.1567 18.3485 17.1818 18.275 17.2072 18.2027C17.253 18.0788 17.3021 17.9549 17.3576 17.8345C17.3841 17.7754 17.4117 17.7178 17.4407 17.6601C17.4529 17.6372 17.4647 17.6168 17.4769 17.5939C17.5381 17.4782 17.6044 17.3639 17.6767 17.2522C17.6874 17.2354 17.6982 17.2185 17.7093 17.2017C17.748 17.1441 17.7874 17.086 17.8296 17.0284C17.9403 16.878 18.0524 16.7286 18.1835 16.589C18.6565 16.0797 19.2195 15.708 19.8226 15.4601C19.92 15.4204 20.0164 15.3831 20.1163 15.3495C20.1739 15.3301 20.2295 15.3061 20.2871 15.2893C20.4687 15.2363 20.6531 15.194 20.8383 15.164C20.8863 15.1554 20.9357 15.1518 20.9851 15.146C21.1294 15.1267 21.2741 15.1124 21.4185 15.1063C21.4811 15.1038 21.5449 15.1052 21.6075 15.1052H21.6219C21.7483 15.1052 21.8758 15.1113 22.0022 15.121C22.0756 15.1281 22.149 15.1342 22.2214 15.1439C22.3478 15.1607 22.4717 15.1847 22.5956 15.2112C22.6644 15.2255 22.7328 15.2388 22.8016 15.2556C23.1661 15.352 23.5214 15.4938 23.8595 15.6804C23.9365 15.7226 24.0099 15.7706 24.0833 15.8175C24.1915 15.8849 24.2989 15.9536 24.401 16.0306C24.5381 16.1316 24.6728 16.2351 24.8006 16.3533C24.9031 16.4496 24.9933 16.5556 25.0857 16.6591C25.152 16.7315 25.2168 16.8049 25.2784 16.8819C25.283 16.888 25.287 16.8926 25.2916 16.8987C25.3529 16.9768 25.4084 17.0577 25.4639 17.1383C25.5144 17.2117 25.5649 17.2852 25.6107 17.3611C25.6397 17.408 25.6698 17.4524 25.6963 17.5008C25.783 17.6562 25.8625 17.8163 25.9298 17.9785C25.9323 17.9821 25.9345 17.9871 25.9359 17.9918C26.0058 18.1601 26.0634 18.3334 26.1128 18.5082C26.1261 18.5562 26.1358 18.6045 26.1465 18.6525C26.1791 18.78 26.2067 18.9089 26.2271 19.0375C26.2367 19.0977 26.2439 19.1568 26.2511 19.2169C26.2654 19.3383 26.2751 19.4601 26.2812 19.5829C26.2837 19.6431 26.2858 19.7033 26.2858 19.7634C26.2869 20.1137 26.2521 20.4639 26.1751 20.8081C26.1343 20.9886 26.0838 21.1666 26.0212 21.3424C25.9803 21.4567 25.9356 21.5688 25.8865 21.6794C25.8743 21.707 25.8636 21.7349 25.8518 21.7611C25.6494 22.1944 25.3787 22.6034 25.0359 22.9719C25.0155 22.9938 24.9937 23.0142 24.9733 23.0357L24.9722 23.0346C24.6606 23.3583 24.3104 23.6183 23.9397 23.8314C23.8505 23.8819 23.7617 23.9303 23.6715 23.9747C23.5536 24.0323 23.4344 24.0843 23.313 24.1323C23.237 24.1613 23.16 24.1889 23.083 24.2139C22.9448 24.2608 22.8037 24.2995 22.663 24.3317C22.6594 24.3328 22.6558 24.3328 22.6522 24.3342C22.5655 24.3547 22.4778 24.3729 22.3897 24.3883C22.2418 24.4138 22.095 24.4281 21.9456 24.4388C21.859 24.4449 21.7723 24.4532 21.6856 24.4546C21.4965 24.4582 21.3078 24.4499 21.1187 24.4306C21.08 24.427 21.0417 24.4245 21.003 24.4198C20.7706 24.3898 20.5396 24.3454 20.3122 24.2802L15.3198 35.9255C19.7535 37.6488 24.7315 37.4719 29.0316 35.437L27.7509 32.953C28.6667 32.5269 29.5287 32.0215 30.3155 31.4317L28.7594 29.5024C29.2698 29.1268 29.745 28.7203 30.1808 28.2798L33.9068 31.9793C34.0343 31.8493 34.1643 31.7218 34.2908 31.5882C35.8325 29.9308 36.9843 28.0509 37.7571 26.0604L29.7489 22.8025L29.7471 22.8011Z" fill="#EF4123"/>
<path d="M17.493 27.4326L19.2729 23.8376C18.971 23.6643 18.6831 23.4537 18.4159 23.207C18.2834 23.0831 18.1645 22.9506 18.0499 22.817C17.9632 22.716 17.8816 22.6136 17.8042 22.509C17.7767 22.4692 17.7512 22.4295 17.7247 22.3887C17.661 22.2959 17.6019 22.201 17.5467 22.1047C17.5167 22.0516 17.4866 21.9986 17.459 21.9456C17.3978 21.8289 17.3412 21.7111 17.2907 21.5907C17.2774 21.5596 17.2653 21.5281 17.252 21.4969C17.2015 21.3669 17.1557 21.2344 17.1173 21.1008C17.098 21.0381 17.0801 20.9744 17.0633 20.9106L7.49508 23.2804C7.52624 23.4079 7.55775 23.5354 7.59249 23.6643L4.90723 24.4021C5.57048 26.8019 6.75697 29.0814 8.46024 31.0626L12.4727 27.6675C12.8989 28.1596 13.3527 28.6208 13.8412 29.0313L16.0641 26.4653C16.5046 26.8313 16.9813 27.1586 17.4927 27.4329" fill="#EF4123"/>
<path d="M81.0827 24.9997C81.4065 24.9997 81.7302 24.8769 81.9781 24.629C82.4726 24.1344 82.4726 23.3315 81.9781 22.838L74.3115 15.1715L82.0443 7.44124C82.5389 6.94666 82.5389 6.14517 82.0443 5.65023C81.5483 5.15565 80.7468 5.15565 80.2522 5.65023L71.6266 14.2772C71.1321 14.7708 71.1321 15.5733 71.6266 16.0668L80.1874 24.6287C80.4342 24.8765 80.7579 24.9993 81.0827 24.9993M69.6684 23.2366C69.6684 22.4279 69.3145 21.9728 68.406 21.9728C67.4974 21.9728 67.1436 22.4276 67.1436 23.2366V23.695C67.1436 24.5026 67.4985 24.9564 68.406 24.9564C69.3135 24.9564 69.6684 24.5026 69.6684 23.695M69.6684 17.865V18.9759C69.6684 19.7846 69.3145 20.2383 68.406 20.2383C67.4974 20.2383 67.1436 19.7846 67.1436 18.9759V6.58424C67.1436 5.77558 67.4985 5.32183 68.406 5.32183C69.3135 5.32183 69.6684 5.77558 69.6684 6.58424V17.865Z" fill="black"/>
<path d="M142.152 31.2991V36.4429H142.641V34.6774L143.629 33.7627L145.769 36.4429H146.402L143.996 33.4246L146.294 31.2991H145.632L142.641 34.065V31.2991H142.152ZM140.891 36.4433H140.401V31.2995H140.891V36.4433ZM140.221 30.8887L140.978 29.8716H141.54L140.588 30.8887H140.221ZM135.344 31.2991L137.246 36.4429H137.815L139.724 31.2991H139.205L137.549 35.9025H137.535L135.863 31.2991H135.345H135.344ZM134.292 34.426L133.298 31.789L132.268 34.426H134.292ZM133.593 31.2991L135.61 36.4429H135.084L134.457 34.8435H132.116L131.498 36.4429H130.978L133.045 31.2991H133.593H133.593ZM129.825 31.2991V34.8002C129.825 35.0362 129.812 35.2371 129.782 35.4054C129.754 35.5727 129.703 35.7113 129.631 35.8194C129.559 35.9276 129.46 36.0071 129.335 36.0565C129.21 36.107 129.052 36.1324 128.86 36.1324C128.606 36.1324 128.412 36.0845 128.28 35.9856C128.148 35.8868 128.053 35.7679 127.996 35.6282C127.938 35.49 127.904 35.3431 127.895 35.1888C127.885 35.0359 127.878 34.9037 127.873 34.7927H127.383C127.383 35.019 127.402 35.2368 127.441 35.4488C127.479 35.6594 127.551 35.8459 127.656 36.0071C127.762 36.1683 127.909 36.2972 128.097 36.396C128.283 36.4949 128.524 36.5439 128.817 36.5439C129.109 36.5439 129.33 36.5128 129.52 36.4501C129.709 36.3874 129.863 36.2936 129.981 36.1686C130.098 36.0447 130.183 35.8857 130.237 35.6934C130.289 35.5021 130.317 35.2733 130.317 35.0097V31.2991H129.826H129.825ZM122.895 31.2991V36.4429H123.385V34.6774L124.372 33.7627L126.511 36.4429H127.146L124.739 33.4246L127.038 31.2991H126.374L123.385 34.065V31.2991H122.895ZM119.739 34.325V36.4433H120.229V34.325L122.262 31.2991H121.678L119.992 33.907L118.299 31.2991H117.722L119.739 34.325ZM113.846 31.2991V36.4429H117.434V36.0254H114.336V33.9926H117.203V33.575H114.336V31.7167H117.398V31.2991H113.846ZM111.173 33.7412C111.323 33.7412 111.463 33.7183 111.598 33.6724C111.733 33.6266 111.851 33.5603 111.952 33.4751C112.052 33.3884 112.132 33.2839 112.193 33.161C112.253 33.0382 112.283 32.8985 112.283 32.7399C112.283 32.4233 112.192 32.173 112.01 31.9899C111.827 31.8084 111.548 31.7167 111.173 31.7167H109.344V33.7412H111.173H111.173ZM111.21 31.2991C111.421 31.2991 111.621 31.3256 111.811 31.3772C112 31.4313 112.166 31.5108 112.308 31.6189C112.45 31.7271 112.563 31.8668 112.648 32.0379C112.731 32.2077 112.773 32.4086 112.773 32.6385C112.773 32.9659 112.689 33.2488 112.522 33.4894C112.353 33.729 112.103 33.883 111.772 33.9504V33.9647C111.94 33.9887 112.079 34.032 112.189 34.0972C112.3 34.162 112.39 34.2451 112.46 34.3464C112.529 34.4474 112.579 34.5631 112.611 34.6956C112.642 34.8281 112.663 34.9714 112.672 35.124C112.676 35.2106 112.681 35.3166 112.686 35.4416C112.691 35.5666 112.7 35.6919 112.715 35.8194C112.729 35.9469 112.752 36.0673 112.784 36.1794C112.815 36.2925 112.857 36.3803 112.91 36.4429H112.37C112.341 36.395 112.318 36.3359 112.301 36.266C112.284 36.1962 112.272 36.1238 112.265 36.0494C112.258 35.9759 112.252 35.9025 112.247 35.8302C112.242 35.7578 112.237 35.6955 112.233 35.6425C112.223 35.461 112.207 35.279 112.186 35.0985C112.164 34.9191 112.119 34.7579 112.049 34.6158C111.98 34.475 111.879 34.3608 111.747 34.2741C111.614 34.1874 111.434 34.1488 111.203 34.1584H109.344V36.4426H108.853V31.2988H111.21L111.21 31.2991ZM105.404 36.4433H104.914V31.2995H105.404V36.4433ZM104.733 30.8887L105.489 29.8716H106.051L105.1 30.8887H104.733H104.733ZM96.571 31.2991V36.4429H97.0609V31.9971H97.0752L98.7685 36.4429H99.2294L100.987 31.9971H101.001V36.4429H101.491V31.2991H100.771L98.9984 35.8087L97.2905 31.2991H96.5706H96.571ZM91.4125 31.2991V34.5907C91.4125 34.8554 91.4497 35.1071 91.5246 35.3442C91.598 35.5824 91.7158 35.7894 91.8773 35.9677C92.0385 36.1446 92.2444 36.2854 92.4972 36.3889C92.7486 36.4924 93.0534 36.5443 93.4083 36.5443C93.7632 36.5443 94.0752 36.4924 94.3266 36.3889C94.5794 36.2854 94.785 36.1446 94.9465 35.9677C95.1077 35.7897 95.2258 35.5827 95.2993 35.3442C95.3737 35.1071 95.4113 34.8557 95.4113 34.5907V31.2991H94.9214V34.4825C94.9214 34.7809 94.8878 35.0351 94.8204 35.2432C94.7531 35.4527 94.6557 35.6235 94.5257 35.7546C94.3957 35.8871 94.2381 35.9835 94.0504 36.0422C93.8628 36.1024 93.6497 36.1324 93.409 36.1324C93.1684 36.1324 92.9624 36.1024 92.7748 36.0422C92.5882 35.9831 92.4292 35.8868 92.2995 35.7546C92.1695 35.6235 92.0721 35.4524 92.0048 35.2432C91.9375 35.0351 91.9038 34.7812 91.9038 34.4825V31.2991H91.4139H91.4125ZM86.1966 31.2991V36.4429H86.6866V32.0909H86.7009L89.6977 36.4429H90.2453V31.2991H89.7554V35.65H89.7411L86.7442 31.2991H86.1966ZM84.2298 34.426L83.2356 31.789L82.2053 34.426H84.2298ZM83.5307 31.2991L85.5477 36.4429H85.023L84.396 34.8435H82.0538L81.4339 36.4429H80.9164L82.9842 31.2991H83.5307ZM77.4214 31.2991V36.4429H80.7935V36.0254H77.9109V31.2991H77.421H77.4214ZM73.6184 30.8887L74.374 29.873H74.9359L73.9851 30.8887H73.618H73.6184ZM72.2245 34.6956C72.2979 34.9674 72.4136 35.2095 72.5701 35.4237C72.7255 35.6379 72.9265 35.8087 73.1718 35.9387C73.416 36.0687 73.7097 36.1324 74.0503 36.1324C74.3909 36.1324 74.6835 36.0687 74.9252 35.9387C75.1684 35.8087 75.3668 35.6379 75.5233 35.4237C75.6798 35.2095 75.7951 34.9674 75.8689 34.6956C75.9434 34.4249 75.981 34.1491 75.981 33.8712C75.981 33.5933 75.9437 33.3114 75.8689 33.0421C75.7954 32.7739 75.6798 32.5329 75.5233 32.3187C75.3668 32.1045 75.1684 31.9337 74.9252 31.8037C74.6835 31.6737 74.3909 31.6089 74.0503 31.6089C73.7097 31.6089 73.416 31.6737 73.1718 31.8037C72.9261 31.9337 72.7252 32.1045 72.5701 32.3187C72.4136 32.5329 72.2983 32.7735 72.2245 33.0421C72.15 33.3118 72.1124 33.5872 72.1124 33.8712C72.1124 34.1552 72.1497 34.4249 72.2245 34.6956ZM71.7744 32.8555C71.8743 32.5329 72.0258 32.2489 72.227 32.001C72.4294 31.7543 72.6819 31.557 72.9877 31.4101C73.2921 31.2644 73.6474 31.191 74.0503 31.191C74.4532 31.191 74.8074 31.2644 75.1093 31.4101C75.4115 31.557 75.664 31.7543 75.8649 32.001C76.0673 32.2489 76.2188 32.5329 76.3198 32.8555C76.4197 33.1768 76.4702 33.5163 76.4702 33.8712C76.4702 34.2261 76.4197 34.5656 76.3198 34.8869C76.2188 35.2081 76.0669 35.491 75.8649 35.7367C75.664 35.9824 75.4112 36.1772 75.1093 36.324C74.807 36.4709 74.4532 36.5443 74.0503 36.5443C73.6474 36.5443 73.2921 36.4709 72.9877 36.324C72.6819 36.1772 72.4294 35.9824 72.227 35.7367C72.0261 35.491 71.8743 35.2085 71.7744 34.8869C71.6719 34.5656 71.6214 34.2261 71.6214 33.8712C71.6214 33.5163 71.6719 33.1768 71.7744 32.8555ZM67.0399 31.2991V36.4429H67.5298V34.6774L68.5179 33.7627L70.6566 36.4429H71.2909L68.885 33.4246L71.1824 31.2991H70.5205L67.5298 34.065V31.2991H67.0399ZM62.6674 35.413C62.5808 35.235 62.54 35.0133 62.5446 34.7497H62.0547C62.0404 35.0663 62.0823 35.3381 62.1811 35.5634C62.2799 35.7897 62.4207 35.9749 62.6023 36.1181C62.7853 36.2624 63.0055 36.3695 63.2655 36.4394C63.5245 36.5092 63.8059 36.5439 64.1078 36.5439C64.4097 36.5439 64.6698 36.5149 64.8864 36.4609C65.102 36.4053 65.2836 36.3334 65.4304 36.2442C65.5762 36.155 65.6915 36.0565 65.776 35.9459C65.8602 35.8352 65.9254 35.7256 65.9708 35.6175C66.0167 35.5104 66.0443 35.4079 66.0575 35.3116C66.0683 35.2153 66.0743 35.1383 66.0743 35.0806C66.0743 34.87 66.0396 34.6895 65.9708 34.5402C65.901 34.3923 65.8047 34.2659 65.6818 34.1624C65.5604 34.0589 65.4182 33.9733 65.2571 33.9034C65.0959 33.8336 64.9247 33.7745 64.7421 33.7265L63.4894 33.4171C63.3833 33.3931 63.2834 33.3616 63.1896 33.3233C63.0958 33.2846 63.0138 33.2341 62.9418 33.1718C62.8694 33.1091 62.8128 33.0335 62.772 32.9444C62.7312 32.8566 62.7108 32.7517 62.7108 32.6314C62.7108 32.4401 62.7469 32.2786 62.8189 32.1486C62.8913 32.0197 62.9851 31.9151 63.1029 31.8356C63.2208 31.7561 63.3579 31.6984 63.5133 31.6623C63.6699 31.6261 63.8324 31.6082 64.0008 31.6082C64.1823 31.6082 64.3571 31.6336 64.5233 31.6841C64.688 31.7346 64.8348 31.8095 64.9627 31.9079C65.0891 32.0068 65.1926 32.1282 65.2721 32.275C65.3516 32.4219 65.396 32.5927 65.4057 32.79H65.8956C65.8956 32.5254 65.8437 32.294 65.7402 32.0945C65.6367 31.8958 65.4995 31.7285 65.3262 31.5939C65.1529 31.4592 64.952 31.3593 64.721 31.2916C64.491 31.2243 64.2479 31.1906 63.994 31.1906C63.633 31.1906 63.3379 31.2425 63.1069 31.346C62.8769 31.4495 62.6954 31.5745 62.5629 31.7239C62.4318 31.8732 62.3415 32.0308 62.2932 32.1991C62.2452 32.3674 62.2209 32.5142 62.2209 32.6385C62.2209 32.8409 62.2534 33.0117 62.3183 33.1499C62.3831 33.2896 62.4676 33.4074 62.5733 33.5038C62.6793 33.5987 62.8032 33.676 62.945 33.7337C63.0857 33.7913 63.2315 33.8397 63.3808 33.878L64.5254 34.1584C64.6458 34.1874 64.7686 34.2247 64.8936 34.2705C65.0175 34.3164 65.1317 34.3751 65.2352 34.4464C65.3387 34.5198 65.4229 34.6075 65.4881 34.7135C65.5529 34.8195 65.5844 34.9445 65.5844 35.0878C65.5844 35.2754 65.54 35.4355 65.4483 35.568C65.357 35.7005 65.2424 35.8076 65.1052 35.8918C64.9692 35.9759 64.8212 36.0375 64.6622 36.0748C64.5047 36.1135 64.3578 36.1324 64.2228 36.1324C63.9882 36.1324 63.7665 36.1095 63.5595 36.0637C63.3536 36.0193 63.1746 35.9434 63.0241 35.8373C62.8727 35.7313 62.7534 35.5906 62.6667 35.4126M58.9135 30.8887L59.6706 29.873H60.2325L59.2817 30.8887H58.9135ZM60.341 34.426L59.3469 31.789L58.3154 34.426H60.341ZM59.6416 31.2991L61.6586 36.4429H61.1325L60.5054 34.8435H58.1647L57.5447 36.4429H57.0262L59.094 31.2991H59.6416ZM52.3289 31.2991V36.4429H52.8188V33.9504H55.8748V36.4429H56.3633V31.2991H55.8748V33.5317H52.8188V31.2991H52.3289ZM48.8783 36.4433H48.3884V31.2995H48.8783V36.4433ZM48.2093 30.8887L48.965 29.8716H49.5269L48.5761 30.8887H48.209H48.2093ZM137.116 8.2165L140.654 17.6328H133.391L137.116 8.2165ZM127.727 24.7883H130.466L132.54 19.7877H141.452L143.526 24.7883H146.425L138.659 5.58352H135.814L127.727 24.7883ZM104.215 24.7883H106.794V7.60517L112.861 24.7879H115.386L121.69 7.49917V24.7879H124.297V5.58317H119.91L114.349 21.4097L108.922 5.58317H104.215V24.7879L104.215 24.7883ZM86.259 24.7883H98.5217V22.4475H88.9199V16.0653H97.8563V13.8291H88.9199V7.84512H98.3076V5.58352H86.259V24.7883ZM51.1482 19.176C51.2022 20.5072 51.3598 22.9804 55.7759 22.9804C59.7655 22.9804 60.2723 20.5072 60.2723 19.5481C60.2723 17.3936 58.5439 16.9689 55.8554 16.302C52.9309 15.5847 51.6273 15.2656 50.6443 14.6002C49.0749 13.5373 48.6488 12.1004 48.6488 10.8248C48.6488 6.91326 52.3447 5.21143 55.965 5.21143C57.2407 5.21143 59.821 5.42344 61.3628 7.09985C62.4253 8.27094 62.4798 9.5731 62.5328 10.3725H59.7659C59.6348 7.97727 57.6128 7.44545 55.7244 7.44545C53.0634 7.44545 51.4687 8.6416 51.4687 10.559C51.4687 12.2609 52.5857 12.8457 54.9254 13.404C59.5012 14.574 60.0055 14.6811 61.1235 15.426C62.906 16.5971 63.0395 18.459 63.0395 19.257C63.0395 22.6606 60.3786 25.2399 55.4586 25.2399C53.9939 25.2399 51.0153 25.0003 49.5 23.0614C48.4095 21.6496 48.3845 20.1068 48.3845 19.1764H51.1489L51.1482 19.176Z" fill="black"/>
</svg>
