<svg width="28" height="26" viewBox="0 0 28 26" fill="none" xmlns="http://www.w3.org/2000/svg">
<path d="M13.6211 0.5C13.6976 0.5 13.7729 0.521241 13.8379 0.561523C13.9031 0.602025 13.9563 0.660693 13.9902 0.729492L17.707 8.25879L17.8232 8.49414L18.083 8.53223L26.3916 9.73828C26.4676 9.74923 26.5399 9.78158 26.5986 9.83105C26.6573 9.88051 26.7009 9.94557 26.7246 10.0186C26.7483 10.0915 26.7508 10.1696 26.7324 10.2441C26.7186 10.3 26.6932 10.3523 26.6582 10.3975L26.6201 10.4404L20.6074 16.3008L20.4199 16.4844L20.4639 16.7432L21.8828 25.0205C21.8955 25.0958 21.8872 25.1734 21.8584 25.2441C21.8294 25.315 21.7817 25.3769 21.7197 25.4219C21.6578 25.4669 21.5842 25.4934 21.5078 25.499C21.4316 25.5045 21.3548 25.4885 21.2871 25.4531L13.8545 21.5449L13.6221 21.4229L13.3896 21.5459L5.95801 25.4531C5.89017 25.4887 5.81369 25.5046 5.7373 25.499C5.66076 25.4935 5.58746 25.466 5.52539 25.4209C5.46338 25.3758 5.41461 25.3142 5.38574 25.2432C5.35707 25.1724 5.34848 25.0948 5.36133 25.0195V25.0186L6.78125 16.7432L6.8252 16.4844L6.63672 16.3008L0.625 10.4404H0.624023C0.569041 10.387 0.530156 10.3185 0.511719 10.2441C0.49342 10.1699 0.496925 10.0922 0.520508 10.0195C0.544227 9.94661 0.58778 9.88137 0.646484 9.83203C0.705162 9.78276 0.776682 9.75104 0.852539 9.74023H0.853516L9.16211 8.53223L9.42188 8.49414L9.53809 8.25879L13.2529 0.729492C13.2869 0.660695 13.3391 0.602026 13.4043 0.561523C13.4693 0.521164 13.5445 0.500035 13.6211 0.5Z" fill="#F1CA77" stroke="#BA7F2C"/>
<path d="M16.5861 12.2075C16.5861 12.6695 16.4508 13.0708 16.1801 13.4115C15.9095 13.7475 15.5081 14.0625 14.9761 14.3565C15.6155 14.6365 16.1078 14.9981 16.4531 15.4415C16.7985 15.8801 16.9711 16.3865 16.9711 16.9605C16.9711 17.4785 16.8358 17.9498 16.5651 18.3745C16.2945 18.7945 15.9025 19.1305 15.3891 19.3825C14.8805 19.6298 14.2621 19.7535 13.5341 19.7535C12.8108 19.7535 12.1971 19.6298 11.6931 19.3825C11.1891 19.1351 10.8088 18.8038 10.5521 18.3885C10.2955 17.9685 10.1671 17.5041 10.1671 16.9955C10.1671 16.4168 10.3375 15.9245 10.6781 15.5185C11.0188 15.1078 11.4738 14.7741 12.0431 14.5175C11.5391 14.2468 11.1635 13.9435 10.9161 13.6075C10.6735 13.2668 10.5521 12.8281 10.5521 12.2915C10.5521 11.8575 10.6385 11.4818 10.8111 11.1645C10.9838 10.8425 11.2148 10.5741 11.5041 10.3595C11.7935 10.1401 12.1178 9.97679 12.4771 9.86945C12.8365 9.76212 13.2028 9.70845 13.5761 9.70845C13.9728 9.70845 14.3508 9.76212 14.7101 9.86945C15.0695 9.97212 15.3891 10.1285 15.6691 10.3385C15.9538 10.5438 16.1778 10.8028 16.3411 11.1155C16.5045 11.4281 16.5861 11.7921 16.5861 12.2075ZM15.3681 16.9675C15.3681 16.5755 15.2748 16.2628 15.0881 16.0295C14.9061 15.7961 14.6425 15.6001 14.2971 15.4415C13.9518 15.2828 13.5388 15.1195 13.0581 14.9515C12.8248 15.0728 12.6101 15.2245 12.4141 15.4065C12.2181 15.5838 12.0618 15.7985 11.9451 16.0505C11.8285 16.3025 11.7701 16.6011 11.7701 16.9465C11.7701 17.4411 11.9195 17.8355 12.2181 18.1295C12.5168 18.4188 12.9625 18.5635 13.5551 18.5635C14.1525 18.5635 14.6028 18.4095 14.9061 18.1015C15.2141 17.7935 15.3681 17.4155 15.3681 16.9675ZM12.0711 12.2985C12.0711 12.6158 12.1435 12.8725 12.2881 13.0685C12.4328 13.2645 12.6428 13.4301 12.9181 13.5655C13.1935 13.6961 13.5271 13.8291 13.9191 13.9645C14.3158 13.7171 14.6051 13.4698 14.7871 13.2225C14.9738 12.9705 15.0671 12.6578 15.0671 12.2845C15.0671 11.8505 14.9388 11.5028 14.6821 11.2415C14.4255 10.9801 14.0568 10.8495 13.5761 10.8495C13.1001 10.8495 12.7291 10.9755 12.4631 11.2275C12.2018 11.4795 12.0711 11.8365 12.0711 12.2985Z" fill="#2B3C33"/>
</svg>
