<svg width="28" height="26" viewBox="0 0 28 26" fill="none" xmlns="http://www.w3.org/2000/svg">
<path d="M13.6211 0.5C13.6976 0.5 13.7729 0.521241 13.8379 0.561523C13.9031 0.602025 13.9563 0.660693 13.9902 0.729492L17.707 8.25879L17.8232 8.49414L18.083 8.53223L26.3916 9.73828C26.4676 9.74923 26.5399 9.78158 26.5986 9.83105C26.6573 9.88051 26.7009 9.94557 26.7246 10.0186C26.7483 10.0915 26.7508 10.1696 26.7324 10.2441C26.7186 10.3 26.6932 10.3523 26.6582 10.3975L26.6201 10.4404L20.6074 16.3008L20.4199 16.4844L20.4639 16.7432L21.8828 25.0205C21.8955 25.0958 21.8872 25.1734 21.8584 25.2441C21.8294 25.315 21.7817 25.3769 21.7197 25.4219C21.6578 25.4669 21.5842 25.4934 21.5078 25.499C21.4316 25.5045 21.3548 25.4885 21.2871 25.4531L13.8545 21.5449L13.6221 21.4229L13.3896 21.5459L5.95801 25.4531C5.89017 25.4887 5.81369 25.5046 5.7373 25.499C5.66076 25.4935 5.58746 25.466 5.52539 25.4209C5.46338 25.3758 5.41461 25.3142 5.38574 25.2432C5.35707 25.1724 5.34848 25.0948 5.36133 25.0195V25.0186L6.78125 16.7432L6.8252 16.4844L6.63672 16.3008L0.625 10.4404H0.624023C0.569041 10.387 0.530156 10.3185 0.511719 10.2441C0.49342 10.1699 0.496925 10.0922 0.520508 10.0195C0.544227 9.94661 0.58778 9.88137 0.646484 9.83203C0.705162 9.78276 0.776682 9.75104 0.852539 9.74023H0.853516L9.16211 8.53223L9.42188 8.49414L9.53809 8.25879L13.2529 0.729492C13.2869 0.660695 13.3391 0.602026 13.4043 0.561523C13.4693 0.521164 13.5445 0.500035 13.6211 0.5Z" fill="#F1CA77" stroke="#BA7F2C"/>
<path d="M13.5105 9.1108C14.1498 9.1108 14.7005 9.2228 15.1625 9.4468C15.6245 9.6708 15.9791 9.96713 16.2265 10.3358C16.4738 10.7045 16.5975 11.1105 16.5975 11.5538C16.5975 11.9505 16.5135 12.3051 16.3455 12.6178C16.1775 12.9305 15.9488 13.1895 15.6595 13.3948C15.3701 13.6001 15.0435 13.7448 14.6795 13.8288C15.0855 13.8708 15.4565 13.9828 15.7925 14.1648C16.1285 14.3468 16.3968 14.6058 16.5975 14.9418C16.8028 15.2778 16.9055 15.7001 16.9055 16.2088C16.9055 16.7595 16.7608 17.2588 16.4715 17.7068C16.1868 18.1501 15.7808 18.5025 15.2535 18.7638C14.7308 19.0251 14.1148 19.1558 13.4055 19.1558C12.7988 19.1558 12.2201 19.0438 11.6695 18.8198C11.1235 18.5958 10.6591 18.2575 10.2765 17.8048L11.2355 16.9648C11.5108 17.2868 11.8328 17.5248 12.2015 17.6788C12.5701 17.8328 12.9481 17.9098 13.3355 17.9098C13.9328 17.9098 14.4065 17.7558 14.7565 17.4478C15.1065 17.1351 15.2815 16.7035 15.2815 16.1528C15.2815 15.7328 15.2021 15.4015 15.0435 15.1588C14.8895 14.9115 14.6725 14.7341 14.3925 14.6268C14.1125 14.5195 13.7881 14.4658 13.4195 14.4658H12.5865L12.7685 13.3108H13.3565C13.6598 13.3108 13.9398 13.2571 14.1965 13.1498C14.4531 13.0378 14.6585 12.8675 14.8125 12.6388C14.9711 12.4101 15.0505 12.1255 15.0505 11.7848C15.0505 11.3135 14.8895 10.9518 14.5675 10.6998C14.2501 10.4478 13.8558 10.3218 13.3845 10.3218C12.9831 10.3218 12.6238 10.3965 12.3065 10.5458C11.9938 10.6905 11.6858 10.9051 11.3825 11.1898L10.5495 10.3008C10.9741 9.8948 11.4338 9.59613 11.9285 9.4048C12.4231 9.2088 12.9505 9.1108 13.5105 9.1108Z" fill="#2B3C33"/>
</svg>
