<svg width="28" height="26" viewBox="0 0 28 26" fill="none" xmlns="http://www.w3.org/2000/svg">
<path d="M13.6211 0.5C13.6976 0.5 13.7729 0.521241 13.8379 0.561523C13.9031 0.602025 13.9563 0.660693 13.9902 0.729492L17.707 8.25879L17.8232 8.49414L18.083 8.53223L26.3916 9.73828C26.4676 9.74923 26.5399 9.78158 26.5986 9.83105C26.6573 9.88051 26.7009 9.94557 26.7246 10.0186C26.7483 10.0915 26.7508 10.1696 26.7324 10.2441C26.7186 10.3 26.6932 10.3523 26.6582 10.3975L26.6201 10.4404L20.6074 16.3008L20.4199 16.4844L20.4639 16.7432L21.8828 25.0205C21.8955 25.0958 21.8872 25.1734 21.8584 25.2441C21.8294 25.315 21.7817 25.3769 21.7197 25.4219C21.6578 25.4669 21.5842 25.4934 21.5078 25.499C21.4316 25.5045 21.3548 25.4885 21.2871 25.4531L13.8545 21.5449L13.6221 21.4229L13.3896 21.5459L5.95801 25.4531C5.89017 25.4887 5.81369 25.5046 5.7373 25.499C5.66076 25.4935 5.58746 25.466 5.52539 25.4209C5.46338 25.3758 5.41461 25.3142 5.38574 25.2432C5.35707 25.1724 5.34848 25.0948 5.36133 25.0195V25.0186L6.78125 16.7432L6.8252 16.4844L6.63672 16.3008L0.625 10.4404H0.624023C0.569041 10.387 0.530156 10.3185 0.511719 10.2441C0.49342 10.1699 0.496925 10.0922 0.520508 10.0195C0.544227 9.94661 0.58778 9.88137 0.646484 9.83203C0.705162 9.78276 0.776682 9.75104 0.852539 9.74023H0.853516L9.16211 8.53223L9.42188 8.49414L9.53809 8.25879L13.2529 0.729492C13.2869 0.660695 13.3391 0.602026 13.4043 0.561523C13.4693 0.521164 13.5445 0.500035 13.6211 0.5Z" fill="#F1CA77" stroke="#BA7F2C"/>
<path d="M14.1431 9.70845C14.5398 9.70845 14.9015 9.76212 15.2281 9.86945C15.5595 9.97212 15.8605 10.1145 16.1311 10.2965L15.5221 11.3045C15.3168 11.1691 15.0975 11.0688 14.8641 11.0035C14.6308 10.9335 14.3928 10.8985 14.1501 10.8985C13.6881 10.8985 13.2891 11.0501 12.9531 11.3535C12.6218 11.6568 12.3675 12.0885 12.1901 12.6485C12.0128 13.2085 11.9241 13.8758 11.9241 14.6505L11.9381 15.1895C11.9381 16.3421 12.0688 17.1938 12.3301 17.7445C12.5961 18.2905 13.0488 18.5635 13.6881 18.5635C14.2248 18.5635 14.6238 18.3628 14.8851 17.9615C15.1511 17.5555 15.2841 17.0258 15.2841 16.3725C15.2841 15.8731 15.2235 15.4788 15.1021 15.1895C14.9808 14.9001 14.8105 14.6925 14.5911 14.5665C14.3718 14.4405 14.1128 14.3775 13.8141 14.3775C13.3895 14.3775 13.0045 14.5011 12.6591 14.7485C12.3138 14.9958 12.0291 15.3225 11.8051 15.7285L11.7771 14.5525C12.0898 14.0765 12.4468 13.7335 12.8481 13.5235C13.2495 13.3088 13.6811 13.2015 14.1431 13.2015C14.6425 13.2015 15.0975 13.3181 15.5081 13.5515C15.9235 13.7801 16.2548 14.1255 16.5021 14.5875C16.7495 15.0448 16.8731 15.6165 16.8731 16.3025C16.8731 16.9885 16.7331 17.5905 16.4531 18.1085C16.1778 18.6265 15.7998 19.0301 15.3191 19.3195C14.8385 19.6088 14.2925 19.7535 13.6811 19.7535C13.0745 19.7535 12.5565 19.6391 12.1271 19.4105C11.7025 19.1818 11.3571 18.8575 11.0911 18.4375C10.8251 18.0175 10.6291 17.5228 10.5031 16.9535C10.3818 16.3795 10.3211 15.7518 10.3211 15.0705C10.3211 13.9925 10.4728 13.0521 10.7761 12.2495C11.0841 11.4468 11.5228 10.8238 12.0921 10.3805C12.6615 9.93245 13.3451 9.70845 14.1431 9.70845Z" fill="#2B3C33"/>
</svg>
