<svg width="28" height="26" viewBox="0 0 28 26" fill="none" xmlns="http://www.w3.org/2000/svg">
<path d="M13.6211 0.5C13.6976 0.5 13.7729 0.521241 13.8379 0.561523C13.9031 0.602025 13.9563 0.660693 13.9902 0.729492L17.707 8.25879L17.8232 8.49414L18.083 8.53223L26.3916 9.73828C26.4676 9.74923 26.5399 9.78158 26.5986 9.83105C26.6573 9.88051 26.7009 9.94557 26.7246 10.0186C26.7483 10.0915 26.7508 10.1696 26.7324 10.2441C26.7186 10.3 26.6932 10.3523 26.6582 10.3975L26.6201 10.4404L20.6074 16.3008L20.4199 16.4844L20.4639 16.7432L21.8828 25.0205C21.8955 25.0958 21.8872 25.1734 21.8584 25.2441C21.8294 25.315 21.7817 25.3769 21.7197 25.4219C21.6578 25.4669 21.5842 25.4934 21.5078 25.499C21.4316 25.5045 21.3548 25.4885 21.2871 25.4531L13.8545 21.5449L13.6221 21.4229L13.3896 21.5459L5.95801 25.4531C5.89017 25.4887 5.81369 25.5046 5.7373 25.499C5.66076 25.4935 5.58746 25.466 5.52539 25.4209C5.46338 25.3758 5.41461 25.3142 5.38574 25.2432C5.35707 25.1724 5.34848 25.0948 5.36133 25.0195V25.0186L6.78125 16.7432L6.8252 16.4844L6.63672 16.3008L0.625 10.4404H0.624023C0.569041 10.387 0.530156 10.3185 0.511719 10.2441C0.49342 10.1699 0.496925 10.0922 0.520508 10.0195C0.544227 9.94661 0.58778 9.88137 0.646484 9.83203C0.705162 9.78276 0.776682 9.75104 0.852539 9.74023H0.853516L9.16211 8.53223L9.42188 8.49414L9.53809 8.25879L13.2529 0.729492C13.2869 0.660695 13.3391 0.602026 13.4043 0.561523C13.4693 0.521164 13.5445 0.500035 13.6211 0.5Z" fill="#F1CA77" stroke="#BA7F2C"/>
<path d="M13.5375 9.1108C14.1955 9.1108 14.7508 9.23446 15.2035 9.4818C15.6608 9.72446 16.0085 10.0511 16.2465 10.4618C16.4892 10.8725 16.6105 11.3321 16.6105 11.8408C16.6105 12.2608 16.5358 12.6738 16.3865 13.0798C16.2418 13.4858 16.0062 13.9128 15.6795 14.3608C15.3575 14.8041 14.9305 15.2988 14.3985 15.8448C13.8665 16.3861 13.2155 17.0068 12.4455 17.7068H16.8345L16.6525 18.9668H10.6465V17.7768C11.3418 17.1141 11.9368 16.5308 12.4315 16.0268C12.9262 15.5181 13.3392 15.0725 13.6705 14.6898C14.0018 14.3025 14.2632 13.9548 14.4545 13.6468C14.6458 13.3341 14.7812 13.0425 14.8605 12.7718C14.9445 12.4965 14.9865 12.2188 14.9865 11.9388C14.9865 11.4535 14.8488 11.0708 14.5735 10.7908C14.2982 10.5108 13.9155 10.3708 13.4255 10.3708C12.9868 10.3708 12.6228 10.4501 12.3335 10.6088C12.0442 10.7675 11.7572 11.0241 11.4725 11.3788L10.4505 10.6018C10.8285 10.1211 11.2625 9.75246 11.7525 9.4958C12.2425 9.23913 12.8375 9.1108 13.5375 9.1108Z" fill="#2B3C33"/>
</svg>
