<svg width="28" height="26" viewBox="0 0 28 26" fill="none" xmlns="http://www.w3.org/2000/svg">
<path d="M13.6211 0.5C13.6976 0.5 13.7729 0.521241 13.8379 0.561523C13.9031 0.602025 13.9563 0.660693 13.9902 0.729492L17.707 8.25879L17.8232 8.49414L18.083 8.53223L26.3916 9.73828C26.4676 9.74923 26.5399 9.78158 26.5986 9.83105C26.6573 9.88051 26.7009 9.94557 26.7246 10.0186C26.7483 10.0915 26.7508 10.1696 26.7324 10.2441C26.7186 10.3 26.6932 10.3523 26.6582 10.3975L26.6201 10.4404L20.6074 16.3008L20.4199 16.4844L20.4639 16.7432L21.8828 25.0205C21.8955 25.0958 21.8872 25.1734 21.8584 25.2441C21.8294 25.315 21.7817 25.3769 21.7197 25.4219C21.6578 25.4669 21.5842 25.4934 21.5078 25.499C21.4316 25.5045 21.3548 25.4885 21.2871 25.4531L13.8545 21.5449L13.6221 21.4229L13.3896 21.5459L5.95801 25.4531C5.89017 25.4887 5.81369 25.5046 5.7373 25.499C5.66076 25.4935 5.58746 25.466 5.52539 25.4209C5.46338 25.3758 5.41461 25.3142 5.38574 25.2432C5.35707 25.1724 5.34848 25.0948 5.36133 25.0195V25.0186L6.78125 16.7432L6.8252 16.4844L6.63672 16.3008L0.625 10.4404H0.624023C0.569041 10.387 0.530156 10.3185 0.511719 10.2441C0.49342 10.1699 0.496925 10.0922 0.520508 10.0195C0.544227 9.94661 0.58778 9.88137 0.646484 9.83203C0.705162 9.78276 0.776682 9.75104 0.852539 9.74023H0.853516L9.16211 8.53223L9.42188 8.49414L9.53809 8.25879L13.2529 0.729492C13.2869 0.660695 13.3391 0.602026 13.4043 0.561523C13.4693 0.521164 13.5445 0.500035 13.6211 0.5Z" fill="#F1CA77" stroke="#C19F6F"/>
<path d="M16.6955 9.3068L16.4925 10.4828H12.7825V13.1708C13.0578 13.0261 13.3238 12.9281 13.5805 12.8768C13.8418 12.8208 14.1031 12.7928 14.3645 12.7928C14.8778 12.7928 15.3351 12.9141 15.7365 13.1568C16.1378 13.3995 16.4528 13.7495 16.6815 14.2068C16.9148 14.6641 17.0315 15.2171 17.0315 15.8658C17.0315 16.5098 16.8868 17.0815 16.5975 17.5808C16.3128 18.0755 15.9115 18.4628 15.3935 18.7428C14.8755 19.0181 14.2665 19.1558 13.5665 19.1558C12.9365 19.1558 12.3765 19.0438 11.8865 18.8198C11.4011 18.5911 10.9741 18.2808 10.6055 17.8888L11.5435 17.0068C11.8141 17.3055 12.1105 17.5318 12.4325 17.6858C12.7591 17.8351 13.1161 17.9098 13.5035 17.9098C14.0915 17.9098 14.5535 17.7325 14.8895 17.3778C15.2301 17.0185 15.4005 16.5121 15.4005 15.8588C15.4005 15.3828 15.3305 15.0071 15.1905 14.7318C15.0551 14.4518 14.8685 14.2511 14.6305 14.1298C14.3925 14.0085 14.1241 13.9478 13.8255 13.9478C13.5828 13.9478 13.3541 13.9735 13.1395 14.0248C12.9295 14.0761 12.6961 14.1578 12.4395 14.2698H11.2845V9.3068H16.6955Z" fill="#2B3C33"/>
</svg>
